<mxfile host="app.diagrams.net" agent="Mozilla/5.0 (X11; Linux x86_64) AppleWebKit/537.36 (KHTML, like Gecko) Chrome/137.0.0.0 Safari/537.36" version="27.1.1">
  <diagram name="Page-1" id="QQi2zhlTc9U6-GQ-XRDl">
    <mxGraphModel dx="815" dy="455" grid="1" gridSize="10" guides="1" tooltips="1" connect="1" arrows="1" fold="1" page="1" pageScale="1" pageWidth="850" pageHeight="1100" math="0" shadow="0">
      <root>
        <mxCell id="0" />
        <mxCell id="1" parent="0" />
        <mxCell id="wmjr8Ue8o1Gtoz59wysQ-1" value="GitLab CI" style="shape=image;verticalLabelPosition=bottom;labelBackgroundColor=default;verticalAlign=top;aspect=fixed;imageAspect=0;image=data:image/png,iVBORw0KGgoAAAANSUhEUgAAAXwAAAF8CAYAAADM5wDKAAAABHNCSVQICAgIfAhkiAAAH5ZJREFUeF7t3V+MXNddwPFzZzde7zrrXTs4cdOE2An12gEU960PSLFI4A3FeUBVaVG2AgQIVQoCiRZUqVIFTSWQIiGEECpt1ULVp4QHJASq5Ep96FvNC8kaguM4zR+C4/W//WPv3Mv5ze4469mZuX/mnnt+59zvSIZ47rnnz+d39tfr3965YwwvBBBAAAEEEEAAAQQQQAABBBBAAAEEEEAAAQQQQAABBBBAAAEEEEAAAQQQQAABBBBAAAEEEEAAAQQQQAABBBBAAAEEEEAAAQQQQAABBBBAAAEEEEAAAQQQQAABBBBAAAEEEEAAAQQQQAABBBBAAAEEEEAAAQQQQAABBBBAAAEEEEAAAQQQQAABBBBAAAEEEEAAAQQQQAABBBBAAAEEEEAAAQQQQAABBBBAAAEEEEAAAQQQQAABBBBAAAEEEEAAAQQQQAABBBBAAAEEEEAAAQQQQAABBBBAAAEEEEAAAQQQQAABBBBAAAEEEEAAAQQQQAABBBBAAAEEEEAAAQQQQAABBBBAAAEEEEAAAQQQQAABBBBAAAEEEEAAAQQQQAABBBBAAAEEEEAAAQQQQAABBBBAAAEEEEAAAQQQQAABBBBAAAEEEEAAAQQQQAABBBBAAAEEEEAAAQQQQAABBBBAAAEEEEAAAQQQQAABBBBAAAEEEEAAAQQQQAABBBBAAAEEEEAAAQQQQAABBBBAAAEEEEAAAQQQQAABBBBAAAEEEEAAAQQQQAABBBBAAAEEEEAAAQQQQAABBBBAAAEEEEAAAQQQQAABBBBAAAEEEEAAAQQQQAABBBBAAAEEEEAAAQQQQAABBBBAAAEEEEAAAQQQQAABBBBAAAEEEEAAAQQQQAABBBBAAAEEEEAAAQQQQAABBBBAAAEEEEAAAQQQQAABBBBAAAEEEEAAAQQQQAABBBBAAAEEEEAAAQQQQAABBBBAAAEEEEAAAQQQQAABBBBAAAEEEEAAAQQQQAABBBBAAAEEEEAAAQQQQAABBBBAAAEEEEAAAQQQQAABBBBAAAEEEEAAAQQQQAABBBBAAAEEEEAAAQQQQAABBBBAAAEEEEAAAQQQQAABBBBAAAEEEEAAAQQQQAABBBBAAAEEEEAAAQQQQAABBBBAAAEEEIhWIIl2ZSwsV+DtX3nydDczZ3c3nErMq4/8+3+ezz2ZBuoF+vHtZNlimiSrMmHiqz5sTidIwnfKq7Pzi2dOHpvqJN8yiXl66Awz88Numi0fP/f6m0OP86ZqAeKrOjxeJ0fC98rf/OBy1Zem2Tk78kLO6Nc6neQMV/s5SsoOE19lAVE2HRK+soC4nM7FM6cXp6c2z2fGPFZkHLs5Lm11Z04fP3e+Vw7gpVuA+OqOj4bZdTRMgjk0I9DpbC4XTfYyI2kr5zQzO0aZVID4TioY//kk/PhjfHeFncS8WHa5SZItlz2H9n4EqsSqyp7wszpGrUOAhF+HYgB9XH725JkyV/cfLSl5Sn4JGMASWz3F7RglT5VFkD0he6PsebQPU4CEH2bcSs86y5Ll0iftnGB/eXvPrZtV++E8dwKTxGiSveFuRfTsQoCE70JVWZ/yyzw7pcpJu0qpQBlB9NOZMEZnd/ZI9E5tXyAJvwU7YKqzIck+7zbMMRKUdcbgeD9UtZyza+ILO3vE+1qYgFsBEr5bXyW9Vy/n9BcwSclACUK006gnNpPvkWiBI1oYCT+iYA5bSu/qb9QnaoedMOK9CUsGI3rl7ToE7OclKpfr7o5v9wi/nK8jGrr7IOHrjs/Es5ueSkrfijl8UCnr9H4XwEuRQC8mNfwPuiypvr2iCIip3CNAwo9/Q0x+9bdjRJ1X32apOSa17RV9UsxIBEj4Ee+Dt545dbbavfcjUBJuzxwh4+/tGmMie0X2jL/FMLJrARK+a2G//S/XPPxzlHVqFp2gu51YPDdBF8NOrXvPDBuD9zwJkPA9wbse1lEyMDWXEFwzRN2/o1jwP+oR7xoSfqTBdfbQsxpLCJHSN7csR7Fwtneak2GkEQIk/BEwob/t8KFYXAEq2Byu/gUnS3O4dxTItXsKJPwI4y9fglHrL2sHjByVEiKMhLsluYyB7B3ZQ+5mT8++BEj4vuQdjmu/0aqme+9HTNJRKWHEaLw9TMBxDJzvoWFr4j3nAnzjlXPi5gewt9at2lEneHZO/py73ZlDfBNWvpOLFlLOmZravOqi7119XrMxPkaMHSs33D1X+A2Dux7urV8+uWzHcJrsZQ0uSwqujULvvyF7HqgW+kYZMn8S/hCUsN9KlhuZv+OSQiNrCHWQxuwb2kuhxiHAeZPwAwzaqCnX9aC0Uf0PvF/3B34KDkszK9CMPQ9Ui26zkfAjCmlnurPc5HL4GH6T2ttjNW3e9J5qXrRdI5LwI4p3J2v8C8d57krz+6dRcw97qnnRFo1Iwo8k2LU/KK2YS6PJp9iUom/VqDkPVItrP5Hw44lno4lgh22h6RJDPOEqv5Ida+d3YA2ZmY+9NWQavDWpAAl/UkEF5+98zP4FT1MhGTQH78v6BZ6S2lyQXY5Ewnep21Dfnh925SsJNaSrahhv1p73mKoghDwZEn7I0duZu+fvm6Ws08Ae8ljO6a3O8x5rQLgdQ5DwA4/z9kOukqc8L8PblafndTc5vGfj5CkeqNZkuN2MRcJ349pYr0oecuU5GTXG7XMg78ZK9prPGAQ/Ngk/+BAa74nAElLWcbiPfJdzdi1Nw15zKB1/1yT8gGPc1IPSChKRDApCVWimxXZhZ89VWAKnaBAg4WuIQtU5NPYQrUIT1JKUCk02sEaKbJPlwOyY7i4BEn6g26H3oLSmHqJVzGjh8rMnzxRrSquiAju/KPXxYavhU+SBasNdAnmXhB9IoAanqfKhVlmi6Ep0UCzMv2dp489HyoVSufdyZ00DESDhB7oPlD7UioRf/35SZ6p079UvH2GPJPwAgyqlE5dfUl6VhC+/rio3/DzXX0Y/fNT8dyXOlO/ynTS2IOFrjErOnLJM7y/ONJYgcjjVHtZsqXkPqg2ogomR8BUEocwUPD8orchU1ZUgikxaaRvNljxQTemmGTctEv44HYXHGvoC68orp6xTme6eE7WWc3ZPUvterCcScfVCwg8tnol5UfuUNZcitNv15xeEYQB7MZR4NzVPEn5T0jWMo+RBaUVWorkUUWT+GtoEYMgD1TRslDJzIOGX0fLcNoirPmtEWWeyjRJCOae/wlD25GQRiedsEn5AsbSJdDmU6ZIIqkcqJLuQ9mT1iMRzJgk/kFgqe1BaEbUAShJFluGlTUh2PFDNyxapNigJv5pb82fpelBa7vop6+QSDW0QUjnn7gIC25tD4VvyJgk/gEArfFBaIbVuNztTqCGN7goEavbczh4lksoFSPjKAyTT63TCfCgZ34NafnOFahbqHi0fobDPIOEHEL9OsPc7J09x5Vd8g21bef9+4uIT3tUy3D1aabnBnkTCVx46rQ9KK8rGlV9RqXD/JScr5IFqxePssyUJ36d+gbFDf0hVqCWKAqGpvUnoVqHv1doDqrDDROGcmNKOgDwobWpq8037Vz3feFQhOvYXkcePn3td1sFrhICUc6amkosjDofy9rVud+bY8XPnV0OZcNvmyRW+4ojvPJwq6GQvvJR18jdZJEYLPFAtP9Y+W5DwfernjR3sL2vvXVjopYq8MNVxPBqjSPZsHTHV2AclHY1RsXOK5J/4d3Up64zeaMR6tA1H6hWYrrc7eqtLYHoqedHe+RDNy9anX7707JPno1lQjQtJsux0jd1570r2rp2E/OGlTIArfGUB6U/nrWdOyS++gq/fK+VlWm4Frv3sD15bdDsEvVcRoIZfRc3xOTbZy8OzSPaOnenemcDCzh52NgAdVxMg4Vdzc33WsusB6B8BxwLsYcfAVbqnpFNFzeE5O/feX3U4BF0j0IgAv6hvhLnUIFzhl+Jy37jT2Vx2PwojIOBeIJLPFriHanAEEn6D2EWG4iFURZRoE4IAe1lflEj4imIS5JdfKPJjKroE+BIcXfGQ2ZDwFcUkTTPuXVYUD6YyuQB7enLDOnvgl7Z1ak7QVywPSpuAgFPjFOCBaoriyhW+kmDE8qA0JZxMQ48AD1TTEwtKOnpikSzrmQszQaBOAfZ2nZqT9EVJZxK9ms6N7eFZNbHQTUQC3JOvI5iUdBTEYedhUwpmwhQQcCPAHnfjWrZXrvDLijlov/n7J+7YLwWdvrORmM1bibm9Zoz8Ny8EQhW4b39m9s0ZM3MgM/LfJjFbM3974b5Q1xPLvMkqniN5/TdPfm1uMf3i4DTS1JiN65L8E7NxIzFpd7AFf0dAj0Bnypj985LkM7P/YGa/5Wzv3NZWOy8d/M7rX9p7hHeaEuB5+E1Jjxhnajr79WGH5AdmbjHr/ZGXXPGvrW4n/+6dYWfwHgLNCkzZ63VJ8rJHe1fxOa+dvU7Cz3FyeZiE71K3QN/2iujxAs16P1ALR+WP6V3195M/V/5F9GhTl0D/Sl6SvFzNl3kV3etl+qRtOYEh//Aq1wGtqwtc++zSi0nHVjdLvuQHbfHh1Dz4iW7v/xe5uio5BM0RuEdA9tjuPVc22Utnstdlz0PrT4ArfH/2xv6T+IVJht9d9pGSz60Pt6/8J+mTcxHYLSBX8gcOFyvZFJHb2fMvF2lLm/oFSPj1mxbucXomWyrcOKfh9hVYZuaPGHPzSsesX+MXvTlkHB4hIGWb2YXM3P9AKhcltb7q3PO1TqwlnZHwPQZ6ep+ZrXt4+QFdOJqa+QeNuXVFrvo73OFTN3Kk/UmiP3A4NQceGH6XTR3LdrHn65hXW/qghu8p0q5rmVLumT+S9er8/Tt9PC2VYQMQkD0ie0X2zLBbKutcguu9X+dcY+uLhO8pop1p83QTQ8sPr/yy7SH7wyy30PFCYLeA7AnZG7JHXCf6/rhN7X0ivVeAks5ek0beSRJzrJGBdgaRUs/hR9PeLZ1Xf9ox3MvfpL6+sWQ/HPp4WvrWyjpW0vTer2POsfRBwvcUyen7mk34/WXK7XRyRXfjA+r7nkLvddh+nV5KN75evva+r/VqGpeE7ysanWzG19AyrvzAzy12zeo7nd7ze3jFLyDPtZHSTd133pSW87z3S883ohNI+J6CqeFuBfnBf+CxtHf//o0PuJvH01ZwPqxc1c8fsXff2PvpNbw07H0NDj7mQML3oa5sTEkE++ZSe7Wf8JROZbGZdDr9z2fwaexJJeM4n7t04ojjxKuQhHDkcT1XgRMviA56V/QSU5I9m6EvQML3sBc034csH9qSu3mkDMArTAGJncRQYqn1pflnQKtZHfMi4dehGFkfcm/2kce7XBkGGNftf6nxmYsAQ9fIlEn4jTCHN4j8QpcST1hx65dwvN+FExZbq2bLL21bFe7yi5WywMyBpHf7Js/eL+/XxBlSwpHbLfkkdRPaYY/BDdie4rf1hRM67pEruH55/DJ38RTEarBZqHfhTP/1BXJPg/ukPxQlHQ/oIQ4pieWBYykPYlMUPHngmcSEu3AUBUX5VCjpKA+Qpun1H8S2by4x19+nxOMrNlLCOfgQ/+Pryz/kcUn4nqLX3TJbU9MmSP/tL63mg1o+tk6oJZzdVrL3fdgxpjGUdDztgmwruelp6FqGpcRTC2OpTmIp4YS+90sFTVljEr6ngNirnCuehq5t2H6Jp/csdT6oVZvrYEf9u3CafGb94Bzq/PvWHfNmnf3RV3EBEn5xq1pbppl5u9YOPXbWu/K0D2Hjl4f1B6H3LylrG9O3lmUZCb/+nVKsRxJ+MafaW6V3zKu1d+qxQ0o89ePHUsIZlEm3zA8H3+PvzQiQ8Jtx3jNKmnVe2fNm4G/0Szyan+ESCrEYxlLCGTSPce8PrlHr3/nwg8fIbPzuibVYnw0uH9T68DJfpVh2e/W/ijLW8tjWbbO+/+8uzJV1oX09Alzh1+NYqZetzWSl0okBnCQJ68gTPMSrTKh6D62zZrEme7GIec+XibWvtiR8X/J23LSb/KvH4Z0PLSUe7Y/pdY5QcIC7j6WO/Ccy9j1fMNzemlHS8Ua/PXBoz9SpykWJZ7hc7CWcwVXzDJ1BkWb/Hvn1RLOYVUa7vZa8V+W80M6hxLM3Ym0o4exedVv2+t5I63mHhO85FvaXWP/ieQqNDU+J5yPqtpRwdm+uNu31xn6oSg5ESackmIvmd/7gRJp0TKtiISWeK5fa9wA2+dRsGz+klqUmu+9vLnCB6SKBlOiTAJTActV081byH6761tqvlHge/ETXfrlKUF8LMBGnrFXWHPNdOKOA2rjHR1n4fJ+E71N/Z+zbm9kXFEyj8SlIiUeudueP6P2y7bpQZI2yVllzG19t3ePaYt2qMoI2/N3zWfutpXf3zWVHNc/R5dzsL/R6H9SK7WsUpYQjt6ba2LrkU923/LJ27hsrH1M9yZZMrqXXG/qie2fDfF3frJqbkSTE2Eo8/RJOm5O97KC27+3mforyR+IKP9+osRYbv7N0dXp/ttjYgEoHuvFBYm58EPa1iJRw5o+096q+v7W2NpLV/X+/ckjpVmvdtML+qYosXBtr2e9FtqRKy5FE+TP2u1pDfMa+zFnmTrLfDj17utKPgLOTuMJ3Rlut41ufX/rvmfuzJ6qdHddZqf1d7lVb17d3eASxMCnhHLL1+rb+YnYwSJs3kzcOfHPl5wbf5+/+BLjC92c/dOTbm51n5J7loQdb9mb/Lp4Dh/VzyBzbfBfO4NaUPSx7efB9/u5XgITv13/P6If+6bVLGzeTf95zoMVv3P1UqsKvUezfhcN3ANy7QWUPy15u8bZVufQw/q2sks7tpPgF7l7f7h3Tu3VTPqWr4SUfoJJbLuUBaLw+EuAXtXp3A1f4SmOzdjP7NUo79wZHEuuRx1OjocQjc5C5kOzvjZHsWdm7Sn+sWj8tEr7SLXD4exd+tH690+p780eFxmeJhxLOqKhsvy97Vvbu+FYc9SWg49/GvlYfwLg3l5d+Yh+jezqAqTY+xaZLPJRwxod440Zy/v5vrXxyfCuO+hQg4fvULzh22x+7kMd07b2OufWh260sJRx+MTs6Ejw+YbSNpiOUdDRFY8RcNtc7n5Ivfx5xuPVvuyzxUMLJ316yN2WP5rekhW8Bt5dFvlcX0fhXf+PUY7Pz3dem95nZiJZV61Lk7p3Vd5La7uKREs7iw1krH2dcNDCS7NdvTJ3iFsyiYn7bkfD9+pcanaSfzyWfzr1uSzxrq5Nt7bnFzBw8yqdmx4mT7Mfp6Dw22U+FzjVFPSuSfrHwSsK//n75xy1LCefgQ6mRhM9rtADJfrSN5iMkfM3RGTE3kv4ImIG3y5Z4KOEUcyXZF3PS2IqErzEqBefEg9byoYqWeCjh5FtKCx6IVsxJayvu0tEamQLzkicRrl9PXi3QtLVN5AFsiw+nvT/DHrcs7909zk/D2H0ie42nX44lUn+QK3z1Icqf4OpnT3x69qD57tS0mc5v3d4WgyUeSjjF9kJ3y2ytXzefW/zHC98vdgattAqQ8LVGpuS8pK4/M5v+uM3fi1uErF/ikbbchZMvJh+oknvsue0y3yqEFiT8EKJUYo43Xlh6ZfZgdrbEKa1rmkrp5iFjOu+2bumlFiwlnPlvrzxf6iQaqxYg4asOT7XJUeIZ7ZbO20R/wh63tfv0hv3v/7H/vTm6fRuPUMKJN+ok/EhjS4nn3sBmclv9Y8YkRwfet8/YNxft+6uRboSSy6KEUxIssOYk/MACVna6lHjslbwt4XSetHJzo/XSn9o29k+bX5Rw4o8+CT/+GJs2l3h2l3DyQt3WEg8lnLydEc9xEn48sRy7kraVeEaVcMYi2YNZy0o8lHDydkRcx0n4ccUzdzVtKPEUKeHkQbWhxEMJJ28XxHechB9fTHNXFHOJp0wJJw+qV+K5YFt181qGdZwSTljxqnO2JPw6NQPqK8YST/Zxe7eN/VPnS0o8yRu2x+t19uqvL0o4/uw1jEzC1xAFj3OIocST2l3c+XmLOOYunEmJs8s28Qf+QS1KOJPugvDPJ+GHH8OJVxByiSe13//Vu+XSfpDK9Su9uvNBrcBKPJRwXO+McPon4YcTK6czDbHE46KEk4ccWomHEk5eRNt1nITfrnjnrjaEEk8TJZw8qBBKPJRw8qLYvuMk/PbFPHfFmks8TZZw8qC0lngo4eRFrr3HSfjtjf3YlWss8fgo4YxFsge1lXgo4eRFrN3HSfjtjn/u6jWUeDSUcPKgNJR4KOHkRYnjJHz2QK6AzxJPus/eGfOLdooN3IWTC5HTIP0/O9dLtlHDd/FQwskJDIfvCpDw2QyFBHyUeLIj9t7344Wmp6ZRum6TvnxQa62ZKVHCacY5llFI+LFEsqF1NFHikUfXJyft/znY0KIcDJPZK/3kfQcd7+qSEo5b3xh7J+HHGFXHa3JZ4gmphJPH7KrEQwknT57jowRI+KNkeH+sgIsST4glnLFI9mDdJR5KOHniHB8nQMIfp8OxXIE6SjwxlHDyoOoo8VDCyVPmeJ4ACT9PiOO5ApOUeGIq4eRBVS3xUMLJk+V4UQESflEp2o0VqFLiibGEMxbJHixb4qGEkyfK8TICJPwyWrTNFShS4mlDCScPKrO3biZXxreihDPeh6PlBUj45c04I0dgXIkntR+g6vyC7WAmp5MWHE7tbZudt+1CBz6oRQmnBcH3tEQSvif42IcdVuJJF22COxH7ysutr/c1ipfsOTsf1KKEU86P1uUESPjlvGhdUkBKPDMHs+fsJ2aTxH5yltdeAXkAW/amyTYuJv9w8Dsrv723Be8gUI9Ap55u6AWB4QLz3155fu2A+Ux6wGwNb8G76R2ztXbbfIZkz15wLcAVvmth+u8JXP2jU4/NfCz98b6HsqOQfCRw+/3kvc13O5869FevSWGHFwJOBUj4TnnpfFDgxleWXpl9Ijs7+H4b/77+RvLq/FdWnm/j2lmzHwESvh/3Vo+6+sUTn549br47NWem2wjRXTNb6xfN5xZfuvD9Nq6fNfsTIOH7s2/1yG0t8VDCafW29754Er73ELR7Am0q8VDCafde17B6Er6GKLR8DlLiOXDCfC+5z0S5HynhtHyDK1p+lD9ginyZSkEBKfHMPpqen34gsx/Piue1dSVZXb/cOc1dOPHENOSVkPBDjl6Ec7/x1aVzs8eyp2NY2vqbyQ/nv7xyJoa1sIY4BPjgVRxxjGYVkiBvvZ78of30qTxjLciXzF3WQLIPMnxRT5or/KjDG+7iQi3xUMIJd8+1YeYk/DZEOeA1hlTioYQT8EZrydQp6bQk0KEuM4QSDyWcUHdX++bNFX77Yh7kinslnuPd16YXzKymBWxdM+vrF6dOcReOpqgwl1ECJPxRMryvUuDmXyz9ZP+j2WkNk9u4nJy//09XPqlhLswBgSIClHSKKNFGjYAk2LULnZd83sUjY8scSPZqtgUTKSjAFX5BKJrpEvjwT0780tyj5t+aLvFICWftsvnVw1+/8CNdIswGgXwBEn6+ES0UCzRZ4qGEo3gjMLVCApR0CjHRSKtAEyUeSjhao8+8ygpwhV9WjPYqBVyVeCjhqAw3k6ooQMKvCMdpOgXqLPFQwtEZY2ZVXYCSTnU7zlQo0Cvx/FfyjUnu4umVcGwf3IWjMMBMaSIBrvAn4uNkrQLyjP39j5hvlr2LR0o4G2+bz/P1g1ojy7wmESDhT6LHuaoF5NO5+x5MfzDzcPZEkYluvpO8cft/O8/wqdkiWrQJUYCEH2LUmHMpgetfPvm1mUfSPx71penyjVSbb3f+8uBXX/9SqY5pjEBgAiT8wALGdKsLXPuzpRc7+83Z3T2kG+bVhT9febl6r5yJAAIIIIAAAggggAACCCCAAAIIIIAAAggggAACCCCAAAIIIIAAAggggAACCCCAAAIIIIAAAggggAACCCCAAAIIIIAAAggggAACCCCAAAIIIIAAAggggAACCCCAAAIIIIAAAggggAACCCCAAAIIIIAAAggggAACCCCAAAIIIIAAAggggAACCCCAAAIIIIAAAggggAACCCCAAAIIIIAAAggggAACCCCAAAIIIIAAAggggAACCCCAAAIIIIAAAggggAACCCCAAAIIIIAAAggggAACCCCAAAIIIIAAAggggAACCCCAAAIIIIAAAggggAACCCCAAAIIIIAAAggggAACCCCAAAIIIIAAAggggAACCCCAAAIIIIAAAggggAACCCCAAAIIIIAAAggggAACCCCAAAIIIIAAAggggAACCCCAAAIIIIAAAggggAACCCCAAAIIIIAAAggggAACCCCAAAIIIIAAAggggAACCCCAAAIIIIAAAggggAACCCCAAAIIIIAAAggggAACCCCAAAIIIIAAAggggAACCCCAAAIIIIAAAggggAACCCCAAAIIIIAAAggggAACCCCAAAIIIIAAAggggAACCCCAAAIIIIAAAggggAACCCCAAAIIIIAAAggggAACCCCAAAIIIIAAAggggAACCCCAAAIIIIAAAggggAACCCCAAAIIIIAAAggggAACCCCAAAIIIIAAAggggAACCCCAAAIIIIAAAggggAACCCCAAAIIIIAAAggggAACCCCAAAIIIIAAAggggAACCCCAAAIIIIAAAggggAACCCCAAAIIIIAAAggggAACCCCAAAIIIIAAAggggAACCCCAAAIIIIAAAggggAACCCCAAAIIIIAAAggggAACCCCAAAIIIIAAAggggAACCCCAAAIIIIAAAggggAACCCCAAAIIIIAAAggggAACCCCAAAIIIIAAAggggIACgf8HbyKIVc4x4PoAAAAASUVORK5CYII=;" vertex="1" parent="1">
          <mxGeometry x="222.2" y="100" width="90" height="90" as="geometry" />
        </mxCell>
        <mxCell id="wmjr8Ue8o1Gtoz59wysQ-2" value="&lt;font style=&quot;color: rgb(0, 0, 0);&quot;&gt;Container&lt;br&gt;Registry&lt;/font&gt;" style="sketch=0;html=1;verticalAlign=top;labelPosition=center;verticalLabelPosition=bottom;align=center;spacingTop=-6;fontSize=11;fontStyle=1;fontColor=#999999;shape=image;aspect=fixed;imageAspect=0;image=data:image/svg+xml,PHN2ZyB4bWxucz0iaHR0cDovL3d3dy53My5vcmcvMjAwMC9zdmciIHhtbG5zOnY9Imh0dHBzOi8vdmVjdGEuaW8vbmFubyIgd2lkdGg9IjM3Ny4xNTkzMDIxNjAyNjMwNSIgaGVpZ2h0PSIzMzYuMTYyNDk5MDAzMzEwOCIgdmlld0JveD0iLTAuMDU4MDAwMDA1NzgxNjUwNTQgMC4xMTI5OTk5OTgwMzMwNDY3MiA5OS43OTAwMDA5MTU1MjczNCA4OC45NDMwMDA3OTM0NTcwMyI+JiN4YTs8c3R5bGUgdHlwZT0idGV4dC9jc3MiPiYjeGE7CS5zdDB7ZmlsbDojNjY5ZGY2O30mI3hhOwkuc3Qxe2ZpbGw6I2FlY2JmYTt9JiN4YTsJLnN0MntmaWxsOiM0Mjg1ZjQ7fSYjeGE7PC9zdHlsZT4mI3hhOwk8cGF0aCBjbGFzcz0ic3QwIiBkPSJNNTMuMjQzIDYyLjA5VjQ3LjA5NGwxMy4yMDEgOC40MTZ2MTUuMDM4em0tMzMuMDIxIDBWNDcuMDk0bDEzLjIwMSA4LjQxNnYxNS4wMzh6bTE2LjUxMS0zMi4yODVWMTQuODFsMTMuMjAxIDguNDE2djE1LjAzOHptNjIuOTk5IDMzLjk2VjI1LjQwM2wtOS41NjItMS44ODR2NDIuMTMxem0tOTkuNzg4IDBWMjUuNDAzbDkuNTYyLTEuODg0djQyLjEzMXoiLz4mI3hhOwk8cGF0aCBjbGFzcz0ic3QxIiBkPSJNNTMuMTg1IDQ3LjA5NGwxMy4yNTgtOC4yODcgMTMuMDE2IDguMjM0LTEzLjAxNiA4LjQ2OXptLTMzLjAyMSAwbDEzLjI1OC04LjI4NyAxMy4wMTYgOC4yMzQtMTMuMDE2IDguNDY5ek0zNi42NzUgMTQuODFsMTMuMjU4LTguMjg3IDEzLjAxNiA4LjIzNC0xMy4wMTYgOC40Njl6bTYzLjA1NiA0OC45NTZ2MTIuMjE3TDc3LjAxIDg5LjA1NVY3Ny43NTJ6bTAtMzguMzYzVjEzLjE4Nkw3Ny4wMS4xMTN2MTEuMzAzek0tLjA1OCA2My43NjZ2MTIuMjE3bDIyLjcyMSAxMy4wNzNWNzcuNzUyem0wLTM4LjM2M1YxMy4xODZMMjIuNjYzLjExM3YxMS4zMDN6Ii8+JiN4YTsJPHBhdGggY2xhc3M9InN0MiIgZD0iTTY2LjQ0NCA3MC41NDdWNTUuNTFsMTMuMDE2LTguNDY5djE1LjR6bS0zMy4wMjEgMFY1NS41MWwxMy4wMTYtOC40Njl2MTUuNHptMTYuNTExLTMyLjI4NVYyMy4yMjVsMTMuMDE2LTguNDY5djE1LjR6bTQ5Ljc5OCAyNS41MDNsLTkuNTYyIDUuODh2LTMuOTk2em0wLTM4LjM2M2wtOS41NjItNS44OHYzLjk5NnpNLS4wNTggNjMuNzY2bDkuNTYyIDUuODh2LTMuOTk2em0wLTM4LjM2M2w5LjU2Mi01Ljg4djMuOTk2eiIvPiYjeGE7PC9zdmc+;" vertex="1" parent="1">
          <mxGeometry x="448" y="125" width="40" height="40" as="geometry" />
        </mxCell>
        <mxCell id="wmjr8Ue8o1Gtoz59wysQ-4" value="" style="endArrow=classic;html=1;rounded=0;entryX=0;entryY=0.5;entryDx=0;entryDy=0;exitX=1;exitY=0.5;exitDx=0;exitDy=0;" edge="1" parent="1" source="wmjr8Ue8o1Gtoz59wysQ-1" target="wmjr8Ue8o1Gtoz59wysQ-2">
          <mxGeometry width="50" height="50" relative="1" as="geometry">
            <mxPoint x="358" y="190" as="sourcePoint" />
            <mxPoint x="478" y="290" as="targetPoint" />
          </mxGeometry>
        </mxCell>
        <mxCell id="wmjr8Ue8o1Gtoz59wysQ-5" value="push &amp;amp;&lt;div&gt;attach&lt;/div&gt;&lt;div&gt;attestations&lt;/div&gt;" style="edgeLabel;html=1;align=center;verticalAlign=middle;resizable=0;points=[];" vertex="1" connectable="0" parent="wmjr8Ue8o1Gtoz59wysQ-4">
          <mxGeometry x="-0.3926" relative="1" as="geometry">
            <mxPoint x="18" y="9" as="offset" />
          </mxGeometry>
        </mxCell>
        <mxCell id="wmjr8Ue8o1Gtoz59wysQ-8" value="OPA" style="shape=image;verticalLabelPosition=bottom;labelBackgroundColor=default;verticalAlign=top;aspect=fixed;imageAspect=0;image=data:image/png,iVBORw0KGgoAAAANSUhEUgAABAAAAAQACAYAAAB/HSuDAAAABHNCSVQICAgIfAhkiAAAIABJREFUeF7s3Ql8HVXd//GZe5N0LxTaAiKCoogoCFJRoTRNF4t9BLenxQdFsYUA/nHDBZUtruACtGVrWnYeFFL1UdHY0qZNF8pWLJZSNkX2pS10X5Lc5f+dNmApucldZjkz53N95YW9d+ac3+99Jrlzzpw54zi8EEAAAQQQQAABBBBAAAEEEEAAAQQQQAABBBBAAAEEEEAAAQQQQAABBBBAAAEEEEAAAQQQQAABBBBAAAEEEEAAAQQQQAABBBBAAAEEEEAAAQQQQAABBBBAAAEEEEAAAQQQQAABBBBAAAEEEEAAAQQQQAABBBBAAAEEEEAAAQQQQAABBBBAAAEEEEAAAQQQQAABBBBAAAEEEEAAAQQQQAABBBBAAAEEEEAAAQQQQAABBBBAAAEEEEAAAQQQQAABBBBAAAEEEEAAAQQQQAABBBBAAAEEEEAAAQQQQAABBBBAAAEEEEAAAQQQQAABBBBAAAEEEEAAAQQQQAABBBBAAAEEEEAAAQQQQAABBBBAAAEEEEAAAQQQQAABBBBAAAEEEEAAAQQQQAABBBBAAAEEEEAAAQQQQAABBBBAAAEEEEAAAQQQQAABBBBAAAEEEEAAAQQQQAABBBBAAAEEEEAAAQQQQAABBBBAAAEEEEAAAQQQQAABBBBAAAEEEEAAAQQQQAABBBBAAAEEEEAAAQQQQAABBBBAAAEEEEAAAQQQQAABBBBAAAEECgvMmzfvkMKf8gkCCCCAAAIIIBCtAOcq0fpTOwLFCqSK3ZDtEEAgGoHW1tYzqqqqaqOpnVoRQAABBBBAAIGeBVKp1MgFCxac3vOWbIEAAlEKMAAQpT51I9CDwPz580/K5/PX6OeeHjblYwQQQAABBBBAIDKBdDrtnatM17nL5yILgooRQKBHAQYAeiRiAwSiEWhpaRnhuu4d+tm6Zs2aR6OJgloRQAABBBBAAIGeBXT1/xFttVnnLf+r2YvH97wHWyCAQBQCbhSVUicCCHQvoNHz9+sLdIm22lM/8+rq6sZ2vwefIoAAAggggAAC0QpoEGCuIhijn3XZbHb4mDFjVkUbEbUjgMDuAswA2F2EfyMQsYC+PAer8/8nheF1/h39/6URh0T1CCCAAAIIIIBAjwK73LI4SLcE/FULA+7T405sgAACoQowABAqN5Uh0L2AOv+9tcWf9XPw61ty/3/3ZnyKAAIIIIAAAmYIaCHAXdcsOkiDAHfq1deM6IgCAQQ8AQYAOA4QMERAHX1d7HevVzgf2yWkfFtb2/2GhEgYCCCAAAIIIIBAQQHvooV+crts8OH+/fvf5J3jFNyJDxBAIFQBBgBC5aYyBAoL6Or/z/QFecpuWzx2wgknvFZ4Lz5BAAEEEEAAAQTMENCaRet1MeOJ3aKZoHOcH5kRIVEggAADABwDCBggoC/G0/SF+YPdQ9F7PP5vdxT+jQACCCCAAALGCnR166LOZy7QAsdfMjZoAkPAIgEGACxqbFI1U6DzUTnTu4quqy/RrrbjPQQQQAABBBBAwASB3dYBeD0k7zbH63TOU2dCjMSAgM0CDADY3PrkHrlAS0vLwerk/0GB9OoqGAYAulLhPQQQQAABBBAwVaCbc5dqxfw7PRngEFNjJy4EbBBgAMCGViZHIwVmz569l0bJZyu4wQUC3LBo0aJHC3zG2wgggAACCCCAgHECCxcuXKWgNnQVmAYH9qqqqrpz8eLFg7r6nPcQQCB4AVbkDN6YGhB4i4Du+a/Sm17nf/RbPux8Q1Pl7ho5cuS4Qp/zPgIIIIAAAgggYKKAznPuUlxju4ltrj4br0UDM91sw0cIIBCAADMAAkClSASKEJiibQp2/r39u5lCV0TxbIIAAggggAACCEQjUMQixt7gwK+jiY5aEbBbgAEAu9uf7CMQ0Cq4k1Tt/+upagYAehLicwQQQAABBBAwUaDIc5hvaKbAmSbGT0wIJFmAAYAkty65GSegL7rhuu//2iICy1dXV99fxHZsggACCCCAAAIImCZwrwYBckUEdaXOjUYWsR2bIICATwIMAPgESTEI9CSgL7iDtM0f9IVY09O2+nzV8ccfv66I7dgEAQQQQAABBBAwSkD39q/XbQCPFxHUjicDeE9FKmJbNkEAAR8EGADwAZEiEOhJYMmSJQO0zZ/1M6SnbTs/v6fI7dgMAQQQQAABBBAwTqCIdQBej3nvdDr95+bm5oHGJUFACCRQgAGABDYqKZkl0NDQkMpkMv+rqA4vNrIi750rtji2QwABBBBAAAEEQhUo5VxG2x7Wp0+fm71zplCDpDIELBTgl8zCRiflcAVqa2t/ri+2k0qpVSPhzAAoBYxtEUAAAQQQQMAogVIGADoD/7TOmX5sVBIEg0ACBRgASGCjkpI5Arrv/4uK5rwSI1qv/Yq5b67EYtkcAQQQQAABBBAIR0DrAKxSTaWuZ/RDPS3plHAipBYE7BRgAMDOdifrEAT0BXa07n9rLKOqezUFrpiVc8soml0QQAABBBBAAIHgBXQOlNfPAyXWpF3c67Uo4DEl7sfmCCBQpAADAEVCsRkCpQjoi2t/fYHdqelvfUvZr3Pbe8vYh10QQAABBBBAAAGjBMq4DcCLv7cemfyHRYsW7WdUMgSDQEIEGABISEOShjkCWsW2l764fq+Iyvri0sDBUnOyIRIEEEAAAQQQQKA8gTIHALzK9s9ms7/3zqnKq5m9EECgkAADAIVkeB+BMgW0iu1V2vUj5eyuL8pcR0fH/eXsyz4IIIAAAggggIBJArqocZ93blNmTB/TOVU5t1KWWR27IWCHAAMAdrQzWYYkoMX7zlFVp5dbnb4oV40dO3ZDufuzHwIIIIAAAgggYIqAFgJcr1mRj1UQz5d1bnVmBfuzKwII7CbAAACHBAI+Cei+/2PVgb+skuIqmCpXSbXsiwACCCCAAAIIBCLgw7nNlTrHGhFIcBSKgIUCDABY2Oik7L+At1CNRrh/py+5mkpKVxn3VLI/+yKAAAIIIIAAAoYJVHpuU63zoybNBHi7YXkRDgKxFGAAIJbNRtAmCegLqXcul/ujYipr0b9dc/FhlNwkGmJBAAEEEEAAAcsFtJhfpQMAnuA++vkdiwJafjCRvi8CDAD4wkghNgto2v/V6rj78bza9QsXLnzCZktyRwABBBBAAIFkCYwePfpRZbTOh6w+0rdv3xk+lEMRCFgtwACA1c1P8pUKzJ8//+vq/E+qtJzO/e9paGgod6Vcn0KgGAQQQAABBBBAwD8BXSjJqzRfnnCkc64v6dzrq/5FR0kI2CfAAIB9bU7GPglo6v9w3ZP2K5+Kc/QF6ccUOb/CoRwEEEAAAQQQQMAvAd/OcXS+NEWDALV+BUY5CNgmwACAbS1Ovr4IzJ079x36Avp9pYv+7RoM9//70jQUggACCCCAAAKGCWitJN8GAJRatc7B7tBtkwcYlibhIBALAQYAYtFMBGmSgLfoX1VVlbfi/1C/4lJZuUwm84Bf5VEOAggggAACCCBgikBbW9u93rmOj/Hso0GFPy1durSPj2VSFAJWCDAAYEUzk6SfAvoCu0blfdjPMnUrwcqxY8du8LNMykIAAQQQQAABBEwQGD9+/EZdtfcWA/TzddT27dsb/SyQshCwQYABABtamRx9E2htbf2WvsC+4luBnQUx/d9vUcpDAAEEEEAAAcME/LwNYEdqOic7VedmXzMsT8JBwGgBBgCMbh6CM0mgpaVllDrqvwwopnsDKpdiEUAAAQQQQACByAWCutihci9jUcDIm5cAYiTAAECMGotQoxPwFprRNP3bFUFVEFFks9mlQZRLmQgggAACCCCAgAkC6XTa9xkAnXlV6xytSWs0vd2EPIkBAdMFGAAwvYWIL3KBZcuWVWuhmd8qkCEBBfPq6NGjnwyobIpFAAEEEEAAAQQiFxgxYsRjmrL/WhCBdC7MPKupqakmiPIpE4EkCTAAkKTWJJdABDZt2jRNBR8XSOE7C71XX4j5AMunaAQQQAABBBBAIFIB71xHr/sCDOKjQ4YMuSzA8ikagUQIMACQiGYkiaAENJ3sCyr7rKDK7yw3qClxAYdN8QgggAACCCCAQPECGgQI+pznHJ27nVZ8RGyJgH0CDADY1+ZkXKTAvHnzjtAX1YwiNy97M91eEPSXYdmxsSMCCCCAAAIIIOCXQFALAe4W37VauPlDfsVMOQgkTYABgKS1KPn4IrB48eJBWqzmD/qi6utLgYULyba1tS0r/DGfIIAAAggggAACyRCorq72bgHIBpxNby0K+HtdyNk74HooHoFYCjAAEMtmI+ggBRoaGlJalf9/VcfBQdbTWfbK8ePHbwyhHqpAAAEEEEAAAQQiFRg+fPgmBbAqhCAO0oWcm7xzuhDqogoEYiXAL0WsmotgwxCora29SFf+x4dRl+pg+n9I0FSDAAIIIIAAAtELhLAOwOtJflLndD+IPmMiQMAsAQYAzGoPoolYoLW1daxCuCCsMEK6Fy6sdKgHAQQQQAABBBDoViDMcx/V9WMtCnhCtwHxIQKWCTAAYFmDk25hAS0Yc6C+KH6jLdKFt/L3E01PYwaAv6SUhgACCCCAAAIGC4Q5AKDZBin93LZw4cJ3GkxCaAiEKuCGWhuVIWCogEaHeyu0Jfo5OsQQXx05cuQQ77m4IdZJVQgggAACCCCAQGQCGgBwNeNytQIYHGIQD/Xq1etYvbaFWCdVIWCkADMAjGwWggpbQJ3wq1VnmJ1/L8V76PyH3dLUhwACCCCAAAJRCnjnPvq5P+QYjty+ffvUkOukOgSMFGAAwMhmIagwBXT1/0yNRk8Ks06vrjCnwIWdG/UhgAACCCCAAAKFBKI4B9Kgwxk655tcKCbeR8AWAQYAbGlp8uxSQPf9H6MPIhkR1jNquf+/y1bhTQQQQAABBBBIskAUAwCdnldpEGBYkm3JDYGeBBgA6EmIzxMrMHv27L3UCb9dCfaKIMmsvvweiKBeqkQAAQQQQAABBCIVqKmp8W4ByEYQRG/NBPi9BgHCXH8ggjSpEoHCAgwAFLbhkwQLNDQ0pLQYjLfif1Srwj5cV1e3OcHEpIYAAggggAACCHQpMHz48E3qiD/S5YcBv6kLMO9QFb9tamoK7alPAadE8QiUJMAAQElcbJwUAa2+/xPlMi6qfCKc+hZVytSLAAIIIIAAAgi8IRDxudCYoUOHXkRzIGCjAAMANra65TnPnz9/fC6X+36UDBr1Xhpl/dSNAAIIIIAAAghELBDpWkg6F7xAtwKcELEB1SMQugADAKGTU2GUAgsXLjxAne+b9RPpsa8vnUi/9KJsA+pGAAEEEEAAAQSy2Wyk50LeuaB+btOC0AfSGgjYJBBpJ8gmaHKNXmDZsmXV6nj/VpFEvfDL2lGjRj0VvQgRIIAAAggggAAC0QiMHj36SdW8Nprad9aq2xB2LAit9QBqooyDuhEIU4ABgDC1qStSgY0bN/5CARwXaRCq3Jv+r5981HFQPwIIIIAAAgggEJVA57nQfVHVv0u9Hx08ePBPDYiDEBAIRYABgFCYqSRqgdbW1hP1RfPNqOPw6o940RsTCIgBAQQQQAABBBDwBCK9DeD1JtA54nd0rvgZmgQBGwQYALChlS3PsfPerpvE4JpAwQCACa1ADAgggAACCCAQtYBBayK5Oj+7QWtFRfV46KibgvotEmAAwKLGtjHV5ubmXrq36/fePV6G5J/RKPODhsRCGAgggAACCCCAQGQCmUzGuwUgE1kAb654Tw1I3OGdOxoSD2EgEIgAAwCBsFKoKQK9e/e+QrEcbUo86vyvqKur22xKPMSBAAIIIIAAAghEJTBu3LgtqvuRqOrvot4P9+3b95ddvM9bCCRGgAGAxDQliewuMH/+/InqcJ+9+/tR/pvp/1HqUzcCCCCAAAIIGChgxDoAr7voXO3rOoc8xUAnQkLAFwEGAHxhpBDTBHQP13s09X+maXEpHqO+5Az0ISQEEEAAAQQQsEjAxIsjuoDUuGDBgkMtagZStUiAAQCLGtuWVPUHu7fu4WrSF8pA03LOZrMMAJjWKMSDAAIIIIAAApEJpNNpE8+N+gukaenSpX0ig6FiBAISYAAgIFiKjU5AHf9rVPuR0UXQdc0aTV49ZsyYp7r+lHcRQAABBBBAAAH7BEaMGPFPZb3GwMwPb29vn2JgXISEQEUCDABUxMfOpgl492ypo/0V0+Ly4jFxipuJTsSEAAIIIIAAAvYI6Lwtr2y9pwEY99K5W73OLb9kXGAEhEAFAgwAVIDHrmYJaOr/Bwy97/91KBOnuJnViESDAAIIIIAAAtYJmHyRRAMU18ybN+8w6xqFhBMrwABAYpvWrsTmzJnTTxl79/33NTVzrUvAAICpjUNcCCCAAAIIIBCZgC7gmHyO1E/rFPxhyZIlAyIDomIEfBRgAMBHTIqKTqC6uvpa1f6+6CLoseaOrVu3LutxKzZAAAEEEEAAAQQsE2hra7tfKWcMTvu9Wg+g0eD4CA2BogUYACiaig1NFdDU/7M0PetUU+PrjGvFiSeeuNXwGAkPAQQQQAABBBAIXWDcuHFbVOnK0CsuoUKda/6PzjlPL2EXNkXASAEGAIxsFoIqVkD3ZB2hbS8vdvsItzN5aluELFSNAAIIIIAAAgjEZrHkKxcuXHgU7YVAnAUYAIhz61ke+9y5c/fw7skSQxye0Xqv5c1F+ggggAACCCCAQEEBw9cBeD3u3lrT6Y7m5uaBBRPhAwQMF2AAwPAGIrzCArrv/xp9enDhLYz65G6joiEYBBBAAAEEEEDAIAGTnwSwG9N7+vbtO9MgOkJBoCQBt6St2RgBQwQ678GKyx/fV+rq6vY1hI4wEEAAAQQQQAABIwV0fveyAtvHyODeGtRXdH5301vf5h0EzBZgBoDZ7UN0XQjo3qv36O0ruvjI1LeWmhoYcSGAAAIIIIAAAgYJeE8DiMvrKg1YHBqXYIkTgdcFGADgWIiVgP7QevdeNSno/nEJXKvGsgBgXBqLOBFAAAEEEEAgMoGYnTP1E1TT0qVL47AWVWRtSsXmCTAAYF6bEFE3Aro/zFvx/8huNjHuoxjd02acHQEhgAACCCCAgD0CMTxnOnz79u2/sKeFyDQJAgwAJKEVLclh/vz5n9XI8NkxS7dj8+bNf49ZzISLAAIIIIAAAgiELtDe3v6AKs2EXnEFFerc9BzNUP10BUWwKwKhCrAIYKjcVFaugO77P0BT/5dr/73LLSOi/R7QAjHHRFQ31SKAAAIIIIAAArESUGfau3ByVKyCdpx1Ok89avTo0c/ELG7CtVCAGQAWNnrcUtYXQZX+qP5Wccet8+/E7F62uB0axIsAAggggAACCROI6bnToFQqdWtTU1M6Yc1BOgkUYAAggY2awJQalNNxccwrhveyxZGZmBFAAAEEEEAgIQIxPnc6fsiQIRcmpBlII8ECDAAkuHGTkJru+69VHt+Pay6aucATAOLaeMSNAAIIIIAAAqELxPncSYMXF7a0tIwKHY0KEShBgDUASsBi03AFFi1aNERfAg/pj+nbwq3Zt9pe0v3/cY3dNwQKQgABBBBAAAEEShHQ7Z8vaft9S9nHoG1fUCxH6hxwrUExEQoCbwgwA4CDwUgBdfrdbDZ7fYw7/9z/b+SRRVAIIIAAAgggEAOB+2IQY6EQ99c6Bjd757KFNuB9BKIUYAAgSn3qLijQ2tp6rj48seAGMfggxvewxUCXEBFAAAEEEEAgwQKxvoVS54DjNYvhawluH1KLsQADADFuvKSGrvv+j9bI6c/jnh8DAHFvQeJHAAEEEEAAgSgE4rwOwOteOpf9pdYD+FAUftSJQHcCDAB0p8NnoQtotLS//mDeps5zTeiV+1thR+/evb3n2PJCAAEEEEAAAQQQKEGgT58+D2jzjhJ2MXHTXno04B1LliwZYGJwxGSvAAMA9ra9qZlfq8Dea2pwxcalQYzlxx577LZit2c7BBBAAAEEEEAAgZ0CnedQKxLg8e6Ojo4rE5AHKSRIgAGABDVm3FPRff9fUQ5fjHseXvxM/09CK5IDAggggAACCEQoEOt1AHZx+7LOcU+N0JGqEXiTAAMAHBBGCGjq/7vVaZ5qRDD+BJGULy1/NCgFAQQQQAABBBAoQSBJF1OUyzVa4yr2M1xLaD42NViAAQCDG8eW0Jqbm3sp1yb9JOYeKd3ztdSW9iNPBBBAAAEEEEDAb4F0Op2kiyn9dW74m85zXr+pKA+BkgQYACiJi42DENBCL79WuUcFUXYUZer+/xdra2ufi6Ju6kQAAQQQQAABBJIgoHOpfyuPl5OQi5eDZgF8SAtEX5KUfMgjvgIMAMS37RIRuaZDnaRE/l8ikulMIklT1pLULuSCAAIIIIAAArETuDd2EXcTsC4SfVPnvuO72YSPEAhcgAGAwImpoJDAokWLhugP4Qx97hbaJo7vawCA6f9xbDhiRgABBBBAAAGjBBJ4UcXVrQA3zps3bx+joAnGKgEGAKxqbnOS1R90N5vN3qCIEvcHUH/Yk3TPmjkHDZEggAACCCCAgFUCSTyn0jnwUK1vcKN3LmxVY5KsMQIMABjTFHYFolX/z1bGn0xa1prR0K4/6MuTlhf5IIAAAggggAACYQvU1NQsU50dYdcbQn2f0LnwGSHUQxUIvEWAAYC3kPBG0AL6g3eoRnR/FXQ9UZTvdf7r6uq2R1E3dSKAAAIIIIAAAkkSOPbYY7cpnxVJyun1XHTR6HIeDZjEljU/JwYAzG+jREWozn+V/uDdrI5y30Ql9p9kErVYTULbiLQQQAABBBBAID4CST236qdz4tuWLVtWHZ+mINIkCDAAkIRWjFEO6vj/WD/HxCjkUkNN6pdUqQ5sjwACCCCAAAII+CGQ5HOrozdu3HihH0iUgUCxAgwAFCvFdhULaJrTcRrp/F7FBZldQJK/pMyWJzoEEEAAAQQQSKJA0s+tztc5cm0SG46czBRg9Ukz2yVxUc2dO3ePqqqqh5TYQYlL7j8JvaL7//dNcH6khgACCCCAAAIIhC7Q2tr6ird6fugVh1fhv7dt23bk+PHjN4ZXJTXZKsAMAFtbPuS81fm/SlUeFHK1YVe3NOwKqQ8BBBBAAAEEEEi6gDr/9yc8x3f26dNnasJzJD1DBBgAMKQhkhyGpjV9Tvl9Mck5duZ2nwU5kiICCCCAAAIIIBC2QNJvA/A8T9Ni2SeHDUt99gkwAGBfm4eacUtLy/565N+MUCuNqLJcLndPRFVTLQIIIIAAAgggkFgBzQCwYQDAa7/pum32HYltSBIzQoABACOaIZlBNDQ0pNLp9C36o71XMjN8U1YZvR60IE9SRAABBBBAAAEEQhWoqanxbgHIhlppNJXtqdtmr/fOoaOpnlptEODgsqGVI8qxtrb2XHX+R0VUfajV6ukGK8aNG7cl1EqpDAEEEEAAAQQQsEBg+PDhm3Su9YgFqXopjhk5cuQ3LMmVNCMQYAAgAnQbqtR9/+9Xnj+xIdfOHG2ZmmZRk5IqAggggAACCBgkYM25li6gXaJz6Q8aZE8oCRJgACBBjWlKKs3Nzb103/9vFE9vU2IKIQ5rvpRCsKQKBBBAAAEEEEDgTQJaa8mmxZZ3nEsvXbq0D4cBAn4LMADgtyjlOXqMyS80cnmETRSalsYAgE0NTq4IIIAAAgggEKqA1pWyarFlnUsf1t7e/tNQkanMCgHXiixJMjSB1tbWsfqDNUcV2nRsvap7tYZoECAfGjQVIYAAAggggAACFgno/NLVeearSnmQTWnr/PK/dJ75N4tyJtWABZgBEDCwTcUvXrx4kP44X6+cber8e018L51/m450ckUAAQQQQACBsAU6z7W8pwHY9HJ1bj1z3rx5e9uUNLkGK8AAQLC+VpWezWanK+EDrEp6Z7JM/7ew0UkZAQQQQAABBEIXsPGca3/d/jAzdGkqTKwAAwCJbdpwE9OUrK9ohHJiuLUaU5uNX0bG4BMIAggggAACCFgjYOs512cWLFjwZWtamUQDFWAAIFBeOwpfuHDhO5XpFDuyfXOWGvTIZTKZB2zMnZwRQAABBBBAAIGQBe71zr1CrtOU6q7SOfd7TAmGOOIrwABAfNvOiMibmprSeizLrfpjPNCIgEIOQvejrRo7duyGkKulOgQQQAABBBBAwDqBurq69Tr3esK6xHcm3F/n3Dd6596W5k/aPgkwAOATpK3FDBky5DvK/Thb89fAh1WPpLG1nckbAQQQQAABBIwRsPU2AK8Bjhs6dOi5xrQEgcRSgAGAWDabGUFrRdLDFEmDGdFEFoXNX0KRoVMxAggggAACCFgrYPW5ly4+/US3AhxubeuTeMUCDABUTGhnAVqIpEorkt6s7HvbKbAza03FsvpLyOa2J3cEEEAAAQQQCF9AHWDbz7166fzz5mXLllWHr0+NSRBgACAJrRhBDvrje5GqHRZB1SZVuWHJkiWPmRQQsSCAAAIIIIAAAkkWWLt27UqtA7AxyTkWkdtRmzZtOr+I7dgEgbcIuG95hzcQ6EGgpaXlQ6lUyht9tXrkUV8+d40cOXJcD1x8jAACCCCAAAIIIOCjgGaizldxdT4WGceiMjoXPVbnojyNKo6tF2HMzACIED+OVTc3N/dS59+b+m91599rOxYAjOMRTMwIIIAAAgggEHcBdXxZhNlxqnQuerMGQ6y+HTfux3IU8TMAEIV6jOvs27fvzxX+B2Kcgm+h68vnPt8KoyAEEEAAAQQQQACBogR0DzznYDul3qfz0R8VhcZGCHQKMADAoVC0wPz584/TSOM3it4h2RvmM5nM/clOkewQQAABBBBAAAHzBDo6OmxfCPCNRtFgyHd0e+4I81qJiEwVYA0AU1vGsLg0vai/Rhj/oQGAdxkWWiThyOIJ3XP13kgqp1IEEEAAAQQQQMBygdbW1n9xXvrGQfDP9vb2I8eNG7fF8sOC9IsQYAZAEUhsskPg1/yR/c/1oUKRAAAgAElEQVSRwNQzfisQQAABBBBAAIHoBHReykzM//C/u6am5hfRtQY1x0mAAYA4tVZEsWrqv7fSfX1E1RtZrRZCZMVVI1uGoBBAAAEEEEDABgHNxmQA4M0N/VWds4+2oe3JsTIBBgAq80v83lr1f6A6uzOUKLeL7NLamgHAl07ij34SRAABBBBAAAFTBTQDgIsxb24cjYm41y9ZsmSAqW1GXGYIMABgRjsYG0WfPn0u0x/YdxgbYDSBdXjrIURTNbUigAACCCCAAAIIbN68+e9SyCDxJoEDtRYAtwJwUHQrwABAtzx2f9g5jWiy3QpdZv+Purq67V1+wpsIIIAAAggggAACgQuceOKJW1XJI4FXFLMKdJHqLD0V4OMxC5twQxRgACBE7DhV1Tn1/wbFzNT/3RqOe87idCQTKwIIIIAAAggkVYCFALtsWVe37zZyK0CXNrwpAQYAOAy6FNDU/18y9b9LGod7zrp24V0EEEAAAQQQQCBMARZlLqh9UEdHxyUFP+UDqwUYALC6+btOXtOGRukTVv3vmocBgAIuvI0AAggggAACCIQpwKLM3Wp/tbW1dWy3W/ChlQIMAFjZ7IWTnjNnTj9W/S/so082rV279rFut+BDBBBAAAEEEEAAgcAFdE62UpVsCbyieFbgatbqjAULFvSPZ/hEHZQAAwBByca03Orq6l8p9INjGn4YYT84ceLEbBgVUQcCCCCAAAIIIIBAYYHOc7Llhbew/pODtHbVz6xXAOBNAgwAcEC8IaARwpHeyqGQFBZgAcDCNnyCAAIIIIAAAgiELcC5Wffiuk3iHD3Zq7b7rfjUJgEGAGxq7W5yvfPOO/vq45n6YdX/bpxYALAbHD5CAAEEEEAAAQRCFuDcrHtwDZCk9HMjtwJ072TTpwwA2NTa3eTav3//X+jjd3ezCR9JIJPJ3A8EAggggAACCCCAgBkCusL9gBmRGB3FOxXdT4yOkOBCE+Bqb2jU5lakEcHhGj1d6I0Qmhtl9JHJZ/XIkSP3iT4SIkAAAQQQQAABBBDwBHQO62q1+zX6v3sjUlhATjn9HD969OilhbfiExsE6PDZ0Mrd5Njc3NxLHdtGOv/dIHV+pD+a9/W8FVsggAACCCCAAAIIhCWgc9i86mIWQA/g3rm+Xjfowl/vHjbl44QLMACQ8AbuKb2+fftepI7tYT1tx+daHMF1+XLhQEAAAQQQQAABBAwT0Dkat2gW1ybvldUPituUrZIqwABAUlu2iLzmzZt3hDr/3y1iUzaRAIvMcBgggAACCCCAAALmCXCOVnybyOqHmgVwZPF7sGXSBBgASFqLFplPU1NTWq/rtXl1kbvYvlk+m80yA8D2o4D8EUAAAQQQQMA4AZ3Tcptm8a1S5d3+6/UFit+FLZMkwABAklqzhFyGDBnyLW0+rIRdbN/0qTFjxrxqOwL5I4AAAggggAACpgmMGDHCWwTwGdPiMjUezQI4Rn2Br5kaH3EFK8AAQLC+Rpbe0tJysEb+fmRkcOYGtczc0IgMAQQQQAABBBCwXoCZmqUdAj9duHCh93hAXpYJMABgWYNrxM9bAvRa/bevZalXmu7ySgtgfwQQQAABBBBAAIHABB4KrORkFtxP/YHrvL5BMtMjq0ICDAAUkkno+3pO6iSlNjah6QWZ1j+CLJyyEUAAAQQQQAABBCoS4FytRD51/kepb/ClEndj85gLMAAQ8wYsJXyt+Lmvtv9VKfuw7RsCjCpzMCCAAAIIIIAAAuYKcK5WRtvotuDL9WSwfcrYlV1iKsAAQEwbrpyw9Qt+tfYbVM6+Nu8jt9V1dXUv22xA7ggggAACCCCAgMkCOld7XvGtNTlGE2PTLIC9qqqqppkYGzEFI8AAQDCuxpWq6T2f0S/4Z40LLB4BMaIcj3YiSgQQQAABBBCwWEAXbVZYnH7ZqauPMHH+/PknlV0AO8ZKgAGAWDVXecEuWbJkgH6xryxvb/aSHQsAchgggAACCCCAAALmC3DRpsw20uDJVV6foczd2S1GAgwAxKixyg21vb39Z9p3/3L3t30//UFkURnbDwLyRwABBBBAAAHjBXK5HOds5bfSAeoz8Jjw8v1isycDALFpqvIC1cJ/w9SB/Wp5e7OXJyA/RpM5FBBAAAEEEEAAAcMFNADAOVsFbaRz3q/rVoCjKyiCXWMgwABADBqp3BCbmprS+kVu1P7pcstgP2ebvkyexAEBBBBAAAEEEEDAbIE999zzUUXYZnaURke3o+/g9SGMjpLgKhJgAKAiPrN3Hjx48Dd0//qHzI7S7Oj0R/BhrSqbMTtKokMAAQQQQAABBBAYNmxYhxS8QQBe5QscrT7E/yt/d/Y0XYABANNbqMz4Fi5ceIA6r9zHU6bfLrsxlaxyQ0pAAAEEEEAAAQTCEuDcrUJp9SF+qtuI315hMexuqAADAIY2TKVhadq6t+p//0rLsX1/FpOx/QggfwQQQAABBBCImQALAVbeYAM0CDC18mIowUQBBgBMbJUKY9KI3adVxKcqLIbddwrwJcKRgAACCCCAAAIIxEeAGQA+tJVuI/6sFgQ8yYeiKMIwAQYADGuQSsPpfH7ntErLYf8dAvmampoVWCCAAAIIIIAAAgjEQ6CtrY1zN5+aKpVKXakLi8wo9snTlGIYADClJXyKo6Oj48cq6gCfirO9mOeHDx++yXYE8kcAAQQQQAABBOIicMIJJ7ymWF+JS7wmx6lZAO9QfA0mx0hspQswAFC6mbF7zJs37wgFd46xAcYvsCfiFzIRI4AAAggggAAC1gtwDuffIfANLS5+lH/FUVLUAgwARN0CPtXf0NCQSqfT16u4Kp+KpBjHeRIEBBBAAAEEEEAAgdgJMADgX5NVaSbAdK+v4V+RlBSlAA0Zpb6PdY8cOfJMFTfMxyKtL0qrn/LlYf1RAAACCCCAAAIIxFCAizg+NpoGAI4ZMWLE6T4WSVERCjAAECG+X1Vr6v/e+sX07v3n5aOAHgHIAICPnhSFAAIIIIAAAgiEJPB4SPVYU40WBLxECwIOtibhBCfKAEACGldT/3+hNPiF9Lkt5coAgM+mFIcAAggggAACCAQtkM1mOYfzGVkXG/fS7Nif+VwsxUUgwABABOh+Vtna2vph/UJ+xc8yKWuHQEe/fv2exgIBBBBAAAEEEEAgXgKvvfbaPxVxNl5Rmx+tZseerlkAHzU/UiLsToABgO50DP+sczGOqzQaRzv631ZPDRs2rMP/YikRAQQQQAABBBBAIEiBiRMntuv8+Jkg67Cx7M4+x1VNTU1pG/NPSs50HGPckrW1tWd7i3LEOAWTQ2fqmMmtQ2wIIIAAAggggEA3AjpH5lyuG58KPjp6yJAhLAhYAWDUuzIAEHULlFm/t/Cfdv1RmbuzW88CfGn0bMQWCCCAAAIIIICAkQI8zSm4ZpHtzxctWjQkuBooOUgBBgCC1A2wbK3E+SsV7w0C8ApAgFHjAFApEgEEEEAAAQQQCElA53I8CjAga29BwEwmw4KAAfkGXSwDAEELB1B+S0vLsRp5Oy2AoimyU0ADLHxpcDQggAACCCCAAAIxFdC5Mo8CDLbtJs+fP/8jwVZB6UEIMAAQhGqAZXqLbqhzepWqcAOsxvqi9fiYp6xHAAABBBBAAAEEEIipgK5S/zumoccibG9BQL2uYUHAWDTXm4JkACBmbTZ06NCvKuSjYhZ23MLN6g/aC3ELmngRQAABBBBAAAEEdgqsWbPmWQ0C5PAITkC+H1LfpD64Gig5CAGuIgehGlCZ3mIbujLtLU63Z0BVUKwENKL57MiRIw8EAwEEEEAAAQQQQCC+Aq2trS+ok/q2+GZgfuQ6b35N6wEcMmbMmFfNj5YIPQFmAMToOFDn/ycKl85/wG2mLwqeGxuwMcUjgAACCCCAAAJBC+ic7tmg67C9fG9BwHQ6zZPJYnQgMAAQk8bSIhsfVKg8czOc9uLLIhxnakEAAQQQQAABBAIT8GZ1BlY4Be8qcJYeUX4EJPEQYAAgHu3kTUv/tUJNxyTcWIcpa2YAxLoFCR4BBBBAAAEEEHCcXC7HOV04B0K6qqrqinCqopZKBRgAqFQwhP0XLFjw36pmTAhVUYUEmC7GYYAAAggggAACCMRfgBkA4bWhzp9Hqc/y6fBqpKZyBRgAKFcupP2am5t7qapLQqqOanYKMFrMkYAAAggggAACCMRcgFmd4TagvC/r7LuEWzG1lSTAAEBJXOFv3KdPn++o1neHX7O9NeoRgAwA2Nv8ZI4AAggggAACCRHQ6vSc04XYlpoF8C71Xb4ZYpVUVYYAAwBloIW1ixbT2Ecjad8Lqz7q2Smg+8WewwIBBBBAAAEEEEAg3gLt7e1PxzuDWEZ/vh5dvl8sI7ckaAYADG5oLabxS42kDTQ4xCSGtraurm5zEhMjJwQQQAABBBBAwCaB8ePHb1S+G2zK2YBcB+hi2k8NiIMQCggwAFAAJuq39di/o/XL88Wo47CtfhaLsa3FyRcBBBBAAAEEEi7AowBDbmD1YU5rbW39cMjVUl2RAgwAFAkV5ma66q9+qHulfmifMOFVl+y5Vyxkc6pDAAEEEEAAAQQCFHg6wLIpugsBrw+jc+orvD5NFx/zVsQCdDAjboCuqteI2Sl6/2NdfcZ7wQroDxb3/wdLTOkIIIAAAggggEBoApzbhUa9e0XHqU9z8u5v8u/oBRgAiL4N3hSBnp/ZW3+ofm5YWNaEo5FKpolZ09okigACCCCAAAJJF9C5HRd3omvkS72+TXTVU3NXAgwAdKUS7Xvf1B+qd0Qbgr218yVhb9uTOQIIIIAAAggkT4CLO5G26YGq/ZxII6DytwgwAPAWkuje0AjZYNX+/egioOZUKsUoMYcBAggggAACCCCQEAHO7SJvyPP1aPO9I4+CAN4QYADAoINBI5QXKZw9DArJulCYAWBdk5MwAggggAACCCRYgHO7yBt3Tz3a/IeRR0EAbwgwAGDIwaCRsXdphPJMQ8KxNYysEn/Z1uTJGwEEEEAAAQQQSJrAgAEDXlBO3jker+gEzmlpaTk4uuqpeVcBBgAMOR7S6fQvNEJZY0g4tobxYl1dXcbW5MkbAQQQQAABBBBImsCwYcM6tMD2K0nLK075eH0ctcFP4hRzkmNlAMCA1p0/f/5HFMbnDAjF6hB4TIzVzU/yCCCAAAIIIJBQAW4DiL5hdZ79eT0WkMecR98UDgMABjSCfiF+rTBcA0KxOgS+HKxufpJHAAEEEEAAgeQKsMhz9G3r9XUujT4MImAAIOJjQCNhn1EIwyMOg+p3CvDlwJGAAAIIIIAAAggkTEAX255NWEqxTEcX20ao73NiLINPUNAMAETYmHrsX5V+EX4WYQhUvYsAMwA4HBBAAAEEEEAAgeQJcI5nTpuqLX7p9YHMici+SBgAiLbNvVX/3xdtCNT+ugDPieVYQAABBBBAAAEEkifAAIBRbXqo2mOSURFZFgwDABE1uEa++ms60kURVU+1XQs83/XbvIsAAggggAACCCAQVwEGAMxqOfWBGu68886+ZkVlTzQMAETX1t/QH6Oh0VVPzbsLZDIZ7g/bHYV/I4AAAggggAACMReorq5mnSez2nC/fv36nWNWSPZEwwBABG2tq/97auTr3AiqpsrCAm2jR49eXfhjPkEAAQQQQAABBBCIo4Aeuf2Kzr3b4xh7UmNWe3zf6xMlNT+T82IAIJrW+Y6u/u8VTdXU2pWA/gi9oJ98V5/xHgIIIIAAAggggEB8BRoaGnI6934hvhkkMvJByuqbiczM8KQYAAi5gTTSNVhVfj3kaqmuBwHuDesBiI8RQAABBBBAAIEYC+hCD7cBmNd+354zZw63RIfcLgwAhAyuPz4/UJUDQq6W6noWYAHAno3YAgEEEEAAAQQQiKUAF3uMbLb+NTU13zUysgQHxTMYQ2zcRYsW7ZfNZs8OsUqqKl6AUeHirdgSAQQCFGi44sY9M6m2IW7OGey6qYGOk9ePu2dO/025zoC842oQWe+5zh5O3umtUPro3720TV/dx9TLdRxvZeUa/fTbLcy0/q2ydr4eX/Hgrh9v1D+yu22/RWW1511ni+ppV71bdadUm/7/Nm23XT8bXCe/Me+6m/I5d6Pr5DZpkHt9PpXf6ObzGzKZ9KupmvzqWTNmbNitXP6JAAIIhC7g3e6pQYDQ66XCHgXOaWlpmaK1uLhFo0cqfzZgAMAfx6JKUeffe+yfTtR4GSjAHx0DG4WQEEiKwA+nzNwnnc4NdR337Tr/3Mdxcm9Xh30fdab3U46D1ZkfrP+/t/f/s057lbZzHM3Ry+t/O1/qfuv/7PxX53tvOo/1PlWJnVuX8Z83BgZ22XfQjio661Fn/43///o2O6LS2zuXUNmxhVLz/us66bT+pSGFiZPrO/Tuq/pZq7df1YdrtddL2uxlJ5d/QWm+ksu5z2d6p175v+nTWYx1lwbg/yKAgH8CuVzOW+/JvwIpyS+B3qlUypshzVMB/BLtoRwGAHoA8utj3ft/kP7oTGLk0S9Rf8vxRoX9LZHSEEDAFoGGhqaazF7rDkjl8wfl3dSBTi53oJNKHaSr4AepC3yQHPZVr7jGye3aod/tJPRNnfnEyVXvNJBDZ57ef3Ysu6qT8R3/0dyE6o6cN1jQ7g0O6L1ntMHTbj71tAYNns452Wd0gvhMbt2652bNmsVK3ok7REgIgVAEONcLhbmsSurnzZt3+ZgxY54qa292KkmAAYCSuCrauEGdf29KJi8zBVgDwMx2ISoEjBCob2ysftvW7AGZdNW71LHXj/uuvJt7v7quh2WddQeqM6vr3d7VcHVdvStM+m+y+/SBNUuN3A5U6Qc6eXfEDkWPVNMh8ppN4A4c5A0SrNObq9QGj+j2g6c0hPBUzs095WwYsGrWrCu82xN4IYAAAm8R4GLPW0hMeqNag7wXKKBJJgWV1FiYBxNCy+rq/6GqZqV+vPsveRkooGlhb+feIwMbhpAQCFlgR0d/e+69ubz7/ryT+oA6moep93m4wninfhI1aL7bGgAhSwdSXUalelePHtagwSq13UrXTa/aI517fMaMGd5tCLwQQMBigYULFx6g871nLSYwPfWsLpa+f9SoUY+bHmjc40vUyYypjaERxx/pgKbzb2oD6Sxxjz324L5Tc9uHyBAIRMC7L7/KyR+pq8xHabq5ftz3a2m7Q7JOqtq7mL/j0jOvOAl45zSH7Phxnc958wbyuu9ifdbpmDC5/gl9Fz+itl6u9QqWd6TTy1lvIE5NS6wIVC6wZcuW1X36sBRX5ZKBlZD2+kwq/fOB1UDBOwSYARDwgaDRxvdp8T9dhXB55GLA1hUUv76urm5QBfuzKwIIGC5w/mVXH5BOVx/jdfTVrT9S4R6ln7cZHnag4SVwBkBpXq7zgkYIHtJAjwYFUss7nOz9f7juOm4HK02RrRGIlYBm5XpPPOFx3Ia2mi6Y5tRn+qDOy72Z07wCEmAGQECwrxerA/kCOv8BI1de/NrKi6AEBBAwRaDh6qv7d3RUHam/vUerc3e0RrqHK7Z3cle+KS1kSBx5Z39Foh/3v7wFequ0zoDWF3gpn3cfdFP5B7UGwYNVNaklv7n2Wq05wAsBBBIi4J3zMQBgaGN29pnOU3inGhpiIsJiBkCAzahnWh6sBS0eUxUMtATo7EPR92mk8aM+lEMRCCAQgcCOq/vV1SPUh1NHP3+cQjhMP9x21UNbWD8DoAefzo+zmjHyiKbw3a2HOCzJurlFzBIoDo6tEDBRQDMA7ldcHzYxNmJ6QyCr/tP7amtrn8QkGAE6psG47ihVo1jn6z8YB2jsU9HMAPAJkmIQCEOg4Ypr3pV1U8P1R9br7HtX9w/jEathyFtZR1pXSo7QIMAR+u/ZVfmdswQksUQzSu7WLSVLZl133d/1bxaMsPLwIOkYCnDOZ36jpbVY4/cU5hnmhxrPCJkBEFC7aYTxIBX9hH685x/zMlvgNs0A+KLZIRIdAvYK/PCKxv2qXGd43nXGSGG8ft5ur4Z/mTMDwCfLvLNaKyot1PE5L51J3XX7TdOf9qlkikEAAZ8FWltbb9OA8Sk+F0txPgvoImp7R0fHe8aOHctTG3y29Yrj6nQAqJ1Fevev0PkPzte3kvVHZotvhVEQAghULNBw+XV7Zaoyo9x8arSusI7RtdV3c3m1YlYKCErAdYaq6Alu3pmQS+e8dQSe0NWVFnUyWqp6Vc1nDYGg4CkXgdIF9Hu5rfS92CNsAbVTTVVV1XdV79fCrtuG+hgACKCVFy1atJ9W/j8tgKIpMgABvgwCQKVIBEoUuPDyGe/PV+U+6ebdMVknW6v/agBV3X56/iVKsrkBAofosNWjCN2zM+3ZrAYEvCcNzNPign+ZdcOMuxUfR7UBjUQI1gowABCfpj/9rrvuuuTjH//4i/EJOR6RMgAQQDup8+9d/e8dQNEUGYCABgC2BlAsRSKAQDcC5zU27lGz3R2n+6hP0NXST6hPtK86/d3swUcIxFLAW4xST6Nwj3Zd5zzvKQP699/yrvu3mm01d91225XeI8l4IYBASAKa9bmVNWNCwq68mt7V1dXnqpjvVF4UJewqwACAz8fDnDlzhuqPyxn8cfEZNsDitNIoo8EB+lI0Aq8L/GDaDUOqcu2f0P3SE5ztzsfV6a+hy8/xYZnAfsp3kpvPT+ro3abZAWfcq+kAs5yO9O9m3TL9BcssSBeB0AWY9Rk6eaUVnqWZ1b8YMWLEmkoLYv//CDAA4PPRUFNTc67+uPT1uViKC1CAL4MAcSnaegFvar+Tyn9Knf5PO/mOYd7jUaxHAQCBnQKaHeAep1+I45zq3BUaDHhAb//RdfN/vOO66x4FCQEEAhHgok8grIEV2k9PBPimSveerMbLJwEGAHyC9IqZPXv2XvrPV30skqLCEeB+zHCcqcUSAa/T76bzE/SLNVFX+d9nSdqkiUAlAhoHcI9RAcdorYCfnzy5/indHjMrn0vdMuvGxlWVFMy+CCCAQMwFzlm8ePGvjz/++HUxz8OY8BkA8LEpdPX/HBU3wMciKSocAX4PwnGmlgQLXHDlzHc6ufxJrpM/VZ3+oxlVS3Bjk1rgAvr9eZcGBM5zU3lv3YBVmkEzy3VydzAzIHB6Kki+AOd8MWtjzdQdqPXVzlLYl8QsdGPD5ZfAp6Zpbm7upZmtZ/tUHMWEK8DvQbje1JYQgfMvu/qAVLrqC+qcnOLkcocnJC3SQMA0gcP03ICL807q4gmT61doqsBtGTf3mz9cd93zpgVKPAjEQIBzvhg0UhchntPU1HTZxIkT27v4jLdKFOCXoESwQpv36dPni/ps30Kf877RAnrcGC8EEChGoGHatIHZXM2ndyzk57havd/xVjnnhQACIQio83+EqjmiKp+6RGsG3KOnCdxSs63X7TxNIAR8qkiEgK4mp1mKJn5NqXZ72+DBgz+vyG+JX/TmRcwAgE9toj8mX2flf58wwy+GDkz45tQYI4EJTU3p97287oSc45yazTsnqfPfJ0bhEyoCSRRI7VhAMO8c19GnbYpuE/iTFti8Nb/htTmzZs3KJjFhckLADwE9+SnN+bofkuGXob7Wd9R2t+q/3GVYIT8DABUCeru3tLR8XAekNyrPK54CdGbi2W5EHbCAN8XfrU6f4r607mx92x7I8v0Bg1M8AuUI5HcMyH3eyec/7w4c9JJmBtySd3LXzbr++n+WUxz7IJBwgd4Jzy/J6R2+YMGCUUqwJclJhpEbAwA+KKfT6W8zmugDZHRF7B1d1dSMgFkCDTfe2Du3of3EvOvUK7LRuveYfr9ZTUQ0CHQnsN+OxQOdtLd44IP6PZ7Ru23bbbfeeuuW7nbiMwRsEdAj5YZwC0B8W1szOM5V9AwAVNiEnNhVCKiRqA+oiBX6wbJCywh3/2tdXd0nI6yfqhGIXODCKxsPd3OOd6X/CwpmYOQBEUDgAo+veDDwOqjACIENOkW5zXXca++4fvpKIyIiCAQiEtB5+99U9QkRVU+1lQvk9USAD4wZM4bHo1ZgyQyACvC8XXXl/1yNJNL5r9Ax4t0HR1w/1SMQiUBDQ1NNbs91n9pxtT/njFbnn79lkbQElSIQqMAeOlv5al4/r88KcDb0u3XWrCu2BVorhSNgpgDnfGa2S7FRuZoF8E1t7M1S5FWmACd7ZcJ5u82ZM2doTU3NM/q/3E9UgWPUu2r85qmRI0ceHHUc1I9AWALnX37t/ul06ox83jlbXf6hYdVLPWYJMAPArPYIOZpXNChwUyqbnn77TdOfDrluqkMgMgHNAPCO9wMjC4CK/RBoUyEHafbuy34UZmMZzACooNWrq6vP0e50/iswNGFXzeIYYkIcxIBA0AIXTp15tBYH+4ZGfv9HV/uruN4ftDjlI2CswD7eWgG5dO67Eyad2ew6ualNN8ycZ2y0BIaAfwLMAPDPMqqSeqniM/Xzo6gCiHu9zAAoswWXLl3ap62t7Vntzh+SMg1N2k0LOQ4dMWLEGpNiIhYE/BB4fZq/4+bP1Xp+H/WjTMpIhgAzAJLRjn5loUHB5RoUnN4v037LTTfdtN2vcikHAVMEFi1atJ/uH3/RlHiIoyKBNb169Trw2GOP5VamMhiZAVAGmrdLe3v75/UfOv9l+pm2W0dHx/sUEwMApjUM8ZQt0HDttUMz7amzs866s1TIvtzeXzYlOyJghYCuCB2lp340bk3XNEw8vf7afLZj+qwbb+R70YrWtyNJ71xP94/bkWzysxyyffv2CUrzluSn6n+GDACUaapp497UE14JEdAXgjcAsCgh6ZCGxQIXXDnznW42981su3O6Tuj7WkxB6gggUJ7AfhoI+LGbqj7/5Mn1TU4q/9M7Zs58oryi2AsBcwS05tOh5kRDJJUK6Nzd64sxAFAGJMNgZaDNmzfvCO32kTJ2ZRdzBbwBAF4IxFbgwmnTP3jB1MZb3FzuCU3j/boSoU3R9IwAACAASURBVPMf29YkcASMEOil2wJOzefcR7VOwJ0nn3HGh42IiiAQKFNAAwCc65VpZ+Juuhh7rBZ1PNLE2EyPiRkAZbSQ7hc/u4zd2MVgAb4UDG4cQutW4KKp0/X4vtR5eibpWBZ16ZaKDxFAoDyBlOvmP6mBgE9OnHTmHD094BdNN8xYUF5R7IVApAIMAETKH0jlp6tUb1F2XiUIcL5YApa36ZIlSwboHqIX9H8HlLgrm5stsFaPAhyqgQBd8OCFgPkCF0ybMSaVz/2Ehf3MbytTI2QRQFNbxvy49AjRpfq+vLTp+sa/KFq+N81vMusjbGhoSNXW1q4WxN7WYyQLYIPWZdt/3LhxW5KVVrDZMAOgRF91/k/RLnT+S3SLweaDW1paDlecK2IQKyFaLLCz4+/8TFPfjlHn32IJUkcAgagEXNc5Vv3+P0+cXP8P/RX62R3Xz/idYmEgIKoGod4eBfTM+A/mcjk6/z1KxW6DPWpqaryF2a+PXeQRBswAQIn4GvGu14l3iXuxeRwEdGtHneJkACAOjWVZjN6Vi9ye+30u5zoXuPn8EfwFsuwAIF0EzBX4oP4eNU2YXL9c9wn89I7rGv9PofInytz2sjYyPf6vTufw1uaf8MS9xQAZACihkVkEsAQsXSE+Rp3/D5WwC5vGS8AbAOCFgFEC3hX/7KD9luVdp0mnLt4CpLwQQAABowT0t+konR/9XjMCVujJAd6juehpGdVCBKPOP+d4yT0MPqw+Gv2zEtqXAYASsHSFmEf/leAVw01HNjU1pWMYNyEnUMDr+F84tfF+XfGfq/SOSmCKpIQAAskT+EDnjIB7Jk4+88TkpUdGcRToPLcbHsfYibk4AT0SsL64LdnKE2CEtsjjYO7cuXtUVVV5i//1K3IXNouhgK5gDB81atTdMQydkBMicOEV0z+mv8w/dVx3VEJSIg1DBVgE0NCGSVRY+btTbvqC26+b3pqotEgmVgLz588/TjMAlsQqaIItVWBzdXX124YPH76p1B1t3J41AIpsdXX+v6hN6fwX6RXXzfQF4bUzAwBxbcAYx90wbfph2XzqV7p9dnyM0yB0BBBAYBcB97hcPrdgwqQz/5JL577/+5kzH4EHgbAFdG7n3ZbCK9kC/TsXam9Mdpr+ZMctAMU7eh1DXskXOLm5ublX8tMkQ1MEfnDVVXtfOKVxajbv/oPOvymtQhwIIOCngJ6w+8l0zl2hNQKaPn/aWQf5WTZlIdCdgLeIrj7/7+624bPECJyamEwCToRbAIoA1sISB+vekie1KV5FeMV9E90G8N+6DeD3cc+D+M0WaGhoqskMWn+27vH/kf6y7GF2tESXRAFuAUhiq8YgJ9fZ5uTz09qzHZf+8aab1scgYkKMsYDO4T+uc/g5MU6B0IsXyKutD66trf138bvYuSUzAIpod00d+oI2o/NfhFUSNtEfjy8lIQ9yMFQgn3cvmtI4ITto3WOuk59C59/QdiIsBBAIRiDv9NEp1Xk16ZonJ55e//X6+vrqYCqiVAQcR+d0Z+BgjYCuqeQ/b022FSTKAEAReBoA+J8iNmOThAjoj8cnFi1atF9C0iENgwQ01f8jF02bscR7pJ/CeqdBoREKAgggELbAYCfvTF2fdVZ2Pjow7PqpL+EC3rmczuFPSniapLeLgM7hvYu2vHoQYACgByCtHHq0Njm0h834OFkC1ZlM5lvJSolsohS4eErjOy6Y2niLrvbfo0dkHRtlLNSNAAIIGCZwiPfoQM0GmHvy5LM+YFhshBNjgWw2e646hDUxToHQSxd4v/puHyx9N7v2YACgh/bW1KFTetiEjxMooBHjsxYvXjwogamRUogC37/mmkEXTZlxac51ntA9RN7iNNxKFKI/VSGAQIwE8s6YvJNbfvKk+sYJX/nKkBhFTqgGCsyePXsvhXWmgaERUvACzALowZgBgG6AvJVDNXJ4cjeb8FFyBQZoFsD/S256ZBaogO7zv3Bq4+nVHekn827+PNXFkyUCBadwBBBIiECVbpGqd1PVqyZOPmOScmLQNCENG3YavXr1+prqHBB2vdQXvYAu3n6hqakpHX0k5kbAH9Zu2kYrh47SQdTSzSZ8lGyBV5XeQXV1dZuTnSbZ+SnQMGXmETk3dy1T/f1UpawgBHgKQBCqlOmvQP7ufNY9e9ZNMx72t1xKS7LAnDlz+tXU1DytHAcnOU9y61ZAp+91rd1uYfGHVRbn3mPqTP/vkSjpG+ytGSDeFYhpSU+U/CoXaGhs7Jvb7nwv6+R+oNK457ByUkpAAAHrBdzj3LTz94mT6q/Z7mQu+PMNN2yyngSAHgWqq6u9qf90/nuUSu4GOn/3buFuTW6GlWXGDIACfs3Nzb369Onzsj7es8AmvG2HwAubN28+5MQTT9xqR7pkWY7ARdOmn6hZ/1dq3wPL2Z99EIhCgBkAUahTZ9kCrvOCm3N/eMcNWlCVFwIFBBYsWNBfHz2hH57mVMDIkrfXbdu2bb/x48e3WZJvSWkyA6AAV+/evUfrIzr/BXwsenv/AQMGfFv5/sSinEm1SIGGaTPfns3npuTzzueK3IXNEEAAAQTKEcg7+2tNlZsnTDpzQjrnfu32m6Y/XU4x7JN4ge8oQzr/iW/mHhMcpAu5ddpqdo9bWrgBiwAWbvRPFv6IT2wS0DSi73nPkrUpZ3LtXqC+sbH6gqkzvqHO/6Paks5/91x8igACCPgm4Lr5T+aqcqv02MCGCRMmcLuVb7LxL+iuu+56m7LwBgB4IeAJ/BcMXQswANC1i6PHwI0v8BFv2yfQX8+Svdi+tMm4K4ELp808fp82Z7nr5Kfoc2+qIS8EEEAAgTAF8k4fJ+9c7A4c9PDnJ5/pzdjkhYCje/9/LIZ+UCDgCagvdxISXQuwBkAXLvPnz/+gDpqHuviIt+wVyCr1I7Wi6Ep7CezOvOGKG/fMum1X6Bvly5Lgb6fdh0MismcNgEQ0I0k4GgpwnBvzaefcWTNmbADEToGFCxcensvllit7Hv9m5yFQKOvDOXd/Kw0zAN5q4r3DlJGuXWx+N61BoV/YDGBz7hdNmTEum2p/WJ3/0+RA59/mg4HcEUDANAHvb/IkN+s8NnHymSeaFhzxhCOgzv+vVBOd/3C441QLt3R30VoMAHSBoo4eXyBduNj+ltYCGK/ZIdzvbdGB0DBt2sALpzY2auGpvyntt1uUOqkigAACcRPYV5MB/nzy5PpbTpo0aUDcgife8gW08v/J2ntc+SWwZ4IFuKjbReNyJWs3FC32NiSTybysQQAGR7o4YHjLebmqquqw448/fh0WyRa4YNqMMW4+f72yfEeyMyU7WwW4BcDWlk9+3jq5fcZ13Mm3X9/Ykvxs7c5w7ty5e+je/1W6SOMtAMgLgd0FvFt499VtAGt3/8Dmf9PJ3a31tdjbf9H5t/lXosfc99UA0SU9bsUGsRVoaGzsqyn/l6rzP0dJ0PmPbUsSOAII2CqgRQEOzDn5uSdPqm+c8NWvslhrgg8EXZS5jM5/ghu48tS8W3g/UXkxySqBAYC3tidTRd5qwjtvFqhvaWkZBUryBC688trjstudhzTl/zxlx9/H5DUxGSGAgD0Cbt516t22zMMTJ9V7zwPnlTAB3ZZZq5QmJSwt0vFZQANE9O12M+UWgF1Ali1bVr158+a1OlAG+nzsUVzyBB7btm3bkePHj29LXmr2ZfStyy/vMyDV/2J1/L+r7On423cIWJkxtwBY2ey2Jq0/787Mmo5t5956661bbEVIUt6677+3ruz+Q+fshyQpL3IJRGC9Sh2i2wAygZQew0I50d2l0TZs2PBhOv8xPIqjCfnQ3r17/ySaqqnVT4ELr5j+sf7pfsu56u+nKmUhgAACRgnsmA3QXtNnhZ4UMMKoyAimLAF1/n9G578sOht32lPHytE2Jl4oZwYAdpFJpVJMESt0pPB+VwLf1vSz0V19wHvmC9Q3NlZrhf9LnJS7WNG+1/yIiRABBBBAoBIBrQ3wLj0pYP7E0+t/NrKhoaqSstg3OoHW1taxeuzfN6OLgJpjKODdLsKrU4ABgDcfChwc/GoULeAtFqmfm+fNm7d30TuxoRECF09pfMc+29wFCub7+uG5wUa0CkEggAACoQiknbzzw6HPvXD3ZyedrQEBXnES0NT/wbqaezMLdsep1aKPVRd56ePt0gwMAHRi6A+KNxL80egPUSKImcD+6XT6upjFbHW4F02d8Zmc6zzkuPnjrIYgeQQQQMBqAfeYKje7/OTJZ3zeaob4Je+dc+0Xv7CJOEoBDRod39nXizIMY+pmAOA/TTFM/3eAMS1DIHES+LRuBaiPU8A2xtpw4429L5zSODXv5P+g/AfZaEDOCCCAAAJvEhiYd9zfnjy5/pYT6+v7YmO2gDpwZynCT5kdJdEZKuD18Y40NLbQw2IA4D/kHwldnwoTI6CpaJcvXLjw8MQklLBEGq5sPDS7sf1ex3W+nrDUSAcBBBBAoEIBrQ1wap+s88CE0+r5Hq/QMqjddaHlgzrXuiyo8inXCgH6ep3NzABAJ4T+qBxjxaFPkkEJ9NOCNH9mPYCgeMsv98Ip07+UzTnLVMIHyy+FPRFAAAEEEi5wmFvl3Ddh8hnfSHiesUtv8eLFg3Se/ntN42aWRuxaz5yAdfwwANDZHAwAdELooGAAwJzf0bhGcpDWA/htU1MTi8oZ0IIN06YN1Cr/tzlaqFHh9DMgJEJAAAEEEDBZIO/0cR13ysTJ9b/79Gmn7WlyqLbE1tDQkMpkMrcp34NtyZk8gxHgYu9/XBkAkMXs2bP34g9LML9sFpY6dsiQIQ0W5m1UyudfOX1Y1un1oII6xajACAYBBBBAIA4Cn+uVrnlowqQzPxaHYJMcY21t7c+U3yeSnCO5hSZwiDebJLTaDK6IAQA1Tk1NzVH6j2twOxFavATO10I1n45XyAmJNp93L5jS+O1Uzl2qxzy9OyFZkQYCCCCAQMgCWhfgQNfNt2o2wLdCrprqOgV03//n9H/PAwQBnwTc9vZ2r89n/YsBAB0CmhLyAeuPBAD8FNAh5d7MooB+kvZc1rcuv7zPhVfOvMl1nV9r6+qe92ALBBBAAAEEuhWo0aeX6ykBt5966qncStYtlb8fdi76d5NK5QKdv7RWl0afb2fzMwCw04EBAKv/HPifvNaUGKhFAf+mQYAD/C+dEncXuGBa48H90/3uc/L5L+3+Gf9GAAEEEECgEgHNBjh5e02fpZ+ddPa7KimHfYsTuOuuu96mjtqd2rp/cXuwFQLFCaRSqfcXt2Wyt2IAYGf7MgCQ7OM8quz21yBA89y5c/eIKgAb6r1oyoxxbt55QLny+CYbGpwcEUAAgQgEdBn6iCo3+8DJk+o/HkH11lS5ZMmSAdXV1c1KmAso1rR6qInS5xO39QMAulLrTS1iNCjU3z2rKvtAVVXV7VoToMqqrMNI1rvff9r08/Ju/q+qjkVdwjCnDgQQQMBugb101tg8cfKZ3n3pTE33+VhYtmxZdUdHx+9VLI/t9dmW4nYKqN9Hn48/Xo6j57bvo0e3vcwvBgIBC1xfV1d3esB1WFN8w9VX989mq27QQn8TrEmaRBHwWeDxFd6DMnghgECZAn+u3t7r1Ntuu3Jjmfuz224Culhyrd46CxgEAhYYonPytQHXYXTx1s8A0L0gBxndQgSXFIHJra2tP0pKMlHm0XD5de/OZKruofMfZStQNwIIIGC9wEmZXm33fa6+/lDrJXwAUOf/pyqGzr8PlhTRvYBuz7V+LQ8GAFIp6w+C7n9N+NQvAU07ukir2n7Pr/JsLOeCqdNPyKaz92veJfdw2XgAkDMCCCBgkIBuBzg0nXXuO/n0Mz9lUFixC0Wd/28q6PNjFzgBx1JAC0weFMvAfQza+gEAjQK900dPikKgWwH90blUMwHO7nYjPnyrQOf9/q7j/kUfcr//W4V4BwEEEEAgGoGBGuD/v4mTz7i0oaHB+vPqUptAF0a+qn2uKHU/tkegXAGdi1vf97P+D5VuAdi/3AOI/RAoQ8DVicLVGu2eXMa+Vu7S0NjY98JpM2a5efdSAaStRCBpBBBAAAGTBTQxzT1v1XMv3j5hwrf6mByoSbGp8+89uvdKk2IiFisE3m5Flt0kaf0AgGwGd+PDRwgEIeCtHDxdX3yfDaLwJJXZ8OvGwdlt7l3K6XNJyotcEEAAAQQSKTDBHbi59X9OP32fRGbnY1KaDTlBV2Jv0A99ER9dKaoogSFFbZXgjaz/pdPV2KEJbl9SM1egSl96t2sQgI5tgTbS/f7vyVY7Sx03f1yBTXgbAQQQQAABwwTcY7L51D0nn376+wwLzJhwvM6/zr9vU0DM6jOmVewJROffDADY09wFM7X+ICgowwdBC1Trj9Ad+iI8NeiK4lb+BVfOHKX7/e9X3O+JW+zEiwACCCBgvcA78/nU3RMn1ddZL7EbgG6BPFmd/9/o7WpsEIhCQMef9X0/62cA6MDbI4qDjzoR6BRI6w/RjQwC/Od40P3+p7m53N/0zp4cJQgggAACCMRUYJDjOrNPnnSmd587Lwmo8/9l/ce78l8FCAIRClh/fskAgOOwWEuEv4FUvUPAGwS4uXMlXHtJtNL/RVMbG5x8/gYh1NgLQeYIIIAAAgkRqMm7+Zs1E2Cq8vHW/7H2pc7/6TrX8b7fmfZv7VFgTOK9jYkkokCs/mPkmesP0kb9Z0BE/lSLwK4Cef3ja3V1dVfbxtLQ0FSTHbTueuX9RdtyJ18EohJ4fMWDUVVNvQjYJ+C6TX0zbV++6aabttuWvGY5fk2df+sHQWxrd1Pz1e23G0eOHGn1DHBmADiO9aNApv6CWhiXNyB3lQalLtUXpTWDcw2XX7eXOv/eSv90/i086EkZAQQQsEIgn5+4JVXT8j/19dY8fco7l9E5TYP+O01tbM15jRXHc7yTtL7vxwCA42AQ71/iJEZ/nr4wG5uamhI/Ta7himvelU1n71Yj1iaxIckJAQQQQACB1wVc1zk2m3XuOfmMMw5JuorOY6oWLlx4nfK8OOm5kl+8BHK5nPVrUND5dRzrpmLF69fUzmg1PemMoUOH/mHp0qWJXaPiwiumfyybSt+nFj7UzlYmawQQQAABCwXenc+6iydMPuuYpObe3NzcS7ndriv/k5KaI3nFV0Dn2B3xjd6fyBkAcJzN/lBSCgL+CuiL86S2trY5ixcvHuRvydGXpsX+6pyUO0eRWDMVMnp1IkAAAQQQMELAdYa6Tm7+yZPqP25EPD4GMXv27L369u07X0V+zsdiKQoBPwXa/SwsjmVZPwCgUaAtcWw4YrZG4PhMJrO0paXl4KRkfNHU6Z/SaofNyofFN5PSqOSBAAIIIFCqQD+t9nPnhNPP/O9SdzR1e035f0/v3r3v0QWMY02NkbgQkAADALYfBvojtdV2A/I3XuDQdDp9vx4TGPv75C+aOuPUvOP+TuLWL8Bi/FFHgAgggAACQQvUuPn87RMmnTk56IqCLl/nKMfp3uq7dV6d+PUNgrak/MAFNgVeg+EVWD8DQO3DDADDD1LCcxx9oe6VSqXu0hfsl+LqccHU6V/LO/mbFb/1i6/EtQ2JGwEEEEDAd4G06+ZnTjy9/tu+lxxSgXrM31d0juJN+x8SUpVUg0AlAusr2TkJ+1o/AMAtAEk4jO3IQYMANTpeb9YX7dSGhoZY/e5eMG36ea7j8hggOw5VskQAAQQQKE3AdfLOrydOPuPS0naLdmudl7z+mL8bvHOUaKOhdgSKFlhX9JYJ3TBWnYgg2kB/sDYGUS5lIhCUgI7Zr9fW1v5uyZIl5t9Dr5ODC6c0XuHm3Vid1ATVdpSLAAIIIIBAYQH3vImTz7w6DoP8Wul/oO75/6Ny4TF/hRuUTwwU0MU0BgAMbJdQQ9JB8GyoFVIZAv4IfEaLAy6bN2/eYf4U538pOoGpunBq4w2O63zT/9IpEQEEEEAAgSQK5L/66HMv3lpfX19tanY69zhEK/17i/2dZGqMxIVAIQGtVfFMoc9sed/6GQAcBLYc6snL01toR4sD3qt1AT5rWnZfmzatV3bQvk2O655mWmzEgwACCCCAgMkCelLOKesy7h8mTPhWH9PiXLBgwSe9hYl1DmLsBQjTzIjHLAFd/GUAwKwmiSQa6w+CSNSp1C+BAfpD9jt9IV9qypTBhquv7r9nvtdfHMf9jF9JUg4CCCCAAAI2CWhhwE+6e2z52xe+8LWBJuTdeb//efrvnxTPHibERAwIlClgfd/P+hkAOnCeLvPgYTcETBFwFch5WhfgLxoIGBxlUN+/5ppBuY6qBYphTJRxUDcCCCCAAAKxF8g7tR29t8/99Gmn7RllLosWLRqi+/1nK4ZLddGBvkOUjUHdFQvoiRUMAFSsGPMCmAYS8wYk/F0FPqF/LNcgwPAoWM5rbNyjpqNqdt51hkVRP3UigAACCCCQPAH3mJqqmpZTzj57UBS56clDx2ez2eW68v/xKOqnTgT8FtAAwNN+lxm38qwfxaurq1urRtsUt4YjXgQKCLxd72sMYIHuCAjvUYFe57/XdveuvJM/pkBcvI0AAggggAAC5QjknQ9l2rNzwxwE6Jzy/w39t0Uh719O2OyDgGkCuvC78fjjj+cpAKY1TETxPB1RvVSLQBACVSr0Yt0S8Cet1Lt3EBXsWuaOK//bnTl0/oOWpnwEEEAAAYsFjs6055rDWBPAu51QV/7/Kusp+jH2aQQWHwukXqaABrT+XeauidrN+hkAXmtqNOjhRLUqySCwU8BbqfcRfZGfEBTI651/lf+RoOqgXAQQQAABBBDwBPIf7ejdNjvIQQA9WWi0KnpIP95thbwQSJSABgBWJCqhMpNhAEBwOhiWl+nHbgiYLrCPAmzWSP7U5ubmXn4G2zBt2sBe2/PeokB0/v2EpSwEEEAAAQQKC3zMGwQ4adKkAYU3Kf2TZcuWVXu3D2rPu/TDlP/SCdkjBgK6/58+n9qJAQAh5HK5v8fgmCVEBMoVcDXI9fU+ffos0yq+h5dbyK77eZ3/XL5G0/7dj/pRHmUggAACCCCAQNECH+vlVPk2CKBzg/dt2rTpPtV+Mav8F90GbBhDAfp8OxuNAQA51NTUeKNB+Rgex4SMQCkCH9BAwL0a4T/LW9ynlB133fY7v7qlXy7f6046/+UKsh8CCCCAAAKVCbiuc2ylgwCdC/2do07Rg4rmqMoiYm8EjBfI64kW3u0t1r/K7gQkTU5TpP+lP4TvSlpe5INAAYG5mgY1WQsFPlfg8y7f9jr/fWq2eQsD1Xa5AW8igEBsBB5f4Z3z80IAgXgL5O/ens9+4s833FDSE61aWloO1HnA9crdu+efFwI2CDypp78dYkOiPeXIDIBOIXX+uQ2gp6OFz5MkMFbH/Eot9lNfbFJ0/ouVYjsEEEAAAQTCEnCP6+2m/1bKmgC66DWh815oOv9hNRP1mCBAX6+zFRgA6IRgIUATfi+JIUwBHfMDda9fo24JaNaVgG4X/PnW5Zf36VOz9W+Kjyv/YTYSdSGAAAIIINCjgDcIUPWn0047rXd3m+r7fl91/v+k7/8mbTeou235DIEECrAAYGejMgDwOkQqdU8CD3RSQqAYgU/ocYErdFLwla7WBqhvbKzun+43Sw/MPL6YwtgGAQQQQAABBEIXqNuarmka2dBQtXvNnff6n673V+n/n7T75/wbARsEtNYFfb3OhmYAoBNCfxC9g2KbDb8A5IjA7gI6/vfSzw0aBNBiwAvf98bnWixwn235Gfr3f+2+D/9GAAEEEEAAAaMEThz63Is3NjQ0vHF+r6v+79Z3+1xFOVM/XPU3qrkIJiwBzXjd2tbW5j3pgpcEWARwl8NAfyTn6Z/cD8Wvhu0CHQK4fNu2bRff++Rzl+jxGN+yHYT8EUiiAIsAJrFVyQmBHSf3V3337Ppz9Wi/c+XxI/30wgUBywXmaAHAEyw3eCN9ZgDsciToCuh8DgwEEHCqZXDei+u3vEDnn6MBAQQQQACBeAnou/uceYuWPK+oL9UPnf94NR/RBiOwIJhi41kqAwC7tJumhzAAEM/jmKh9Fnj+1fXOM2te29vnYikOAQQQQAABBEIQ+Psjq4Y+/PgTIdREFQjEQqAlFlGGFCQDAG+GXqZ/bgjJnmoQMFLglfUbnSdeWG1kbASFAAIIIIAAAsUJLHngQeefzzxb3MZshUByBdavWbOGJwDs0r4MAOyCoXtDMvrnouQe/2SGQPcCr23e6jz63Cvdb8SnCCCAAAIIIBALgZa773GefeHFWMRKkAgEJLBw4sSJ2YDKjmWxDADs1mxaB8BbCJAXAtYJbNy63Xn46RecXF53D/JCAAEEEEAAgdgL6NFnzpxFS5yXVq+JfS4kgECZAvTtdoNjAGA3EA0A/Elv0QMq8zeM3eIpsGV7m/PQv593sjkO/Xi2IFEjgAACCCDQtUAmm3WaFyx01q5b1/UGvItAcgXymUzmz8lNr7zMGADYzW306NHP6K2HyuNkLwTiJ7C9vUOd/xecTDYXv+CJGAEEEEAAAQR6FGjv6NgxCLBp85Yet2UDBBIksGzs2LEshLFbgzIA0MURrqcB/F8Xb/MWAokTyGhq4D+eftFp6/CWv+CFAAIIIIAAAkkV2LJ1m/NXDQK0tbcnNUXyQuBNAvTpuj4gGADowkX3S/2hi7d5C4FECXj3+j+szr83/Z8XAggggAACCCRfYN2GDc7shYsdb20AXggkXUC3dnNRt4tGZgCgC5RRo0Y9ohEjHp7ahQ1vJUPAu9P/sedfcdZp1X9eCCCAAAIIIGCPwIuvrHYW3veAPQmTqZUC6sut0hPeHrMy+R6SZgCgABAjRgVgeDsRAs+sfs15ed3GRORCEggggAACCCBQmsBj/3rK+fvKVaXtxNYIxEhAfTlmdBdoLwYACsAwAFAAhrdjL7B6/Sbn3y+vjX0eJIAAAggggAACLparYAAAIABJREFU5Qvc/48VzpP/frr8AtgTAYMFdJsL0/8LtA8DAAVgNGXkfn3EX8UCPrwdT4H1W7Y5q557medcxrP5iBoBBBBAAAHfBHSxy1lw7/3OK2u5KOAbKgWZIvBP3dK93JRgTIuDAYACLaL7RvR3MX9rgY95G4HYCXiP+1v5zIuOt/gfLwQQQAABBBBAIJvN7ng84PqNm8BAIEkCN3t9uSQl5GcuDAB0o6kBgJv1MQdPN0Z8FA+BDn3BL3/qeac9k41HwESJAAIIIIAAAqEIbG9rd/46v9XZ3sZTgUIBp5JABdR/0+z/HBdxu1FmAKAbnNGjR/9LH9/dzSZ8hIDxAt4F/5XPvORs0wwAXggggAACCCCAwO4CGzdv1uMBlzhZHg+4Ow3/jplAKpVqVR/umZiFHWq4DAD0zO3NAuCFQCwFvOkrjz7/Mo/7i2XrETQCCCCAAALhCby0erUzf+m9jrc2AC8E4iqgq//03XpoPAYAegDatm1bk+4h4WHpPTjxsZkCT7/yKo/7M7NpiAoBBBBAAAHjBP759DPOgysfMS4uAkKgSIEt6rfx+L8esBgA6AFo/PjxG3kkYA9IfGykwJoNmx1vAIAXAggggAACCCBQrMCyFSudp559rtjN2Q4BkwR+pye5bTYpIBNjYQCgiFbRSBJTSYpwYhNzBLZqQR8e92dOexAJAggggAACcRHY8XjAe+5zXtuwIS4hEycCOwTosxV3IDAAUIRTbW3tPB1QTxSxKZsgELmAt4DPw3rcHwv5RN4UBIAAAggggEAsBdo7OpzZrYsd77+8EIiJwJPqs7XGJNZIw2QAoAh+7zmSWlCisYhN2QSBSAW8UXtvxf8t29sjjYPKEUAAAQQQQCDeAhs2bXJa7r6HRQHj3YzWRK/+2pVen82ahCtIlAGAIvF0QN2gTbcUuTmbIRCJwFO65//VTRymkeBTKQIIIIAAAgkTePr5F5xlD69MWFakk0CBTVu3buWW7SIblgGAIqG0oMR6DQLcVuTmbIZA6ALeon/Prn4t9HqpEAEEEEAAAQSSK/Dgw4+wKGBymzcpmd3iLdyelGSCzoMBgBKEdRvANG3O1JISzNg0HAEW/QvHmVoQQAABBBCwTYBFAW1r8VjmOz2WUUcUNAMAJcCPGjXqEc0CWFzCLmyKQOACLPoXODEVIIAAAgggYLUAiwJa3fymJ9+imdrcp1JCKzEAUAKWt6lmAVxd4i5sjkBgAiz6FxgtBSOAAAIIIIDALgIsCsjhYKKALs7SNyuxYRgAKBFs4MCB/6ddni9xNzZHIBABFv0LhJVCEUAAAQQQQKALARYF7AKFt6IUeEYXw+6MMoA41s0AQImtNmzYsA4daFeUuBubI+C7AIv++U5KgQgggAACCCDQg8CyFSsdbyCAFwJRC6hPdrmm/2eijiNu9TMAUEaLdXR0NGq3V8vYlV0Q8EVge3uH8+hzL7MipS+aFIIAAggggAACpQjMX3qvs3Hz5lJ2YVsEfBXQ1P/XOh/T7mu5NhTGAEAZrTxu3LgtGnG6poxd2QWBigVy+bzzyLMvOZlcruKyKAABBBBAAAEEEChVoK293Zm7eKm3Nlapu7I9Ar4IqC82TVf/GYUqQ5MBgDLQvF30B2+q/rOlzN3ZDYGyBf754hpnw9btZe/PjggggAACCCCAQKUCq1991bl3+T8qLYb9EShZQFf+t2onFv8rWW7nDgwAlAk3ZswY7xaAm8rcnd0QKEtg7cYtzguvri9rX3ZCAAEEEEAAAQT8FFjx2OOsB+AnKGUVJaCr/zN19X9tURuz0VsEGAB4C0nxb6RSqcu0NQtPFE/GlhUIcN9/BXjsigACCCCAAAK+C3iPI/bWA9i0hUmxvuNSYCGBDs3EZkH2QjpFvM8AQBFIhTapra39t6agNBX6nPcR8EvA+4L17vvvyGb9KpJyEEAAAQQQQACBigW89QDuWnw36wFULEkBxQio7/Xb0aNHP1PMtmzTtQADAF27FP2uOmaX6IcVUIoWY8NyBP718lru+y8Hjn0QQAABBBBAIHCB1WtfdR74x8OB10MFdgt4fa5MJvMLuxUqz54BgAoNdf/JSo1EzaqwGHZHoKDAq5u2OM+tWVfwcz5AAAEEEEAAAQSiFli+6lHWA4i6ERJev26/vl3rsK1KeJqBp8cAgA/E2Wz2IhXD3GwfLCnizQJtHRln1XMvO3lgEEAAAQQQQAABgwW82xVb773f2bJ1m8FRElqMBbI6xn4S4/iNCZ0BAB+aQiNRT6iY230oiiIQeEPgjfv+M4wtcVgggAACCCCAgPkC27Zvd+YuudvxzmF4IeCzwP9q5vVjPpdpZXEMAPjU7JqS8iMVxRMBfPKkGMd56uVXnfVbGEXnWEAAAQQQQACB+Ai8tHqNs2zFyvgETKRxENCE6+zP4xBoHGJkAMCnVtITAZ5UUbf5VBzFWC7w2uatzjNrXrNcgfQRQAABBBBAII4Cyx5e6bz4yuo4hk7MZgrc2Dnj2szoYhYVAwD+NliDFgRs97dISrNNIJPNOY/qvn9eCCCAAAIIIIBAXAVa7r7H8R4RyAuBCgU6NNOaq/8VIu66OwMAPmLqvpSndc/TrT4WSVEWCjz+wmrHW/yPFwIIIIAAAgggEFeBzVu3Oncv+3tcwyducwSu10zrf5sTTvwjYQDA5zbM5XIXaxbAVp+LpThLBNZs3Oy8sn6jJdmSJgIIIIAAAggkWeDxp/7t/OuZZ5OcIrkFK+AthvWzYKuwr3QGAHxu89GjR7+gWQDTfC6W4iwQaNdq/0z9t6ChSREBBBBAAAGLBBbdv8zZso1FjS1qct9S1UXVX2mG9fO+FUhBOwQYAAjgQKiurv65DlhWPgnANqlFeg/L8Tr/3v3/vBBAAAEEEEAAgaQIbG9rc+YvvZdHAyalQUPKw+tLbd269bKQqrOqGgYAAmju4cOHb9IsABarCMA2qUW+sHa98+qmLUlNj7wQQAABBBBAwGKB51962Vn15L8sFiD1MgQaxo8fz32xZcD1tAsDAD0Jlfn5gAEDrtGu/yxzd3azSGBbe4fzr5fXWpQxqSKAAAIIIICAbQJLH/y7s2HTJtvSJt8yBHT1/4n+/ftfV8au7FKEAAMARSCVs8mwYcM6tN8F5ezLPvYIaKaI88izLznZHFP/7Wl1MkUAAQQQQMA+gUw268xdstTRgtn2JU/GpQp8v7MvVep+bF+EAAMARSCVu8nIkSObtO895e7PfskXeHr1a87GrduTnygZIoAAAggggID1Amtefc35+yOrrHcAoFuBe/XYvz92uwUfViTAAEBFfN3vrOkreY1yfr/7rfjUVoHN29qcZzQAwAsBBBBAAAEEELBF4MEVK53VGgjghUAXAl7f6dteH6qLz3jLJwEGAHyCLFSMHgu4SAexNxOAFwJvCOQ09X+lpv57/+WFAAIIIIAAAgjYIuCd+8y/+x4no8cf80JgN4Hb1HdaikqwAgwABOu7o3Td5/1t/Ycl3kOwjksVT2nRv61t7XEJlzgRQAABBBBAAAHfBNZt3Og8sOJh38qjoPgL6ILp1kwmc378MzE/AwYAQmijurq651XNr0KoiipiILBx23bnuTXrYhApISKAAAIIIIAAAsEIPLTqUeflNTwFKRjdWJb607Fjxz4by8hjFjQDACE1WK9evX6pqp4OqTqqMVTAm/H/6HP/n707AZOkrBKF/WVVbwgqmwi44lxXrsuMcv8rgqwNijqOo6LjzKg4AoKyOu6iJaDi1XubTaCrFxBGsbsUx9FxXFBBBURW2Ruapll639fq6qrK+L/sQYWml1oyMr+IePN56mm6MuJ857wnu6g4GRmxKDjxP9EGSYsAAQIECBBomcBv/nCTuwK0TDvdheK7/3PiGdOT0s2wXJkZALSon/vvv39vXOoTLVrOMokKzF28LKzb0JdodtIiQIAAAQIECLROYNmKleG2u+9t3YJWSlIgXvjvtHjGtNtitag7BgAtgm4sE1/Y34t//KKFS1oqIYHGZ/5d9T+hhkiFAAECBAgQaLvALXfeFVasWt32PCTQNoFfHnroof/RttUruLABQIubHk9vOS0uOdDiZS3XZoHY902n/rvqf5sbYXkCBAgQIEAgKYHBej38+oYbGxfNTiovybREoHFMdGpLVrLInwUMAFr8YogTrrvj51wuavGylmuzwGPLVoZV6xufAvEgQIAAAQIECBB4osCipUvDXfc/AKV6AufFM6Tvql7Z7a3YAKAN/mPGjPl8XHZeG5a2ZBsENvQPhDkLl7VhZUsSIECAAAECBIoh8Pvb/hhWr11bjGRl2QyBR2OQrmYEEmN4AgYAw/NqytYHHHDAmnia0+lNCSZI8gL3PbYwNE5v8yBAgAABAgQIENiyQLwHfPjtTbds+UnfLZ1APCP6lPjuv4lPGzprANAG9MaS8aMAM+Mf/9mm5S3bIoEFK1aH5WvWt2g1yxAgQIAAAQIEiivwyLz54YGH5ha3AJkPVeCnBx988A+GurHtmitgANBcz+FG+1icfjk6HK5aQbbvHxgMsxcsKUi20iRAgAABAgQItF/gdzffEnr73DK5/Z3ILYPewcHBj+YWXeDtChgAbJcovw3iaS9zY/Rz8ltB5HYKzJq/ODSGAB4ECBAgQIAAAQJDE9gQb5t8nY8CDA2rmFudefjhh88pZurlyNoAoM19XLx48ddiCve2OQ3LN1lg6ep1YfHKNU2OKhwBAgQIECBAoPwCD8x9ODwyf0H5C61ehbN6e3snVa/stCo2AGhzP44++uiN8WMAjdNg3Py0zb1o1vL1eB9bp/43S1McAgQIECBAoIoCv4tnAcRTxatYellrzur1+nFHHXWUz3e0ucMGAG1uQGP5eBGMX8c/piWQihSaIPDw4uVhfTx9zYMAAQIECBAgQGBkAqvWrAm333vfyHa2V3IC8Q5olxx22GG/SS6xCiZkAJBI0+OtT/41pvJYIulIY4QCff0DoTEA8CBAgAABAgQIEBidwK133R3WrF03uiD2brtAPNt5fvz6bNsTkcAmAQOARF4IEydOXBVTOSGRdKQxQoFZ8xaHxkcAPAgQIECAAAECBEYnMBAvpnzdLbeOLoi92y4QT/0/MV78fGXbE5HAJgEDgIReCPEfxo9jOj0JpSSVYQgsW7MuLF29dhh72JQAAQIECBAgQGBbAg89+pgLAm4LKPHn4jv/3zn00EN/mHialUrPACC9dp8YU3Lz+PT6ss2MGu/6PzBf27aJ5EkCBAgQIECAwAgEXBBwBGhp7LKsr6/vtDRSkcWfBAwAEnstxLMAlsaUPpFYWtLZjoAL/20HyNMECBAgQIAAgREKuCDgCOHavFu88N/JRx555OI2p2H5zQQMABJ8ScQhwLfi6TI/TzA1KW1BYIML/21BxbcIECBAgAABAs0TaFwQcPVaH7Vsnmi+keKxzE/iqf/fyXcV0UciYAAwErUW7BPve/qhuMyKFixliVEK3D9vkQv/jdLQ7gQIECBAgACBbQk0Lgh4w623b2sTz6UjsCoOAD6STjoyeaKAAUCir4d4n8x58bSZxq0BPRIW+O8L/7k9TcItkhoBAgQIECBQEoE5jzzqgoAF6GU8+D/poIMOerQAqVYyRQOAhNseT5uZHtP794RTrHRqLvxX6fYrngABAgQIEGiDgAsCtgF9eEv+6OCDD75ieLvYupUCBgCt1B7BWp2dnSfGKdryEexql5wFXPgvZ2DhCRAgQIAAAQKbCbggYNIviWUxu+OSzlBywQAg8RfBG9/4xgWNK2gmnmbl0uuLF/57ZIm5TOUar2ACBAgQIECg7QK33XVPWNfb2/Y8JPBkgXjMcmK8mPlCLmkLGACk3Z9N2cV/SN+Of3yvAKlWJsU5C5eGwXpWmXoVSoAAAQIECBBIRaB/YCDcfMddqaQjj/8WmBE/vjwTRvoCBgDp9+hPGZ4Q/2NRcdItb6ZrN/SFBStWl7dAlREgQIAAAQIEEhe4d/aDYdmKlYlnWZn0lmzcuNEZywVptwFAQRoVzwJYGq8F0BgCeLRZYPaCpW3OwPIECBAgQIAAgWoLxNPNw3U331pthDSqb5wS+6EjjzxycRrpyGJ7AgYA2xNK6Pl4Rc0fxHSmJZRS5VJZunpdWL7Gbf8q13gFEyBAgAABAskJzFu0KDy6YEFyeVUsoW/GNyp/XLGaC12uAUDB2hdPrzklnglwf8HSLkW6jfHmgwuXlKIWRRAgQIAAAQIEyiDQOAugcWtmj9YLxGOSe8aPH//J1q9sxdEIGACMRq8N+8bTa9bFU57+MS7d34blK73kvGUrw7oNGyttoHgCBAgQIECAQEoCK1atDrMenJNSSlXJpa9er79v//33dzuGgnXcAKBgDWukG0+zuTn+8ZUCpl7YlAcG62HuIrf9K2wDJU6AAAECBAiUVuDG2/4YNvZ7b6yVDY5vSH4yXvX/j61c01rNETAAaI5jO6KcHRf9fTsWruKaDy9ZHjbGW854ECBAgAABAgQIpCXQ29cX/njPfWklVe5sfhbfkLyg3CWWtzoDgIL2Nv6jGxgcHGx8FGBNQUsoTNp9/QPh0SUrCpOvRAkQIECAAAECVRO4/d57w9p166tWdjvqbVwQ64Px8/8uvNAO/SasaQDQBMR2hTj88MPnxNNvTm3X+lVZd/aCJS4uU5Vmq5MAAQIECBAopMDAwGC46Y47C5l7gZKOhx7ZB+MbkQsLlLNUNxMwACj4SyJ+9mZ6nMB9p+BlJJv+mt4NYdFKJ1kk2yCJESBAgAABAgQeF7gvXgxwyXLXbMrrBREP/i+Mxx4/ySu+uK0RMABojXOuq/T3958YF3go10UqGnz2gqUVrVzZBAgQIECAAIHiCTQuCOjRfIHGLf8mTJjwqeZHFrHVAgYArRbPYb2JEyeuiv8o3xO/3KOuib7L16wLK9b6LFkTSYUiQIAAAQIECOQq8OiChWH+osW5rlHB4G75V6KmGwCUpJkHH3zwTbGUrpKUk0QZDy1alkQekiBAgAABAgQIEBi6wI23Owtg6Frb3zK+yfgJt/zbvlNRtjAAKEqnhpDnNddc87W42S+GsKlNtiOwdPXasGr9hu1s5WkCBAgQIECAAIHUBBYuWRoeXbAgtbSKms9PDzrooAuLmry8nypgAPBUk8J+p6urqx5vDfjPsQBX5hxFFxv3NHlokQvIjILQrgQIECBAgACBtgrceNsdIV60rq05FH3x+M5/47MUx7jlX9E7+eT8DQDK1c8Qbw24qF6v/2Msa7BkpbWsnCXxqv+Nq/97ECBAgAABAgQIFFOgcTeAuY/NK2byCWQdhyeb3lh0y78EmtHkFAwAmgyaQrjDDjvsVzGPs1PIpWg5NObEc3z2v2htky8BAgQIECBA4CkCN97uLICnoAzxGx0dHV3xmOLnQ9zcZgUSMAAoULOGk+q11157Ztz+Z8PZx7YhLFqxOqzvczMFrwUCBAgQIECAQNEFVqxaFWY//EjRy2hH/r9cvHjxV9qxsDXzFzAAyN+4LSs0rgfQ19f3vrj4w21JoICL1uPnxFz5v4CNkzIBAgQIECBAYCsCN99xZ2j8jucxZIFH45bvPfroo32ceMhkxdrQAKBY/RpWtm9605uWx8/vvCdeuMNb2kOQWxjf/e/d2D+ELW1CgAABAgQIECBQBIGVq9eE++c8VIRUU8ixPx47/EP83P/SFJKRQz4CBgD5uCYTNd6z88Z4UcDPJJNQook0BsNzF7vyf6LtkRYBAgQIECBAYMQCN99xVxis10e8f1V2jAf//xqPHa6rSr1VrdMAoAKdj1O8SbHM71eg1BGXOG/5yrDBu/8j9rMjAQIECBAgQCBVgTXr1oV7Zz+Yanqp5NUTD/7PTyUZeeQnYACQn20ykRv37hw7duwxMaH7kkkqoUQaE+GHvfufUEekQoAAAQIECBBorsCtd94dBgZ9rH0rqg8MDAwcu5XnfLtkAgYAJWvo1so54IAD1sTbeRwdhwHrt7ZNVb8/b9mq0Nc/UNXy1U2AAAECBAgQKL3Aut7ecPf9s0tf5wgK3BCPEd4zceLEVSPY1y4FFDAAKGDTRpryQQcddGf8bM8pI92/jPs1rgr7yBKf/S9jb9VEgAABAgQIEHiiwO333BMGnQWw+YvihHiMcNvm3/T38goYAJS3t1usLF4PYGp84rItPlnBby5YvjpsHHA6WAVbr2QCBAgQIECgYgLrezeEWe4I8MSuT43HBpdV7GVQ+XINAKr5Ejghll35SV/j3f+HvftfzX8BqiZAgAABAgQqKXDb3feExu+AVX/EjwXfsXbtWmcGV/CFYABQwabHSd+mz/rEf/irK1j+n0tevHKNK/9X+QWgdgIECBAgQKByAqvXrguz5z5cubo3K3hNvE340W9729tcG6yCrwQDgAo2vVFy/KzPA/Ef/vvjNQEqeVPUWLd3/yv62lc2AQIECBAgUG2BW++6JzR+F6zoI5aeHRNv+TerovVXvmwDgAq/BOI//B/GMwHOriLBktVrw7oNG6tYupoJECBAgAABApUWWLFqVZj72LxKGsQzgL8YjwG+X8niFb1JwACg4i+EeCZAVyT4XtUYHl7syv9V67l6CRAgQIAAAQJ/Erj5zruqeBbAv8ff/Sv55p9X/l8EDAAq/mqIU8Bs7NixH4oMd1eFYtmadWFNb19VylUnAQIECBAgQIDAZgJLl68Ijy1cVCWX+3p7ez/Q+N2/SkWr9akCBgBPNancdw444IA18aMA74iFr6xC8d79r0KX1UiAAAECBAgQ2LbArXdV5v2vFVHibUcddVSlLwC+7VdDdZ41AKhOr7dZ6eMXBXxP3GhwmxsW/MmV63pD48uDAAECBAgQIECg2gLzFy0OC5csLTVC44Lf8V3/f4x3AZtd6kIVN2QBA4AhU5V/w8MOO+zn8QfEGWWudO7iZWUuT20ECBAgQIAAAQLDECj7WQDxd/tPHXzwwf81DBKbllygVvL6lDdMgTglrF1zzTXfibu9d5i7Jr/5mt4N4eYHHgk++JR8qyRIgMAoBXbb+ZnhWbvuHHbfeeew2y7PDI2/7zBhfBg3ZkyYsOnPsfHiV/XQt3FjWLtufejr2xDWre8NCxYtCvPjZ2Ibfz42f0FYuHjxKDOxOwECBNIXePdRbwq777pL+okOP8Pvx4P/d/vc//DhyrzHmDIXp7bhCzR+QFx//fUf6uvre3Hc+7XDj5DuHnPjlf8d/KfbH5kRIDBygV2e+YzwouftHV703L3DPvFrp6c9bQjBOsKYOBDY8QnbvvwljR/9f3k0bpV1932zHv+6Lywq+amyQ0CzCQECJRS47e57wsQD31C2ym5fu3bt+x38l62to6/HGQCjNyxlhF/+8pcviBcGvCkW96wyFNi7sT/8/r6HDADK0Ew1ECCwSWCH8ePDvi9+UXjNy18cnrfXnqEV/0NvnBXwmxtuCNf87vqwas0anSBAgEApBOJBcnjf298anrHTTqWoJxaxLP4ev1+8xtdDZSlIHc0TaMXvC83LVqSWCsQhwKHxh8fP4qKFP1PkgfmLw6NLK3GTg5a+RixGgEDrBZ6317PDAX/z6vCSfZ4fOjvacymfgYGBcOsdd4b/+OnPwwNz5rQewYoECBBossCrX/6ysP9r/7rJUdsSbiAONI6Ip/7/ui2rWzR5AQOA5FvU3gR//etfnxozmNTeLEa3+sBgPVx/75wwUK+PLpC9CRAg0EaBF+y9Zzjgta8JL40H/ik9Zs1+MPzwv34abvnjHSmlJRcCBAgMS2Ds2DHhA3//jtD4s8iPePB/cjz4v6DINcg9XwEDgHx9SxE9DgEuiYUcX9RiHl26Ijwwf0lR05c3AQIVF9hjt13DWw9+Q3jhc/ZKWqJxrYDp37ly08UDPQgQIFBEgQP2e2145UtfUsTUN+UcD/6nx4P/fylsARJviUB7zh1sSWkWaZbA05/+9JNirF82K14r4zQu+ufU/1aKW4sAgWYJjI0X6Dvk/3ttOOG9f5/8wX+j5n1f9tLwf7q+ED74D++JdxyY0CwGcQgQINAygTvunRXvkFLYS0Zfu3jx4hNahmWhwgo4A6CwrWtt4j/96U93nTBhwg3xh2KhxqJLVq0Ndz48v7VYViNAgMAoBRpX8n/nEYfEC1LtOMpI7dl96fLl4cKp08O99z/QngSsSoAAgREKvPngN4YXPvc5I9y7bbvNind1ef2BBx64om0ZWLgwAgYAhWlV+xO9+uqrX9TZ2XljzGT39mcztAxumf1oWBXvbe1BgACBIgg0/qfc+Jz/YfvvFzriVamL/KjH665c9eOfhO//+D9D4789CBAgUASBvZ+9R3j7xMOKkOqfcmxc8f/18Yr/Jq5F6lobcy32bxdthKvq0tdcc82Bsfar45kA41I3WNPbF2564OHU05QfAQIENgnsuMOE8O43HRZe9LzCvfO0zQ7ecc+94fzuqWHN2rXb3M6TBAgQSEXgnW8+Iuyx226ppLOtPPrj5/6PdMX/bRF5bnMB1wDYXMTftykQf8D8Nm7wkW1ulMiTjyxZnkgm0iBAgMC2BXZ+xtPDh9/99tId/DeqftUrXh6+/LnPhD332GPbCJ4lQIBAIgJ3zro/kUy2nUY8+P+og/9tG3n2qQIGAE818Z3tCMQfNJfGTb6xnc3a+vTGgcGweNWatuZgcQIECAxFYI/ddgkfftffht12fuZQNi/kNs9+1u7hS5/6RHjh855XyPwlTYBAtQRmz30krEv8I6TxbNyvxt/Jp1SrM6pthkBnM4KIUT2BffbZ55cvfOELXx0rf1mK1T+8eHlYuc5n/1PsjZwIEPiLwHP33CMc8/dvCzs+bYfSs0yYMD7s/79eFxq3C1y+cmXp61UgAQLFFWjcCWDMmM7wnD2fnWQR8Z3/q6699toT4kdzC3vLgiRhK5KUawBUpNF5lHn99dfv0NfXd23ztqFbAAAgAElEQVSMvV8e8Ucasx5/aF93z5zQPzg40hD2I0CAQO4CjXf8P/zuv42f/S//wf8TMdesXRe++LWvh3kLFuRubAECBAiMVGD8uHHh/e/8uzCmM633S+PB/63x9+83HnnkketGWpv9qi3gIwDV7v+oqt9///17+/v7/y4GeWxUgZq884Llqxz8N9lUOAIEmivQuL3fB97xlsod/DcUnx5r/9zpp4Tdd921uaiiESBAoIkCfRs3hvvnPNTEiKMPFQ/+58ezE97u4H/0llWOYABQ5e43ofYjjjhifgzzjviVzBTysWWrmlCZEAQIEMhHoPGu0gf+7qiw89N3ymeBAkTdbZddwqdPPSnsMGFCAbKVIgECVRW4c1ZSd9ZbGwcAbz3kkEOSeuOtqq+NItdtAFDk7iWSe/xBdHOcRr4npjPQ7pQan/tft6Gv3WlYnwABAlsVeNshB4Rn7brLVp+vyhPP23vvcPwH/rkq5aqTAIECCjSuV7JwydIUMh+Mv2v/40EHHXRbCsnIodgCBgDF7l8y2R966KH/GaeSJ7Y7ofnx9H8PAgQIpCqw3ytfEV710v+Ranotz+v1+70uHHrgAS1f14IECBAYqsA9D8we6qa5bRcP/k+Ov2v/R24LCFwpAQOASrU732IfvxXJOfmusvXojYv+LV7p1n9bF/IMAQLtFHj27ruGN7/x9e1MIcm1j/mH94bnPWfvJHOTFAECBB585JHQuB5AGx9nx4P/i9q4vqVLJmAAULKGtrucOAT4bDwT4PJ25LFg+erQuAOABwECBFITiD8Xw9sPfWNyV5NOwWncuLHhhGM+EBpGHgQIEEhNYGBgMMx6sD0XA4zv/F8Zf7f+Qmom8im2gAFAsfuXXPbxF7hsp512+nBM7OpWJtc47J+3zH2lW2luLQIEhi6w3ytfHp675x5D36FiW/7VC1/oowAV67lyCRRJoPExgHgw3uqUr9mwYcMxjd+tW72w9cotYABQ7v62pbrXve51/b29ve+Mi/+xVQmsXLs+9G7sb9Vy1iFAgMCQBXbcYYdw2Ov3G/L2Vd3wfe98R3jG059e1fLVTYBAwgIrVq8OCxYvaWWGd8fF3nHUUUe5snUr1SuylgFARRrd6jLjD6zV9Xr9LXHdR1ux9jwX/2sFszUIEBiBwGGvf13YYfz4EexZrV122nHH8O6/fWu1ilYtAQKFEbi7RRcDjO/4zx8YGDgq3mXLqa2FeXUUK1EDgGL1q1DZHnbYYfNiwkfFr1x/gG2Mn81aumptoWwkS4BANQSesdOO4a9f/tJqFNuEKg+JdwTYdZedmxBJCAIECDRXYM4jj4bevnzfkI8H/4030I6aOHHiI83NXjQCfxEwAPBqyFUgTi/vij/Mjo6L5HZ+/oL47r+L/+XaRsEJEBihwAGvfXXo7PS/2qHyjR0zJrxl4sShbm47AgQItEwgHpiH+2bPyW29+PvyxrjG38cr/rfsI7S5FSNw0gJ+K0m6PeVILl699Bfxh9oH4sVT6s2uqHFBlvlO/282q3gECDRBoPHZ/9fu+7ImRKpWiIkHv9G1AKrVctUSKIzAPQ88kNfFALN48H9sPPj/ZWEwJFpYAQOAwrauWInHIcCVMeOTmp31chf/azapeAQINEngtf/zZaHxjrbH8ATGjxsXDj3gDcPbydYECBBogcDqtevCvIWLmr5SfKPs4/Hg//KmBxaQwBYEDAC2gOJb+QjEH2wXxcjnNDP6vGWrmhlOLAIECDRN4DUve3HTYlUt0IGv/99VK1m9BAgUROCu+x9odqZnxzfKJjU7qHgEtiZgALA1Gd/PRSD+gPtsDDytGcH7+gfCsjXrmhFKDAIECDRV4Ll77hF2dzG7EZs+d++9wj4veP6I97cjAQIE8hJ4+LF5YX1vb1PCx3f+L4+/G3+hKcEEITBEAQOAIULZrDkC8QddtmTJkuPjn1eNNuLCFavz+hzWaFOzPwECFRd4tXf/R/0KeOP/dhbAqBEFIECg6QKNC0/PmjN31HHj78L/Ea9l9S+N341HHUwAAsMQMAAYBpZNmyNw9NFHD44bN+6fYrTfjibigjgA8CBAgECKAi/b5wUpplWonPb7m9cUKl/JEiBQHYFZcx4abbHXxoP/98S7ZQ2MNpD9CQxXwABguGK2b4rA/vvv3zswMPC2GOz2kQRcvX5DWN+3cSS72ocAAQK5Cuy28zPDM5++U65rVCH4s3bbLeyx++5VKFWNBAgUTGDFqlVhybLlI836zjFjxrwjHvxvGGkA+xEYjYABwGj07DsqgYkTJ67q7+9/Swwy7DHqghUu/jcqfDsTIJCbwD7P3Tu32FUL/D9f/tKqlaxeAgQKIjDCswBmx/KOOPDAA1cUpExpllDAAKCETS1SSUccccT8wcHBw+Pnn+YPNe/40auweNXaoW5uOwIECLRUwACgedz7vtQAoHmaIhEg0EyB+x+aGwbr9eGEnNfR0XFEfOd/4XB2si2BZgsYADRbVLxhCxx++OFz6vX6EXHHZUPZeenqtaF/YHAom9qGAAECLRd4zrOf1fI1y7rgX+2zT1lLUxcBAgUX6Nu4MTTuCDDEx9L4htcRBx100LDPeh1ifJsRGLKAAcCQqWyYp8Chhx56dzwL4M1xjTXbW8fp/9sT8jwBAu0SGNPZGXZ+xtPbtXzp1t3jWbuH+FnZ0tWlIAIEyiHQOAtge4/4+23jqtVvjm943bO9bT1PoBUCBgCtULbGkATifVBvildEbQwB1m1th43xnf/la9Zv7WnfJ0CAQFsFdt35GaGjVmtrDmVavLOjIzzbhQDL1FK1ECiVwMPz5ofeDdu8ll9vPMv1b+Np/zeXqnDFFFrAAKDQ7Stf8vFMgOtiVe+NX/1bqm7RyjWhcf9VDwIECKQosPvOO6eYVqFz2mvPZxc6f8kTIFBegXhwH2bPfWRrBfbHN7beFX+3vXZrG/g+gXYIGAC0Q92a2xSIU9Ifxx+YjSHAU+6N6vT/bdJ5kgCBNgs4/b/5DWh8DMCDAAECqQps5W4AjYtVvT8e/P8k1bzlVV0BA4Dq9j7pyuMPzKviEOAfY5J/vtrfug0bw9revqTzlhwBAtUWGD9ubLUBcqj+aRN2yCGqkAQIEGiOwJLly8OyFSv/HCz+/tq4NcAH4xta323OCqIQaK6AAUBzPUVrokAcAsyM4T78+A/SsHBF4xoqHgQIEEhXwACg+b2ZMGF884OKSIAAgSYKPOFigI3PqZ4QD/7/rYnhhSLQVAEDgKZyCtZsgfgD9LJ49dTjYtwsnv7/lI8ENHs98QgQIDAagfFjx41md/tuQWCHCRO28F3fIkCAQDoCsx6aOxDfsGo8PhbfwOpOJzOZEHiqgAHAU018JzGBOASYNmfx8q/GOwC4F1RivZEOAQJPFhg71o+pZr8mJhgANJtUPAIEmizQ29s75ua77vpqPPi/qMmhhSPQdAEDgKaTCpiHwMMLltyRR1wxCRAg0EyBwcE/X7akmWErHau/f4s3ham0ieIJEEhP4KY77va7anptkdEWBAwAtoDiWwQIECBAYCQCfQ5WR8K2zX16e7d5j+1t7utJAgQIECBA4MkCBgBeEQQIECBAoEkCfRu9W90kyj+H6e0zAGi2qXgECBAgUF0BA4Dq9l7lBAgQINBkgY3OAGiyaAgbNhgANB1VQAIECBCorIABQGVbr3ACBAgQaLbAmnXrmx2y8vGWr1xVeQMABAgQIECgWQIGAM2SFIcAAQIEKi+wdMXKyhs0G2D+woXNDikeAQIECBCorIABQGVbr3ACBAgQaLaAAUCzRUNYuGhx84OKSIAAAQIEKipgAFDRxiubAAECBJovsKFvY1jX29v8wBWNuGLVqrCeZ0W7r2wCBAgQyEPAACAPVTEJECBAoLICC5csq2ztzS78kccea3ZI8QgQIECAQKUFDAAq3X7FEyBAgECzBebOW9DskJWNd/d9sypbu8IJECBAgEAeAgYAeaiKSYAAAQKVFZjz2PzK1t7swu+61wCg2abiESBAgEC1BQwAqt1/1RMgQIBAkwXmLVoS+jZubHLU6oVrfPb/oUceqV7hKiZAgAABAjkKGADkiCs0AQIECFRPoF6vhzmPOgtgtJ2/4557Q8PSgwABAgQIEGiegAFA8yxFIkCAAAECmwTumDWbxCgFfnvD70cZwe4ECBAgQIDA5gIGAJuL+DsBAgQIEBilwH0PzQ3rN2wYZZTq7r523brwx7vuri6AygkQIECAQE4CBgA5wQpLgAABAtUVGBysh7sfmFNdgFFWft0fbgr9AwOjjGJ3AgQIECBAYHMBA4DNRfydAAECBAg0QeDmu+9rQpTqhciyLPzqN7+rXuEqJkCAAAECLRAwAGgBsiUIECBAoHoCCxYvDQ88/Gj1Ch9lxbfdeWeY+yi3UTLanQABAgQIbFHAAGCLLL5JgAABAgRGL3DNH24dfZCKRfj3n/y0YhUrlwABAgQItE7AAKB11lYiQIAAgYoJPLpgUZg7b0HFqh55uXfde1+YNfvBkQewJwECBAgQILBNAQOAbfJ4kgABAgQIjE7gZ7/9fWh8rt1j2wINoyuv+sG2N/IsAQIECBAgMCoBA4BR8dmZAAECBAhsW2De4iXhFhcE3DZSfPYX11wbZsfbJ3oQIECAAAEC+QkYAORnKzIBAgQIENgk8Ivr/xDW9W6gsRWBVWvWhO/+4Idbeda3CRAgQIAAgWYJGAA0S1IcAgQIECCwFYHeDX3hZ7/7/Vae9e3LZ/SEdevXgyBAgAABAgRyFjAAyBlYeAIECBAg0BC4/d77N315PFngmuuuD7/7/Y1YCBAgQIAAgRYIGAC0ANkSBAgQIECgIfDja34XlixfCeNxgQWLFoXLrpzBgwABAgQIEGiRgAFAi6AtQ4AAAQIENvYPhJk/vTr0DwxUHqOvry/834suCb0bXBuh8i8GAAQIECDQMgEDgJZRW4gAAQIECISwaOnyMOMnV4d6vV5ZjsHBwTDpku7w6Lz5lTVQOAECBAgQaIeAAUA71K1JgAABApUWuH/uI+EHV18bsgoqZFkWui//t3DbnXdVsHolEyBAgACB9goYALTX3+oECBAgUFGBP973QPjF76p38btvf++q0LjwnwcBAgQIECDQegEDgNabW5EAAQIECGwS+N2tfwz/ee11ofGueNkfjRqvmPm98KOf/bzspaqPAAECBAgkKzAm2cwkRoAAAQIEKiBw4x/vDmvWrg/vetOhYUxnZykrHogXPfzm9MvC9X+4qZT1KYoAAQIECBRFwBkARemUPAkQIECgtAL3PPhQ+PaPfhZ645Xxy/ZYu25dOOf8Cx38l62x6iFAgACBQgoYABSybZImQIAAgbIJPPjIY+Gi73w/PLJgUWlKe3Du3PCZs74S7rzn3tLUpBACBAgQIFBkAQOAIndP7gQIECBQKoFVa9aG6d//Ufj1jbcU+roAjc/7/9cvfxW+cM7Xw+KlS0vVI8UQIECAAIEiC7gGQJG7J3cCBAgQKJ1AvV7fNAB46LH54a0HvyHssduuhapx/sJFYfp3rvSuf6G6JlkCBAgQqIqAAUBVOq1OAgQIECiUwNx5C8JFV14V/r9XvSIc+r/3C+PHjU06/76NG8OPfvrz8IOf/FdoXPTPgwABAgQIEEhPwAAgvZ7IiAABAgQIbBJonA1ww+13hbtnPxQOeO2rw2v3fVkYOyat/3U3Dvx/+Zvfhv+IB/8rVq7UOQIECBAgQCBhgbR+i0gYSmoECBAgQKBdAqvXrgs/ufb68Jubbgv7//Wrwn6vfEXbzwjo3bAh/OzX14Sf/PzqsGrNmnbRWJcAAQIECBAYhoABwDCwbEqAAAECBNopsHZ9b/j5dTduukbAS/Z5fnjNy14SXvyC54aOjtZc07dxcb/7H5wTfnP9DeG6P9wUGkMADwIECBAgQKA4AgYAxemVTAkQIECAwCaB/vgZ+7sfmLPp6xk77Rj2/R8vCi963nPCC5+zZzwzYFxTlXp7N4R77r8/3HXvfeH3t9wSlq9wmn9TgQUjQIAAAQItFDAAaCG2pQgQIECAQLMFGh8PuOH2Ozd9Nc4EeM4eu4cX7L1X2H3XncPuuzwz7L7zzuFpO0wY0rJr1q4Njav4z1uwMP65MNz7wANhztyHN12LwIMAAQIECBAovoABQPF7qAICBAgQILBJoHGg/ujCxZu+nvjYYfz4MGFC/Bo/LowfOzaMi1/z5s7edAr/hr6+sH79+rB23fqwLv7pQYAAAQIECJRXwACgvL1VGQECBAgQ2CTQGw/yG19PfMy64046BAgQIECAQMUEWnPVoIqhKpcAAQIECBAgQIAAAQIECKQmYACQWkfkQ4AAAQIECBAgQIAAAQIEchAwAMgBVUgCBAgQIECAAAECBAgQIJCagAFAah2RDwECBAgQIECAAAECBAgQyEHAACAHVCEJECBAgAABAgQIECBAgEBqAgYAqXVEPgQIECBAgAABAgQIECBAIAcBA4AcUIUkQIAAAQIECBAgQIAAAQKpCRgApNYR+RAgQIAAAQIECBAgQIAAgRwEDAByQBWSAAECBAgQIECAAAECBAikJmAAkFpH5EOAAAECBAgQIECAAAECBHIQMADIAVVIAgQIECBAgAABAgQIECCQmoABQGodkQ8BAgQIECBAgAABAgQIEMhBwAAgB1QhCRAgQIAAAQIECBAgQIBAagIGAKl1RD4ECBAgQIAAAQIECBAgQCAHAQOAHFCFJECAAAECBAgQIECAAAECqQkYAKTWEfkQIECAAAECBAgQIECAAIEcBAwAckAVkgABAgQIECBAgAABAgQIpCZgAJBaR+RDgAABAgQIECBAgAABAgRyEDAAyAFVSAIECBAgQIAAAQIECBAgkJqAAUBqHZEPAQIECBAgQIAAAQIECBDIQcAAIAdUIQkQIECAAAECBAgQIECAQGoCBgCpdUQ+BAgQIECAAAECBAgQIEAgBwEDgBxQhSRAgAABAgQIECBAgAABAqkJGACk1hH5ECBAgAABAgQIECBAgACBHAQMAHJAFZIAAQIECBAgQIAAAQIECKQmYACQWkfkQ4AAAQIECBAgQIAAAQIEchAwAMgBVUgCBAgQIECAAAECBAgQIJCagAFAah2RDwECBAgQIECAAAECBAgQyEHAACAHVCEJECBAgAABAgQIECBAgEBqAgYAqXVEPgQIECBAgAABAgQIECBAIAcBA4AcUIUkQIAAAQIECBAgQIAAAQKpCRgApNYR+RAgQIAAAQIECBAgQIAAgRwEDAByQBWSAAECBAgQIECAAAECBAikJmAAkFpH5EOAAAECBAgQIECAAAECBHIQMADIAVVIAgQIECBAgAABAgQIECCQmoABQGodkQ8BAgQIECBAgAABAgQIEMhBwAAgB1QhCRAgQIAAAQIECBAgQIBAagIGAKl1RD4ECBAgQIAAAQIECBAgQCAHAQOAHFCFJECAAAECBAgQIECAAAECqQkYAKTWEfkQIECAAAECBAgQIECAAIEcBAwAckAVkgABAgQIECBAgAABAgQIpCZgAJBaR+RDgAABAgQIECBAgAABAgRyEDAAyAFVSAIECBAgQIAAAQIECBAgkJqAAUBqHZEPAQIECBAgQIAAAQIECBDIQcAAIAdUIQkQIECAAAECBAgQIECAQGoCBgCpdUQ+BAgQIECAAAECBAgQIEAgBwEDgBxQhSRAgAABAgQIECBAgAABAqkJGACk1hH5ECBAgAABAgQIECBAgACBHAQMAHJAFZIAAQIECBAgQIAAAQIECKQmYACQWkfkQ4AAAQIECBAgQIAAAQIEchAwAMgBVUgCBAgQIECAAAECBAgQIJCagAFAah2RDwECBAgQIECAAAECBAgQyEHAACAHVCEJECBAgAABAgQIECBAgEBqAgYAqXVEPgQIECBAgAABAgQIECBAIAcBA4AcUIUkQIAAAQIECBAgQIAAAQKpCRgApNYR+RAgQIAAAQIECBAgQIAAgRwEDAByQBWSAAECBAgQIECAAAECBAikJmAAkFpH5EOAAAECBAgQIECAAAECBHIQMADIAVVIAgQIECBAgAABAgQIECCQmoABQGodkQ8BAgQIECBAgAABAgQIEMhBwAAgB1QhCRAgQIAAAQIECBAgQIBAagIGAKl1RD4ECBAgQIAAAQIECBAgQCAHAQOAHFCFJECAAAECBAgQIECAAAECqQkYAKTWEfkQIECAAAECBAgQIECAAIEcBAwAckAVkgABAgQIECBAgAABAgQIpCZgAJBaR+RDgAABAgQIECBAgAABAgRyEDAAyAFVSAIECBAgQIAAAQIECBAgkJqAAUBqHZEPAQIECBAgQIAAAQIECBDIQcAAIAdUIQkQIECAAAECBAgQIECAQGoCBgCpdUQ+BAgQIECAAAECBAgQIEAgBwEDgBxQhSRAgAABAgQIECBAgAABAqkJGACk1hH5ECBAgAABAgQIECBAgACBHAQMAHJAFZIAAQIECBAgQIAAAQIECKQmYACQWkfkQ4AAAQIECBAgQIAAAQIEchAwAMgBVUgCBAgQIECAAAECBAgQIJCagAFAah2RDwECBAgQIECAAAECBAgQyEHAACAHVCEJECBAgAABAgQIECBAgEBqAgYAqXVEPgQIECBAgAABAgQIECBAIAcBA4AcUIUkQIAAAQIECBAgQIAAAQKpCRgApNYR+RAgQIAAAQIECBAgQIAAgRwEDAByQBWSAAECBAgQIECAAAECBAikJmAAkFpH5EOAAAECBAgQIECAAAECBHIQMADIAVVIAgQIECBAgAABAgQIECCQmoABQGodkQ8BAgQIECBAgAABAgQIEMhBwAAgB1QhCRAgQIAAAQIECBAgQIBAagIGAKl1RD4ECBAgQIAAAQIECBAgQCAHAQOAHFCFJECAAAECBAgQIECAAAECqQkYAKTWEfkQIECAAAECBAgQIECAAIEcBAwAckAVkgABAgQIECBAgAABAgQIpCZgAJBaR+RDgAABAgQIECBAgAABAgRyEDAAyAFVSAIECBAgQIAAAQIECBAgkJqAAUBqHZEPAQIECBAgQIAAAQIECBDIQcAAIAdUIQkQIECAAAECBAgQIECAQGoCBgCpdUQ+BAgQIECAAAECBAgQIEAgBwEDgBxQhSRAgAABAgQIECBAgAABAqkJGACk1hH5ECBAgAABAgQIECBAgACBHAQMAHJAFZIAAQIECBAgQIAAAQIECKQmYACQWkfkQ4AAAQIECBAgQIAAAQIEchAwAMgBVUgCBAgQIECAAAECBAgQIJCagAFAah2RDwECBAgQIECAAAECBAgQyEHAACAHVCEJECBAgAABAgQIECBAgEBqAgYAqXVEPgQIECBAgAABAgQIECBAIAcBA4AcUIUkQIAAAQIECBAgQIAAAQKpCRgApNYR+RAgQIAAAQIECBAgQIAAgRwEDAByQBWSAAECBAgQIECAAAECBAikJmAAkFpH5EOAAAECBAgQIECAAAECBHIQMADIAVVIAgQIECBAgAABAgQIECCQmoABQGodkQ8BAgQIECBAgAABAgQIEMhBwAAgB1QhCRAgQIAAAQIECBAgQIBAagIGAKl1RD4ECBAgQIAAAQIECBAgQCAHAQOAHFCFJECAAAECBAgQIECAAAECqQkYAKTWEfkQIECAAAECBAgQIECAAIEcBAwAckAVkgABAgQIECBAgAABAgQIpCZgAJBaR+RDgAABAgQIECBAgAABAgRyEDAAyAFVSAIECBAgQIAAAQIECBAgkJqAAUBqHZEPAQIECBAgQIAAAQIECBDIQcAAIAdUIQkQIECAAAECBAgQIECAQGoCBgCpdUQ+BAgQIECAAAECBAgQIEAgBwEDgBxQhSRAgAABAgQIECBAgAABAqkJGACk1hH5ECBAgAABAgQIECBAgACBHAQMAHJAFZIAAQIECBAgQIAAAQIECKQmYACQWkfkQ4AAAQIECBAgQIAAAQIEchAwAMgBVUgCBAgQIECAAAECBAgQIJCagAFAah2RDwECBAgQIECAAAECBAgQyEHAACAHVCEJECBAgAABAgQIECBAgEBqAgYAqXVEPgQIECBAgAABAgQIECBAIAcBA4AcUIUkQIAAAQIECBAgQIAAAQKpCRgApNYR+RAgQIAAAQIECBAgQIAAgRwEDAByQBWSAAECBAgQIECAAAECBAikJmAAkFpH5EOAAAECBAgQIECAAAECBHIQMADIAVVIAgQIECBAgAABAgQIECCQmoABQGodkQ8BAgQIECBAgAABAgQIEMhBwAAgB1QhCRAgQIAAAQIECBAgQIBAagIGAKl1RD4ECBAgQIAAAQIECBAgQCAHAQOAHFCFJECAAAECBAgQIECAAAECqQkYAKTWEfkQIECAAAECBAgQIECAAIEcBAwAckAVkgABAgQIECBAgAABAgQIpCZgAJBaR+RDgAABAgQIECBAgAABAgRyEDAAyAFVSAIECBAgQIAAAQIECBAgkJqAAUBqHZEPAQIECBAgQIAAAQIECBDIQcAAIAdUIQkQIECAAAECBAgQIECAQGoCBgCpdUQ+BAgQIECAAAECBAgQIEAgBwEDgBxQhSRAgAABAgQIECBAgAABAqkJGACk1hH5ECBAgAABAgQIECBAgACBHAQMAHJAFZIAAQIECBAgQIAAAQIECKQmYACQWkfkQ4AAAQIECBAgQIAAAQIEchAwAMgBVUgCBAgQIECAAAECBAgQIJCagAFAah2RDwECBAgQIECAAAECBAgQyEHAACAHVCEJECBAgAABAgQIECBAgEBqAgYAqXVEPgQIECBAgAABAgQIECBAIAcBA4AcUIUkQIAAAQIECBAgQIAAAQKpCRgApNYR+RAgQIAAAQIECBAgQIAAgRwEDAByQBWSAAECBAgQIECAAAECBAikJmAAkFpH5EOAAAECBIxKkTcAACAASURBVAgQIECAAAECBHIQMADIAVVIAgQIECBAgAABAgQIECCQmoABQGodkQ8BAgQIECBAgAABAgQIEMhBwAAgB1QhCRAgQIAAAQIECBAgQIBAagIGAKl1RD4ECBAgQIAAAQIECBAgQCAHAQOAHFCFJECAAAECBAgQIECAAAECqQkYAKTWEfkQIECAAAECBAgQIECAAIEcBAwAckAVkgABAgQIECBAgAABAgQIpCZgAJBaR+RDgAABAgQIECBAgAABAgRyEDAAyAFVSAIECBAgQIAAAQIECBAgkJqAAUBqHZEPAQIECBAgQIAAAQIECBDIQcAAIAdUIQkQIECAAAECBAgQIECAQGoCBgCpdUQ+BAgQIECAAAECBAgQIEAgBwEDgBxQhSRAgAABAgQIECBAgAABAqkJGACk1hH5ECBAgAABAgQIECBAgACBHAQMAHJAFZIAAQIECBAgQIAAAQIECKQmYACQWkfkQ4AAAQIECBAgQIAAAQIEchAwAMgBVUgCBAgQIECAAAECBAgQIJCagAFAah2RDwECBAgQIECAAAECBAgQyEHAACAHVCEJECBAgAABAgQIECBAgEBqAgYAqXVEPgQIECBAgAABAgQIECBAIAcBA4AcUIUkQIAAAQIECBAgQIAAAQKpCRgApNYR+RAgQIAAAQIECBAgQIAAgRwEDAByQBWSAAECBAgQIECAAAECBAikJmAAkFpH5EOAAAECBAgQIECAAAECBHIQMADIAVVIAgQIECBAgAABAgQIECCQmoABQGodkQ8BAgQIECBAgAABAgQIEMhBwAAgB1QhCRAgQIAAAQIECBAgQIBAagIGAKl1RD4ECBAgQIAAAQIECBAgQCAHAQOAHFCFJECAAAECBAgQIECAAAECqQkYAKTWEfkQIECAAAECBAgQIECAAIEcBAwAckAVkgABAgQIECBAgAABAgQIpCZgAJBaR+RDgAABAgQIECBAgAABAgRyEDAAyAFVSAIECBAgQIAAAQIECBAgkJqAAUBqHZEPAQIECBAgQIAAAQIECBDIQcAAIAdUIQkQIECAAAECBAgQIECAQGoCBgCpdUQ+BAgQIECAAAECBAgQIEAgBwEDgBxQhSRAgAABAgQIECBAgAABAqkJGACk1hH5ECBAgAABAgQIECBAgACBHAQMAHJAFZIAAQIECBAgQIAAAQIECKQmYACQWkfkQ4AAAQIECBAgQIAAAQIEchAwAMgBVUgCBAgQIECAAAECBAgQIJCagAFAah2RDwECBAgQIECAAAECBAgQyEHAACAHVCEJECBAgAABAgQIECBAgEBqAgYAqXVEPgQIECBAgAABAgQIECBAIAcBA4AcUIUkQIAAAQIECBAgQIAAAQKpCRgApNYR+RAgQIAAAQIECBAgQIAAgRwEDAByQBWSAAECBAgQIECAAAECBAikJmAAkFpH5EOAAAECBAgQIECAAAECBHIQMADIAVVIAgQIECBAgAABAgQIECCQmoABQGodkQ8BAgQIECBAgAABAgQIEMhBwAAgB1QhCRAgQIAAAQIECBAgQIBAagIGAKl1RD4ECBAgQIAAAQIECBAgQCAHAQOAHFCFJECAAAECBAgQIECAAAECqQkYAKTWEfkQIECAAAECBAgQIECAAIEcBAwAckAVkgABAgQIECBAgAABAgQIpCZgAJBaR+RDgAABAgQIECBAgAABAgRyEDAAyAFVSAIECBAgQIAAAQIECBAgkJqAAUBqHZHPFgWyjo6F8Ym1W3zSNwkQIECAAAECBAi0T2BtGKw3flf1IJC8gAFA8i2SYEPgrJOPu7Zvw5i9438eH7/upEKAAAECBAgQIECgzQL3h1D7dBYGX9Bz6ZRr25yL5QkMSaA2pK1sRCAxgTPOm/LaLNRPiS/g98bUxiaWnnQIECCQvMCsO25JPkcJEiBAIEGBwSyr/Vct1M+bOX3KL2N+WYI5SonAVgUMALZK44kiCHR985t7Dgx2fqCW1U6M+T6/CDnLkQABAikIGACk0AU5ECBQIIF4in/2rayzdlFPd/cjBcpbqgSeJGAA4AVRCoGurq6O+q57viVOZE+OBR0Wv7y2S9FZRRAgkJeAAUBesuISIFAygVviG03nP3NMdmV3d3d/yWpTTgUFHCRVsOllL7nrwu6X1AfCh7Jadmysddey16s+AgQIjETAAGAkavYhQKAiAqtrWfhuvR4u7Lms27WnKtL0qpRpAFCVTlewzq5LL50wuKrv6KxWOy2+0F9TQQIlEyBAYKsCBgBbpfEEAQIVFYgH/ffVa9klYfzYaT0XXeTuUxV9HZS9bAOAsndYfZsEGhcNDKF+XPzPf45fO2AhQIBA1QUMAKr+ClA/AQKPC2yMf/4wZFl3vKjf1VQIlF3AAKDsHVbfkwS6Lr54j4H+2jHxs1wfi088Fw8BAgSqKmAAUNXOq5sAgccFFsWL+l2W9Xde0HP5JfOoEKiKgAFAVTqtzicJdHXNHFffecXb46UCT433btkfDwECBKomYABQtY6rlwCBTQK1cGv83W/yjgMbL7/ssss2UCFQNQEDgKp1XL1PEWh8PCAL9VPiP4b3xifHPmUD3yBAgEAJBQwASthUJREgsDWBerxT1E9qoX6e0/y3RuT7VREwAKhKp9W5XYGub35zz/rAmI/EqfBH48a7b3cHGxAgQKDAAgYABW6e1AkQGKrAqpCFb2Vjwv/t6e5+ZKg72Y5AmQUMAMrcXbWNSOCk888fv3N93Hvi3QM+Hv+BvGpEQexEgACBxAUMABJvkPQIEBiNwKwsZBdv6KxN+VF39/rRBLIvgbIJGACUraPqaarA586dfEBHRzg5To/fEQOPaWpwwQgQINBGAQOANuJbmgCBPATq8fP9vwpZ7fyZ0yb/OC4QT+r0IEBgcwEDgM1F/J3AFgQ+f8GUfToGs+OzWnZsfHrXLWziWwQIECiUgAFAodolWQIEti6wOh7qX5Z11M/tmTr1oa1v5hkCBBoCBgBeBwSGIRCvE7DT4MCY98V/OY2zAvYdxq42JUCAQFICBgBJtUMyBAgMX2B2PM3/wjB+7LSeiy5aO/zd7UGgmgIGANXsu6pHKxAvJfv58ycfWQsdp8czzCaONpz9CRAg0GoBA4BWi1uPAIEmCGTxvP5f1Dqy/zdzypSfx3hO828CqhDVEjAAqFa/VZuDQNe5U141WKs37hzw/vg1IYclhCRAgEDTBQwAmk4qIAEC+QlsjKF/GA/8vz5jypSb8ltGZALlFzAAKH+PVdgigc+eO+XZY2r1E+Io+qS4pOsEtMjdMgQIjEzAAGBkbvYiQKClAps+39+RjfnGdy+96NGWrmwxAiUVMAAoaWOV1T6BP18nIISPxyxe0r5MrEyAAIGtCxgAbN3GMwQItF1gbrxU2SVZZ3ZJT3f3qrZnIwECJRIwAChRM5WSlkBXV1dHfdc935KF2mfi9Pr1aWUnGwIEqi5gAFD1V4D6CSQoUAu31uq18xY9f6/vXNPVNZBghlIiUHgBA4DCt1ABRRA447wpr81C/ZT4D+59Md/OIuQsRwIEyi1gAFDu/qqOQIEE6vHayj+phfp5M6dPubpAeUuVQCEFDAAK2TZJF1Ug3jngr2r1eAvBWvhwrOFpRa1D3gQIFF/AAKD4PVQBgYIL9MUDkZmhVv/qjKlT7y14LdInUBgBA4DCtEqiZRLo+sbk3QfGZf9Sy2onx7r2LlNtaiFAoBgCBgDF6JMsCZRQYEl8I+Sizo5w4ZXd3UtLWJ+SCCQtYACQdHskV3aBk84/f/zO9XHvCR21T8brBOxb9nrVR4BAOgIGAOn0QiYEKiIwOwvZhWH1Tt09PZN6K1KzMgkkJ2AAkFxLJFRJgfjht89fMOWwWlY/JV719q2VNFA0AQItFTAAaCm3xQhUWCC7rhZq59VXr7iqp6dnsMIQSieQhIABQBJtkASBvwh0Tep+zUBHdnr8x/ne+N2xbAgQIJCHgAFAHqpiEiDwuMCmC/t1dAx+OX6+//dUCBBIR8AAIJ1eyITAkwQ+d+HUF3QODpwWbyPYuGDgjngIECDQTAEDgGZqikWAwOMCa+Pn+6dmHWFST3f3I1QIEEhPwAAgvZ7IiMCTBD41efIzx26ofbAWsk/HJ/bEQ4AAgWYIGAA0Q1EMAgQeF1gaD/y/2b9x7AU/uPyby6gQIJCugAFAur2RGYEnCWy6YGA2/gPxm5+LX8/HQ4AAgdEIGACMRs++BAg0BOKBxMP1kE2asHHD1CuuuGIdFQIE0hcwAEi/RzIk8CSB4yZPHvvs3uwf3DnAC4MAgdEIGACMRs++BCovcFe8lfHXnzkmi3fy6+6vvAYAAgUSMAAoULOkSuBJAvHqOl+4YPJbs3rHp0ItewMdAgQIDEfAAGA4WrYlQOC/BbLrQuj42sxpk38c/55RIUCgeAIGAMXrmYwJPEXgc+dOPqCjln0qnoz3lvikf9dPEfINAgQ2FzAA2FzE3wkQ2IpAFt9z+M9arXbOzGmXxAGABwECRRZwoFDk7smdwGYCZ1ww+ZVZPftUvN9u4xaCnYAIECCwNQEDgK3J+D4BAo8LDMQDhSvjO/7/Z8a0S+6iQoBAOQQMAMrRR1UQeJJA16SLXzhY6zgtngtwXHxiAh4CBAhsLmAAsLmIvxMg8LjAxniAMCN0ZGfPmDLlfioECJRLwACgXP1UDYEnCXz23CnPHhOy07JadlJ84ml4CBAg8CcBAwCvBQIENhPoq2XhW/0d9bOumjr1MToECJRTwACgnH1VFYEnCXzm/OnPGpv1fzRereeU+MTOeAgQIGAA4DVAgMDjAmvj5fymD4wJ51zV3b2ACgEC5RYwACh3f1VH4EkCn/zatKeP26H/xHjrnk/EJ3bDQ4BAdQUMAKrbe5UTeFxgWfyo4IVjxnae952LL15BhQCBaggYAFSjz6ok8CSBf/365TtOGLfhw7WQNQYBz8FDgED1BAwAqtdzFRPYJJCFxaEjXJx1hEk93d2rqBAgUC0BA4Bq9Vu1BJ4k0NU1c9zgzsvfGzpqZ8RfCP4HHgIEqiNgAFCdXquUQEMg/tL/cD1kk8Lqnbp7eib1UiFAoJoCBgDV7LuqCTxJ4LjJk8fu2Zu9P6vVPhufeBEeAgTKL2AAUP4eq5DA4wIP1mq1Lz+zI/u37u7ufioECFRbwACg2v1XPYEnCTQGAc/uzf4h1Gqfi0+8BA8BAuUVMAAob29VRuBxgblZLXx1yXP3nn5NV9cAFQIECDQEDAC8DggQeIpAV1dXR33nvd4Zf3E4Oz5pEPAUId8gUHwBA4Di91AFBLYi8FD8//c5Dvy3ouPbBCouYABQ8ReA8glsS+AJg4Cz4nYv3da2niNAoFgCBgDF6pdsCQxBwIH/EJBsQqDqAgYAVX8FqJ/AEAQMAoaAZBMCBRMwAChYw6RLYOsCDvy3buMZAgQ2EzAA8JIgQGDIAk8YBJwZd3rZkHe0IQECyQkYACTXEgkRGJZA/CV+Tr0WvuZU/2Gx2ZhA5QUMACr/EgBAYPgCBgHDN7MHgdQEDABS64h8CAxZ4N5aVjunvmb5t3t6egaHvJcNCRAgEAUMALwMCBAYscC7Z87sfPnCle/NsuyLMciLRxzIjgQItFzAAKDl5BYkMFqB++Nderpe8dy9ZsRBfH20wexPgEA1BQwAqtl3VRNoqsATzgj4agz8V00NLhgBArkIGADkwioogTwEHolX9f+yU/3zoBWTQPUEDACq13MVE8hN4LjJk8c+e0M4Ji7whfj1nNwWEpgAgVELGACMmlAAAvkKZGFxfMf//6152rhz/+uCC/ryXUx0AgSqImAAUJVOq5NACwW6umaOG9xlxQfjkl+KX3u2cGlLESAwRAEDgCFC2YxA6wWWxk/pfiNb/bTze3om9bZ+eSsSIFBmAQOAMndXbQTaLPCvX798xwnj138sXqzoUzGVXdqcjuUJEHiCgAGAlwOB5ATWhJBdNHbDhK98+9sXrE4uOwkRIFAKAQOAUrRREQTSFvjk16Y9fdwO/SfW6rXPxEuPPjPtbGVHoBoCBgDV6LMqCyGwNh74f3PjYP85/37ZZSsLkbEkCRAorIABQGFbJ3ECxRP4zIUX7jZ2YNwnslp2Usz+acWrQMYEyiNgAFCeXqqksALrQxamdnbUv3Ll1KmLCluFxAkQKJSAAUCh2iVZAuUQ+OykyXt1dobPxl98josVjStHVaogUCwBA4Bi9Uu2pRLYGGrZ5IGO2lev6u5eUKrKFEOAQPICBgDJt0iCBMor8MVzJz+/XgufixX+S/zqLG+lKiOQnoABQHo9kVHpBbJY4fdqneEzM7q7Hyx9tQokQCBJAQOAJNsiKQLVEjjj/3XvG8ZkX4xnBLy7WpWrlkD7BAwA2mdv5QoK1MLVtcHwqRmXdt9aweqVTIBAQgIGAAk1QyoEqi5wxgUXvyEMdn4tnhr5hqpbqJ9A3gIGAHkLi08gCmThpqyj/umeqVN/xYMAAQIpCBgApNAFORAg8BeBLKt94bzud2W18OX4zRejIUAgHwEDgHxcRSXwuMD98Zfsz8+Y1v29+PfGqf8eBAgQSEKgI4ksJEGAAIE/CdRq2ZmnHt+zaELYN37r+PjlAkleHQQIECBQFIElIdQ+na1e8cp48N8Tk3bwX5TOyZNARQScAVCRRiuTQFEFuiZPftpAX3ZSrV77TKiFZxa1DnkTSE3AGQCpdUQ+BRdYG4/1v7khG/zyf0yfvqbgtUifAIESCxgAlLi5SiNQJoHPXHjhbmMHxn0iq2WnxLomlKk2tRBoh4ABQDvUrVlCgY21LFzW0VH/wpVTpy4qYX1KIkCgZAIGACVrqHIIlF3g8xdM2Sdk9a/GX7iOjrX6GVb2hqsvNwEDgNxoBa6GQBay7LsDtfpnrpo27eFqlKxKAgTKIOCX5zJ0UQ0EKihwxrnd+8WyJ7ljQAWbr+SmCBgANIVRkCoKNK7sH8LpPdO7f1fF8tVMgECxBQwAit0/2ROotsBf7hjwtQixT7UxVE9geAIGAMPzsjWBKPBYLat9bsb0yVfE/3ZxPy8JAgQKKeAuAIVsm6QJENgk8PgdA9YOrts3Xhvg0/E7q8kQIECAAIEmC6yLHzj7UrZ6x5fEg//LY2wH/00GFo4AgdYJOAOgddZWIkAgZ4Gub0zefXBMOCP+ovbRuFRnzssJT6DQAs4AKHT7JN8agXr8Rfnb9cExn+y57KKFrVnSKgQIEMhXwAAgX1/RCRBog0DX+Ze8YrBe+0YcBLy5DctbkkAhBAwACtEmSbZLIKv9Kuusf7xnypTb25WCdQkQIJCHgAFAHqpiEiCQhMDnz+8+vBayc+PJmvsmkZAkCCQkYACQUDOkkoxA/MX4gZjM52ZM6+5JJimJECBAoIkCrgHQREyhCBBIS+Dsk4+7etH48Ncxq+Pj15K0spMNAQIECCQksCJeWObTq582/pUO/hPqilQIEGi6gDMAmk4qIAECKQp85sILdxszOPYrMbcPxy/DzxSbJKeWCjgDoKXcFktXoB5Tm9LfP/ZzP7j8m8vSTVNmBAgQaI6AAUBzHEUhQKAgAl2TJv/NYGe4MH4s4PUFSVmaBHIRMADIhVXQYgncUqvVPzZj6tTfFytt2RIgQGDkAgYAI7ezJwECRRXIstoZ503+53i659fjhQL3KGoZ8iYwGgEDgNHo2bfgAsuzkJ0ZVq+8sKenZ7DgtUifAAECwxIwABgWl40JECiTwKcvumiXsRs7u9w2sExdVctQBQwAhipluxIJbLqtX0dnOP3K7u6lJapLKQQIEBiygAHAkKlsSIBAWQXOOP/iv65lHRdmIexf1hrVRWBzAQOAzUX8veQCt3TUw0e/e2n3jSWvU3kECBDYpoABwDZ5PEmAQGUEfCygMq1W6H8LGAB4JVREYNPp/vs+7zkXdHV1NS7450GAAIFKCxgAVLr9iidAYHOBrkmX7jxY2/glHwvYXMbfyyZgAFC2jqpnMwGn+3tJECBAYAsCBgBbQPEtAgQIdE3qfs1gLd4toJa9gQaBMgoYAJSxq2pqCMSPc90c7/b60Z5pl/yBCAECBAg8WcAAwCuCAAECWxP408cCarVJcZNdt7aZ7xMoooABQBG7JuftCKyKp/t/0en+21HyNAEClRYwAKh0+xVPgMBQBD47afJenR3hgrjtO4eyvW0IFEHAAKAIXZLjUAXivPbHnVnnid+99KJHh7qP7QgQIFBFAQOAKnZdzQQIjEjgC+df8rb4S+ZFcefnjiiAnQgkJGAAkFAzpDIagUW1rPbJGdMnXz6aIPYlQIBAVQQ6qlKoOgkQIDBagTNP/siPOuvjXhnjdMev+DFTDwIECBBok0AW38W6or9/7L4O/tvUAcsSIFBIAWcAFLJtkiZAoN0CZ5w/5cCQ1afEPF7a7lysT2AkAs4AGImafVIQiL+8zsmy7PiZ06dcnUI+ciBAgECRBJwBUKRuyZUAgWQEzjr52N+uHVz31/EX0S/FpDYmk5hECBAgUF6BgXju1fnjNva+ysF/eZusMgIE8hVwBkC+vqITIFABga5zp7xqsFafGkvdrwLlKrEkAs4AKEkjq1PGH2sd2bEzpky5qTolq5QAAQLNF3AGQPNNRSRAoGICXacee0fnigX7Z6F2aix9bcXKVy4BAgTyE6iF3lALX9q5M+zn4D8/ZpEJEKiOgDMAqtNrlRIg0AKBrkkXvWiwNubyUMve0ILlLEFgxALOABgxnR1bJZCFm7LQ+c890y+e1aolrUOAAIGyCzgDoOwdVh8BAi0V6DrtxDmdK+cfnNWyT8eF+1u6uMUIECBQDoGBeKOVr2VrVhzg4L8cDVUFAQLpCDgDIJ1eyIQAgZIJfO78i/9XR9bRuDe1OwWUrLdlKMcZAGXoYilreCjLwvt7pnf/rpTVKYoAAQJtFnAGQJsbYHkCBMor8OWTT/hD404BjatWxyqz8laqMgIECIxeIL4rdUU2fsyrHPyP3lIEAgQIbE3AGQBbk/F9AgQINFHg8+d2v7VWyy6LIXdrYlihCIxYwBkAI6azY/MFlsUr/H8wXuTvx80PLSIBAgQIPFHAGQBeDwQIEGiBwNmnHvfjzlrHa0JWu64Fy1mCAAECxRBoXOivVm9c4d/BfzE6JksCBAouYABQ8AZKnwCB4gh0nXzsY40LBMZTr74Us64XJ3OZEiBAoOkCWePjUZsu9Dd16kNNjy4gAQIECGxRwEcAtsjimwQIEMhX4PGPBHwrrrJrviuJTmDLAj4CsGUX322JwKqsVvtwz9TJ32vJahYhQIAAgT8LOAPAi4EAAQJtEGh8JKDe2fk3cekb27C8JQkQINAWgXg11BsHwuCrHfy3hd+iBAgQCAYAXgQECBBok8CXP/bhhztXLDigltW+1qYULEuAAIGWCdSy0B1Wr3jjVdOmPdyyRS1EgAABAk8S8BEALwgCBAgkIPCF87r/OX4gdnJMZYcE0pFCBQR8BKACTU6nxL6QZSfNnD5lSjopyYQAAQLVFHAGQDX7rmoCBBITOPOU464IoePAmNYjiaUmHQIECIxGYH6W1Q5x8D8aQvsSIECgeQIGAM2zFIkAAQKjEjjrlGNvGaiNfV0Mcu2oAtmZAAECaQjcMNAZXtczffINaaQjCwIECBAwAPAaIECAQEICXz35Q0s6V+xyREypO6G0pEKAAIFhCcTPmF6Rrd7xsKu6uxcMa0cbEyBAgECuAq4BkCuv4AQIEBi5wBnnTv5YqIVzY4TOkUexJ4EtC7gGwJZdfHfUAoPxSv+n9kzrvnDUkQQgQIAAgaYLOAOg6aQCEiBAoDkCZ516/IVZLRwVsrCqORFFIUCAQK4Ca2sd2d85+M/VWHACBAiMSsAAYFR8diZAgEC+AmeffPzPQ732hrjK3HxXEp0AAQKjEngs68gOnDFlyo9HFcXOBAgQIJCrgAFArryCEyBAYPQCZ51+3N0Dnf2vi5/Z+s3oo4lAgACBZgvUft9Zq7+uZ8qU25sdWTwCBAgQaK6AAUBzPUUjQIBALgJf/djHlq2o9R0RP1sbbxfoQYAAgWQEerLVTzv0yqlTFyWTkUQIECBAYKsCLgK4VRpPECBAIEGBeEPtL5zf/cU4CPhCzM7P8ARbVJSUXASwKJ1KNs8s/gQ6c+bU7i/FDOOPJA8CBAgQKIKAMwCK0CU5EiBA4E8CtVp25inHd8Uj/2Pit/rBECBAoA0Cg/ECpR+JB/9dcW0H/21ogCUJECAwUgEDgJHK2Y8AAQJtFIhDgG9ltdpRMYXVbUzD0gQIVE9gXTzif3vP1O7u6pWuYgIECBRfwACg+D1UAQECFRU4++Tjru7MOg6M5c+rKIGyCRBorcDCrFY/KN7m7z9bu6zVCBAgQKBZAgYAzZIUhwABAm0Q6Dr12Ds66/UD4tL3tWF5SxIgUB2BB7MweGDP1Km3VKdklRIgQKB8AgYA5eupiggQqJhA12knzO0fO7h//CjubytWunIJEGiBQDzl/8as3v/6nmnTZrdgOUsQIECAQI4CBgA54gpNgACBVgmcc+KJK9YOrj8y3hjgh61a0zoECJRfIAvZD8PqHQ/pufTSJeWvVoUECBAov4ABQPl7rEICBCoiMOn003vv22vnd8Zyp1akZGUSIJCvwL8ted5z3tXTM6k332VEJ0CAAIFWCbiHdKukrUOAAIFWCWRZ7Yzzu8+Jy32yVUtap3gCs+7wUe7ida2FGWfh/Fc8f+/Turq66i1c1VIECBAgkLOAAUDOwMITIECgXQKfP6/7lFrIJsX1/axvVxMSXtcAIOHmtDe1LP7EOHPm1O6u9qZhdQIECBDIQ8BHAPJQFZMAAQIJCJx9ynHnxSP/Y2IqAwmkIwUCBNIXGMxq4SMO/tNvlAwJECAwUgEDgJHK2Y8AAQIFEDjzlOO/Fc8CeFdMdUMB0pUiAQLtE9gYsux9PVO7u9uXgpUJECBAIG8BA/0l9AAAHLFJREFUA4C8hcUnQIBAmwXOPOUjP8xqtbfFNNa1ORXLEyCQpsC6ePD/lpnTp8xMMz1ZESBAgECzBAwAmiUpDgECBBIWOPvk464OHfV4m8CwOuE0pUaAQOsF4sF/eFs8+L+69UtbkQABAgRaLWAA0Gpx6xEgQKBNAmeddMJ1IXQcGpdf1qYULEuAQFoCK2u1+uEzp3f/Oq20ZEOAAAECeQkYAOQlKy4BAgQSFDjrlGNvCbX6xJja0gTTkxIBAq0TWJGFjiNnTJ36+9YtaSUCBAgQaLeAAUC7O2B9AgQItFjgrJNPuC2rd7wxLrugxUtbjgCBFASysLizVj+4Z9olf0ghHTkQIECAQOsEDABaZ20lAgQIJCNw9mnH3ptlg4fEhOYlk5RECBBohcCiWq3jsCunTr2jFYtZgwABAgTSEjAASKsfsiFAgEDLBM4+9cRZWUfHgXHBh1q2qIUIEGinwKODg7UDZ0y75K52JmFtAgQIEGifgAFA++ytTIAAgbYLnH3SsQ/VOzsbZwI82PZkJECAQG4CtRAernWGQ75/2eQHcltEYAIECBBIXsAAIPkWSZAAAQL5Cnz5Yx9+uD4w0BgCODDIl1p0Au0SeKheqx8yo7vboK9dHbAuAQIEEhEwAEikEdIgQIBAOwW+/PGPPjqYdRyYheDU4HY2wtoEmi8wK+vvOLBn6lQf9Wm+rYgECBAonIABQOFaJmECBAjkI/CVU49dNGZc/bA4BHBxsHyIRSXQaoF7B+Jp/z2XX+Jin62Wtx4BAgQSFTAASLQx0iJAgEA7BLpOOGHxwNjBg2uh5vZg7WiANQk0SSAO8m7r7AxvvKq72+0+m2QqDAECBMogYABQhi6qgQABAk0UOOfEE1d01MceWQvZ75sYVigCBFoncMtA/9iJV3Z3L23dklYiQIAAgSIIGAAUoUtyJECAQIsFuk47ZmVHbeORIatd1+KlLUeAwKgEsuvGbhh/6A8u/+ayUYWxMwECBAiUUsAAoJRtVRQBAgRGL9B18smrOzs2HBUj3Tj6aCIQIJC7QC3cOmbcmLd9+9sXrM59LQsQIECAQCEFDAAK2TZJEyBAoDUCjSHAxgnhyLjaTa1Z0SoECIxQ4PYsG5z4nYsvXjHC/e1GgAABAhUQMACoQJOVSIAAgdEIfO3441d11scdEWPcMpo49iVAIB+Bxp07+vvHHt4zbdryfFYQlQABAgTKImAAUJZOqoMAAQI5CjSuCTBQG/vmeKBxV47LCE2AwPAFZoXBMUf6zP/w4exBgACBKgoYAFSx62omQIDACAS+evKHlowZVz8s7nrPCHa3CwECTRaohfDAQGc4pOeyixY2ObRwBAgQIFBSAQOAkjZWWQQIEMhDoOuEExYPZh2Hxtj35RFfTAIEhiwwu97fcchV3d0LhryHDQkQIECg8gIGAJV/CQAgQIDA8AS+cuqxi+oDA41rAswZ3p62JkCgSQKPdAx2TOy5/JJ5TYonDAECBAhURMAAoCKNViYBAgSaKfDlj3/00Y4sHBJjzm1mXLEIENiuwGMDWech373sEv/2tktlAwIECBDYXMAAYHMRfydAgACBIQl86dTjH+kc7JwYN54/pB1sRIDAaAUWDXaGiVdNv9jZN6OVtD8BAgQqKmAAUNHGK5sAAQLNEOg6/cOzOztrjTMBfA65GaBiENiaQBYWZ/Xaod/v7nb9ja0Z+T4BAgQIbFfAAGC7RDYgQIAAgW0JdH3suPs7O0LjwoCLtrWd5wgQGLHA0lqt47CeSye7A8eICe1IgAABAg0BAwCvAwIECBAYtUDXScff15l1NC4MuGzUwQQgQOCJAiuzWv1NM6ZdchcWAgQIECAwWgEDgNEK2p8AAQIENgl0nXrsHZ312uHxP5cjIUCgKQKrah3ZET1Tp97SlGiCECBAgEDlBQwAKv8SAECAAIHmCXSddtztoZ69NUZc27yoIhGopMDaLKu9ecaUKTdVsnpFEyBAgEAuAgYAubAKSoAAgeoKnHXaR27IOjreHgU2VFdB5QRGJbAxdGTv6pk++YZRRbEzAQIECBDYTMAAwEuCAAECBJoucPZJx/6qFrL3xsADTQ8uIIFyCwzWQvinmVOm/KzcZaqOAAECBNohYADQDnVrEiBAoAICZ57ykR/WQu1DsdR6BcpVIoFmCGTxtP/jZ0zr7mlGMDEIECBAgMDmAgYAm4v4OwECBAg0TeDMU467ImThlKYFFIhAqQWyT8bT/qeVukTFESBAgEBbBQwA2spvcQIECJRf4KxTj78wZLWzy1+pCgmMQiALZ82cNuUbo4hgVwIECBAgsF0BA4DtEtmAAAECBEYrcNapx50RP9c8abRx7E+gnAK1i2ZO7/5COWtTFQECBAikJGAAkFI35EKAAIESC5x58nEfz0K4tMQlKo3A8AVqtW+/4nl7nTT8He1BgAABAgSGL2AAMHwzexAgQIDASARqtWzWXrscG68JcNVIdrcPgbIJxAv+/XjnjuyYrq4uF8osW3PVQ4AAgUQFDAASbYy0CBAgUEaBnqOPHlxbX/dPsbZry1ifmggMVSDLwvUT+te/t7u7u3+o+9iOAAECBAiMVsAAYLSC9idAgACBYQlMOv303s5a39/WsnDzsHa0MYHyCPyxv77xLVdcccW68pSkEgIECBAogoABQBG6JEcCBAiUTKDr5JNXdwyEN8ey7i1ZacohsE2BeDHMBzpr9SP//bLLVm5zQ08SIECAAIEcBAwAckAVkgABAgS2L9D1r8cvrQ/WJ8Yt525/a1sQKIXAY/1hcOKVU6cuKkU1iiBAgACBwgkYABSuZRImQIBAeQS+fPoJ8zoHOxtDgIXlqUolBLYosGSwM0y8atq0h7f4rG8SIECAAIEWCBgAtADZEgQIECCwdYGu0z88O9TqR8W7A6za+laeIVBogVUdoePI73d331foKiRPgAABAoUXMAAofAsVQIAAgeILnHXyCbeFjtrbYyUbil+NCgg8SWBjVqu9+7vTLrmNCwECBAgQaLeAAUC7O2B9AgQIENgkcNbJx11bC9l7438OIiFQEoF6vOjfP/VMnfyLktSjDAIECBAouIABQMEbKH0CBAiUSeDMUz7yw6wWTipTTWqprkC81eXHZ0zr7qmugMoJECBAIDUBA4DUOiIfAgQIVFzg7JOPv7iW1b5WcQblF1wgHvyfM2N697kFL0P6BAgQIFAyAQOAkjVUOQQIECiDwJmnHPuZLIRLy1CLGqonEE/7/048+P9s9SpXMQECBAikLmAAkHqH5EeAAIEqCtRq2eIJ4fhY+k+rWL6aCyyQ1X5VX73imFhBnGF5ECBAgACBtAQMANLqh2wIECBA4HGB7uOP7++cEN4ZauEGKASKIBCP+G/OJnS+vaenZ2MR8pUjAQIECFRPwACgej1XMQECBAoj0HX88es7N4a/jQnPKkzSEq2qwINjavW39lx00dqqAqibAAECBNIXMABIv0cyJECAQKUFuv71+KWd9cGjIsLCSkMoPmWBJbWO7Kgrp05d9P+3d7c/clX3HcDvmVkCSqVKSH2DBf0D0j+hr/qqTSqbYBpDnBQwjr02wV7bQaUkDR1210BMKtQgHHv2wU5dHryTAAmoIdA2VGqqiJagQhsCoshpGiCAYxsb/LCeOT2mrdL4Cds7D/fO+awUhd2ZOef7/Zx5sz/v3FvmkLIRIECAAAEDAO8BAgQIECi9QGPjTa/VY+3306eqD5Q+rIC5CRwMneIPdk9NvZJbcX0JECBAoHoCBgDVOzOJCRAgkKVAY8OqF2K9tjSVP5olgNJlFJgvavFTu3c0f1TGcDIRIECAAIGTBQwAThbxPQECBAiUVmBy3aq/TzcIOHGF9U5pQwqWi8CJq/yvmpua+l4uhfUkQIAAgeoLGABU/ww1IECAQFYC4+vXPBRD8adZlVa2hALxT+Zmmt8oYTCRCBAgQIDAGQUMAM5I4wECBAgQKKvA5PrRe0JR3FvWfHINu0DYOjcz9dVhb6kfAQIECAyfgAHA8J2pRgQIEMhCoLbvjVuKULSyKKtkmQRaH7visnVlCiQLAQIECBA4V4H0Dyi+CBAgQIBANQUaO3Zc0j4w/7dFiL9bzQaDS/3yC88NbvPK7hyfPVwPv/d4s/l+ZSsIToAAAQJZC/gLgKyPX3kCBAhUW6CxYsWR4yPHrkwt3IKt2kdZ+vTpX0xem7+ovtgv/6U/KgEJECBA4CwCBgBnwfEQAQIECJRf4K6bb95b77Q/XsTirfKnlbCiAnvT7f4+/ui2bd5jFT1AsQkQIEDgfwQMALwTCBAgQKDyAo2NN73WqXUWpyL+NLvyp1m6AkeKonbl7qkpf2VSuqMRiAABAgTOV8AA4HzFPJ8AAQIESimwef3aZ0MsbkjhOqUMKFQVBWKI8XNzM9t+UMXwMhMgQIAAgZMFDABOFvE9AQIECFRWYHzD6Im7AtxW2QKCl0ogxuLW3bNTD5QqlDAECBAgQGABAgYAC8DzUgIECBAon8DE2OiWdMG2+8uXTKKKCUy3Zpv3VCyzuAQIECBA4KwCBgBn5fEgAQIECFRR4KXLLh0rivDtKmaXefACsSi++9YVi9YOPokEBAgQIECguwIGAN31tBoBAgQIlECgtWxZu35JXB6K8GwJ4ohQIYH0y//zxcUjy55pNI5XKLaoBAgQIEDgnAQMAM6JyZMIECBAoGoCjdHR94934idT7p9WLbu8AxIIxc/bobOktXXroQElsC0BAgQIEOipgAFAT3ktToAAAQKDFLhz4+gb9RA/kTLsH2QOe1dC4N160fnEI9PT/1WJtEISIECAAIELEDAAuAA0LyFAgACB6gg01q/5cex0rkqJj1UntaR9FpiPIfzRQ9PTL/R5X9sRIECAAIG+ChgA9JXbZgQIECAwCIHJjWufSfuuSP9LH/H2ReDXBWKMq1vT25/mQoAAAQIEhl3AAGDYT1g/AgQIEPhAIN0e8MEihs04CPy6QJxszU7tpEKAAAECBHIQMADI4ZR1JECAAIEPBCbGVt2e/u9BHAQ+EIjxm3MzUyfeE74IECBAgEAWAgYAWRyzkgQIECDwgUAIsf6bH1kZivhDItkLPHd4JFyfFHwsJPu3AgACBAjkI2AAkM9Za0qAAAECSaCxYsWR2nxYnP7zNSB5CoR0a8h66Pzh483m+3kKaE2AAAECuQoYAOR68noTIEAgY4HGLaPvpNsDLk7/9nsgY4Zcqx+shc6SdMX/X+QKoDcBAgQI5CtgAJDv2WtOgACBrAU+uD1giNcmhONZQ+RVvp0+B/IZt/vL69C1JUCAAIFfCRgAeDcQIECAQLYCk2NrnoxFuCVbgNyKh2LT3Mz2x3OrrS8BAgQIEPg/AQMA7wUCBAgQyFpgcmz1X6bPhN+fNUIe5afnpptfy6OqlgQIECBA4PQCBgCnd/FTAgQIEMhI4KXLLh1LF4N/IqPKWVVNl/l/6q0rFq3NqrSyBAgQIEDgNAIGAKdB8SMCBAgQyEugtWxZ++iRi5an1i/m1TyLti/Nt49d80yj4VoPWRy3kgQIECBwNgEDgLPpeIwAAQIEshHYcuvKg/VOZ0m6M8Bb2ZQe/qJ7Y9Fe8tjOnfuHv6qGBAgQIEDgwwUMAD7cyDMIECBAIBOBxsa1ezohXJXqHsmk8jDXPBY78erWzMyrw1xSNwIECBAgcD4CBgDno+W5BAgQIDD0ApvHVv9TulXc9alo+ui4r4oKpJs7hJWtHVP/UNH8YhMgQIAAgZ4IGAD0hNWiBAgQIFBlgYmx1XNFjBNV7pB19lCMz01v/+usDZQnQIAAAQKnETAAOA2KHxEgQIAAgYmx0UZSeJhEtQTSn208km73d0e1UktLgAABAgT6I2AA0B9nuxAgQIBA1QRCiIfa792YYv9z1aLnmjf98v/8JccOX5f6+/hGrm8CvQkQIEDgrAIGAGfl8SABAgQI5Cxw76ZNh+u1kU8mg5/n7FCR7m/WOyNX7tq1672K5BWTAAECBAj0XcAAoO/kNiRAgACBKgk01q18vShqV6bMh6uUO7OsR0LoXPXwjq0/y6y3ugQIECBA4LwEDADOi8uTCRAgQCBHgYmxVc+FIozm2L0KnWMMN++env5hFbLKSIAAAQIEBilgADBIfXsTIECAQGUExsdW7woxfKUygTMJGmJxd2t2+0wmddUkQIAAAQILEjAAWBCfFxMgQIBATgK1/a9/sQjFd3LqXPKuT3YO7vuzkmcUjwABAgQIlEbAAKA0RyEIAQIECJRdoNFodI4eHvlsyvli2bNmkO+lWC+ubbVa7Qy6qkiAAAECBLoiYADQFUaLECBAgEAuAltuXXmw3uksSX3fzqVzCXvujUV7SavZPFDCbCIRIECAAIHSChgAlPZoBCNAgACBsgo0Nq7d04nF0pTvWFkzDnGu+SIWn2rNzLw6xB1VI0CAAAECPREwAOgJq0UJECBAYNgFNm8Y/cdQxDXD3rN0/WJYPzfb/H7pcglEgAABAgQqIGAAUIFDEpEAAQIEyikwPrZmR7o94H3lTDeEqWLxtbnZ7duGsJlKBAgQIECgLwIGAH1htgkBAgQIDKtAbd/rm4oiPD2s/crTKz791m8v+kJ58khCgAABAgSqJ2AAUL0zk5gAAQIESiSQ7gxwfP6i49ek2wP6THrvzmVPvR6WP5Ose7eFlQkQIECAwPALGAAM/xlrSIAAAQI9Frj7ppv2xXbtxJ0B3u3xVjkufyi2iyUPNZvv5FheZwIECBAg0E0BA4BualqLAAECBLIVmNy46qXYKa5PADFbhO4Xj0WMK1s7my92f2krEiBAgACB/AQMAPI7c40JECBAoEcCkxtHH0sfBbirR8tnt2woijvnZqfmsiuuMAECBAgQ6JGAAUCPYC1LgAABAnkK1H/5xpfTHwE8kWf77rVOf0bxVOfdfX/evRWtRIAAAQIECBgAeA8QIECAAIEuCqSLAnaOHrloeVryx11cNrelXplvH7um1Wq1cyuuLwECBAgQ6KWAAUAvda1NgAABAlkKbLl15cEY20vT1QAOZAmwsNKH2rW49LGdO/cvbBmvJkCAAAECBE4WMAA4WcT3BAgQIECgCwKTG256OYR44qKAnS4sl8sSMYaw4ltTU/+eS2E9CRAgQIBAPwUMAPqpbS8CBAgQyEpgfGzNt9OF7CayKr2QsqEYb01v/+ZClvBaAgQIECBA4MwCBgBntvEIAQIECBBYsMD4+tV3FEXwS+2HS37nY5cvGv/wp3kGAQIECBAgcKECBgAXKud1BAgQIEDgXATS5wCOHqnfmG4P6M/az+z1cqwX1524gOKZn+IRAgQIECBAYKECBgALFfR6AgQIECDwIQInLgpYr4Wl6WkubHeq1cHYCUtbzaYLJp5q4ycECBAgQKCrAgYAXeW0GAECBAgQOL1A4+bVr4QYrk2PurXdr4g6oRaXt3Zsd8vE079t/JQAAQIECHRVwACgq5wWI0CAAAECZxYY37D6e0WIjTM/I69HYihu3z019URerbUlQIAAAQKDEzAAGJy9nQkQIEAgQ4GJdaObiyLOZVj95MqPtaabd578Q98TIECAAAECvRMwAOidrZUJECBAgMCpAumigPWR9spYFP926oN5/CTE4icXHbn4+tQ2MfgiQIAAAQIE+iVgANAvafsQIECAAIH/FWh8/vOHRjqdxenbdzJE2dcJ7cUPPHDfuxl2V5kAAQIECAxUwABgoPw2J0CAAIFcBRob1+4JMS5P/XO6KGCnCOGzrZmZV3M9d70JECBAgMAgBQwABqlvbwIECBDIWmB8w5qnY4hfygjhtrnp7X+TUV9VCRAgQIBAqQQMAEp1HMIQIECAQG4Ck+tGt6TODw977/Rh/0fmZpr3DHtP/QgQIECAQJkFDADKfDqyESBAgMDwC6SLAh5qv3djKvrcsJZNv/y/cMmxw9elfi76N6yHrBcBAgQIVELAAKASxyQkAQIECAyzwL2bNh3u1OtXp45vD2HPX9bqxdJdu3a9N4TdVCJAgAABApUSMACo1HEJS4AAAQLDKrD55s/9NBTx06nfMF0UsBOL8JndzeZ/DOu56UWAAAECBKokYABQpdOSlQABAgSGWmB8bM3fFSE2hqVkDMXtrZntTw5LHz0IECBAgEDVBQwAqn6C8hMgQIDAUAlMrBvdnD4q/2jVS8UYnvidyxfdVfUe8hMgQIAAgWESMAAYptPUhQABAgSqL5AuCljvXHziooBV/rP5PcePj9zQaDQ61T8QDQgQIECAwPAIGAAMz1lqQoAAAQJDItDYuGJ/PdaWpjrvV7DSkdAprn70r+7fW8HsIhMgQIAAgaEWMAAY6uNVjgABAgSqKtDYsOqFlH1V1fLHGNfu3tH8UdVyy0uAAAECBHIQMADI4ZR1JECAAIFKCkyMjT4YiuLr1QkftrZmp3ZWJ6+kBAgQIEAgLwEDgLzOW1sCBAgQqJjAm5cUY0UMPyh/7PjswY9+ZFP5c0pIgAABAgTyFTAAyPfsNSdAgACBCgg0R0fnO+35T6eob5c47t5au37Nd++772iJM4pGgAABAgSyFzAAyP4tAIAAAQIEyi6w+Quf/1n6KMA1KWe7hFk7IRbLH965bU8Js4lEgAABAgQI/D8BAwBvBwIECBAgUAGB8bHR78cifLlsUWMovrR7tvlU2XLJQ4AAAQIECJwqYABwqomfECBAgACBUgpMrl91dwr2rRKFe7w13fxKifKIQoAAAQIECJxFwADgLDgeIkCAAAECpRIIIR49MrIiZfpJCXK9GuvFH6ccsQRZRCBAgAABAgTOQcAA4ByQPIUAAQIECJRFYMutKw8WtWJZyvPewDKF4nCtqC1rNZsHBpbBxgQIECBAgMB5CxgAnDeZFxAgQIAAgcEKTKwbfTH9McCqgaWIxdqHZ7Y9P7D9bUyAAAECBAhckIABwAWxeREBAgQIEBiswPj6NQ+lv77f2v8UYevcTPMb/d/XjgQIECBAgMBCBQwAFiro9QQIECBAYEAC+8OxTekWfP/Sx+3/Nb770Vv6uJ+tCBAgQIAAgS4KGAB0EdNSBAgQIECgnwL3rV9/NBTF1WnPvX3Yd//xWF/aat17uA972YIAAQIECBDogYABQA9QLUmAAAECBPolcMeG0f+MMdyQ9uvl1fhj+rrxkdmvv9avXvYhQIAAAQIEui9gANB9UysSIECAAIG+CkxuWP1E+v3/L3q1aQjFV1uzU4/2an3rEiBAgAABAv0RGOnPNnYhQIAAAQIEeilQ3/fmbZ1LL/uNGIrf6uY+6SMG7/zi8kVf7Oaa1iJAgAABAgQIECBAgAABAgQIECBAgAABAgQIECBAgAABAgQIECBAgAABAgQIECBAgAABAgQIECBAgAABAgQIECBAgAABAgQIECBAgAABAgQIECBAgAABAgQIECBAgAABAgQIECBAgAABAgQIECBAgAABAgQIECBAgAABAgQIECBAgAABAgQIECBAgAABAgQIECBAgAABAgQIECBAgAABAgQIECBAgAABAgQIECBAgAABAgQIECBAgAABAgQIECBAgAABAgQIECBAgAABAgQIECBAgAABAgQIECBAgAABAgQIECBAgAABAgQIECBAgAABAgQIECBAgAABAgQIECBAgAABAgQIECBAgAABAgQIECBAgAABAgQIECBAgAABAgQIECBAgAABAgQIECBAgAABAgQIECBAgAABAgQIECBAgAABAgQIECBAgAABAgQIECBAgAABAgQIECBAgAABAgQIECBAgAABAgQIECBAgAABAgQIECBAgAABAgQIECBAgEB2Av8NbIJdzKmuHZcAAAAASUVORK5CYII=;" vertex="1" parent="1">
          <mxGeometry x="440" y="322.25" width="52.5" height="52.5" as="geometry" />
        </mxCell>
        <mxCell id="wmjr8Ue8o1Gtoz59wysQ-9" value="" style="endArrow=classic;html=1;rounded=0;" edge="1" parent="1">
          <mxGeometry width="50" height="50" relative="1" as="geometry">
            <mxPoint x="497.5" y="337" as="sourcePoint" />
            <mxPoint x="517.5" y="317" as="targetPoint" />
          </mxGeometry>
        </mxCell>
        <mxCell id="wmjr8Ue8o1Gtoz59wysQ-10" value="accept" style="text;html=1;align=center;verticalAlign=middle;resizable=0;points=[];autosize=1;strokeColor=none;fillColor=none;" vertex="1" parent="1">
          <mxGeometry x="509" y="299.5" width="60" height="30" as="geometry" />
        </mxCell>
        <mxCell id="wmjr8Ue8o1Gtoz59wysQ-11" value="" style="endArrow=classic;html=1;rounded=0;" edge="1" parent="1">
          <mxGeometry width="50" height="50" relative="1" as="geometry">
            <mxPoint x="497.5" y="355.75" as="sourcePoint" />
            <mxPoint x="517.5" y="375.75" as="targetPoint" />
          </mxGeometry>
        </mxCell>
        <mxCell id="wmjr8Ue8o1Gtoz59wysQ-12" value="reject" style="text;html=1;align=center;verticalAlign=middle;resizable=0;points=[];autosize=1;strokeColor=none;fillColor=none;" vertex="1" parent="1">
          <mxGeometry x="510" y="363" width="50" height="30" as="geometry" />
        </mxCell>
        <mxCell id="wmjr8Ue8o1Gtoz59wysQ-13" value="Consumer" style="image;sketch=0;aspect=fixed;html=1;points=[];align=center;fontSize=12;image=img/lib/mscae/Person.svg;" vertex="1" parent="1">
          <mxGeometry x="214.2" y="321.25" width="37" height="50" as="geometry" />
        </mxCell>
        <mxCell id="wmjr8Ue8o1Gtoz59wysQ-16" value="" style="endArrow=classic;html=1;rounded=0;exitX=0.97;exitY=-0.059;exitDx=0;exitDy=0;exitPerimeter=0;" edge="1" parent="1" source="wmjr8Ue8o1Gtoz59wysQ-13">
          <mxGeometry width="50" height="50" relative="1" as="geometry">
            <mxPoint x="356" y="170" as="sourcePoint" />
            <mxPoint x="440" y="190" as="targetPoint" />
          </mxGeometry>
        </mxCell>
        <mxCell id="wmjr8Ue8o1Gtoz59wysQ-17" value="1. download container&amp;nbsp;&lt;div&gt;image&lt;/div&gt;" style="edgeLabel;html=1;align=center;verticalAlign=middle;resizable=0;points=[];" vertex="1" connectable="0" parent="wmjr8Ue8o1Gtoz59wysQ-16">
          <mxGeometry x="-0.4906" relative="1" as="geometry">
            <mxPoint x="21" y="-5" as="offset" />
          </mxGeometry>
        </mxCell>
        <mxCell id="wmjr8Ue8o1Gtoz59wysQ-22" value="" style="endArrow=classic;html=1;rounded=0;entryX=0;entryY=0.5;entryDx=0;entryDy=0;exitX=1.002;exitY=0.541;exitDx=0;exitDy=0;exitPerimeter=0;" edge="1" parent="1" source="wmjr8Ue8o1Gtoz59wysQ-13" target="wmjr8Ue8o1Gtoz59wysQ-8">
          <mxGeometry width="50" height="50" relative="1" as="geometry">
            <mxPoint x="406" y="230" as="sourcePoint" />
            <mxPoint x="350" y="310" as="targetPoint" />
          </mxGeometry>
        </mxCell>
        <mxCell id="wmjr8Ue8o1Gtoz59wysQ-23" value="2. verify attestations" style="edgeLabel;html=1;align=center;verticalAlign=middle;resizable=0;points=[];" vertex="1" connectable="0" parent="wmjr8Ue8o1Gtoz59wysQ-22">
          <mxGeometry x="-0.4906" relative="1" as="geometry">
            <mxPoint x="46" y="-9" as="offset" />
          </mxGeometry>
        </mxCell>
      </root>
    </mxGraphModel>
  </diagram>
</mxfile>
